<?xml version="1.0" encoding="UTF-8"?>
<svg width="64px" height="64px" viewBox="0 0 64 64" version="1.1" xmlns="http://www.w3.org/2000/svg" xmlns:xlink="http://www.w3.org/1999/xlink">
    <title>Icon/Block/1</title>
    <g id="Icon/Block/1" stroke="none" stroke-width="1" fill="none" fill-rule="evenodd">
        <g id="Group-2">
            <path d="M53,32.5 C53,43.8280172 43.8280172,53 32.5,53 C21.1719828,53 12,43.8280172 12,32.5 C12,21.1719828 21.1719828,12 32.5,12 C43.8280172,12 53,21.1719828 53,32.5" id="Path" fill="#EBEBEB" fill-rule="nonzero"></path>
            <g id="1" transform="translate(3.000000, 7.000000)">
                <g id="Group" transform="translate(0.000000, 9.000000)" fill="#E27556" fill-rule="nonzero">
                    <path d="M3.85,31 C3.7,30.725 3.6,30.475 3.475,30.225 C3.35,29.975 3.25,29.7 3.1,29.35 C3.05,29.25 3,29.125 2.925,28.95 C2.9,28.875 2.85,28.775 2.8,28.675 L2.75,28.575 L2.7,28.45 C2.675,28.35 2.625,28.275 2.6,28.175 C2.525,27.975 2.45,27.8 2.375,27.6 C1.775,26 1.25,24.05 0.925,22.15 C0.575,20.225 0.5,18.375 0.5,17.025 C0.525,16.35 0.525,15.8 0.55,15.4 C0.575,15.025 0.575,14.8 0.575,14.8 C0.575,14.8 0.575,14.75 0.575,14.65 C0.575,14.55 0.6,14.4 0.625,14.2 C0.65,14 0.675,13.775 0.7,13.5 C0.75,13.25 0.775,12.925 0.825,12.6 C1.025,11.25 1.4,9.45 2,7.625 C2.075,7.4 2.15,7.175 2.225,6.95 L2.475,6.275 C2.65,5.825 2.85,5.375 3.025,4.925 C3.225,4.5 3.425,4.05 3.625,3.65 C3.725,3.45 3.825,3.25 3.925,3.05 C3.975,2.95 4.025,2.85 4.075,2.75 C4.125,2.65 4.175,2.575 4.225,2.475 C4.35,2.25 4.45,2.05 4.55,1.9 C4.65,1.75 4.725,1.6 4.775,1.525 C5.15,0.875 5.375,0.525 5.725,-1.77635684e-15 C5.375,0.525 5.075,0.825 4.675,1.45 C4.625,1.525 4.525,1.65 4.425,1.825 C4.325,1.975 4.2,2.175 4.075,2.4 C4.025,2.475 3.975,2.575 3.925,2.65 C3.875,2.75 3.8,2.85 3.75,2.925 C3.65,3.125 3.525,3.325 3.4,3.525 C3.175,3.925 2.95,4.35 2.75,4.8 C2.55,5.25 2.325,5.675 2.15,6.15 L1.875,6.825 C1.8,7.05 1.7,7.275 1.625,7.525 C0.95,9.35 0.55,11.2 0.35,12.55 C0.3,12.9 0.25,13.2 0.225,13.475 C0.2,13.75 0.175,14 0.15,14.175 C0.125,14.375 0.125,14.525 0.1,14.625 C0.1,14.725 0.1,14.775 0.1,14.775 C0.1,14.775 0.075,15 0.075,15.4 C0.05,15.8 0.05,16.35 0.025,17.05 C0.025,18.425 0.15,20.3 0.525,22.2 C0.875,24.125 1.5,26.075 2.175,27.65 C2.25,27.85 2.35,28.05 2.425,28.225 C2.475,28.325 2.5,28.4 2.55,28.5 L2.6,28.625 L2.65,28.725 C2.7,28.825 2.75,28.925 2.775,29 C2.85,29.175 2.925,29.3 2.975,29.4 C3.15,29.725 3.3,30 3.425,30.225 C3.575,30.5 3.7,30.725 3.85,31 Z" id="Path"></path>
                    <path d="M56.1,6 C56.325,6.575 56.45,7 56.65,7.7 C56.675,7.8 56.725,7.95 56.775,8.125 C56.8,8.225 56.825,8.325 56.85,8.425 C56.875,8.5 56.875,8.55 56.9,8.625 C56.925,8.7 56.925,8.775 56.95,8.85 C57,9 57.025,9.15 57.075,9.3 C57.225,9.925 57.375,10.6 57.5,11.3 C57.625,12 57.725,12.725 57.8,13.45 C57.95,14.875 58,16.25 57.975,17.275 C57.975,17.525 57.975,17.75 57.95,17.95 C57.95,18.15 57.925,18.325 57.925,18.475 C57.9,18.775 57.9,18.925 57.9,18.925 C57.9,18.925 57.875,19.1 57.875,19.375 C57.85,19.675 57.8,20.075 57.75,20.575 C57.625,21.575 57.4,22.925 57.075,24.325 C56.725,25.725 56.25,27.175 55.8,28.325 C55.625,28.775 55.45,29.15 55.375,29.35 C55.225,29.7 55.1,29.95 55,30.225 C54.875,30.475 54.775,30.725 54.625,31 C54.775,30.725 54.9,30.5 55.05,30.25 C55.2,30 55.325,29.75 55.5,29.425 C55.6,29.25 55.775,28.875 55.975,28.425 C56.5,27.275 57.05,25.825 57.45,24.425 C57.85,23.025 58.075,21.65 58.225,20.625 C58.275,20.125 58.325,19.7 58.35,19.4 C58.375,19.1 58.375,18.95 58.375,18.95 C58.375,18.95 58.375,18.775 58.4,18.5 C58.4,18.35 58.425,18.175 58.425,17.975 C58.425,17.775 58.425,17.525 58.425,17.275 C58.45,16.25 58.375,14.85 58.175,13.4 C58.075,12.675 57.95,11.95 57.8,11.225 C57.65,10.525 57.45,9.85 57.275,9.225 C57.225,9.075 57.175,8.925 57.125,8.775 C57.1,8.7 57.075,8.625 57.05,8.55 C57.025,8.475 57,8.425 56.975,8.35 C56.95,8.25 56.9,8.15 56.875,8.05 C56.825,7.875 56.75,7.725 56.725,7.625 C56.525,6.95 56.325,6.575 56.1,6 Z" id="Path"></path>
                </g>
                <g id="Group" transform="translate(6.250000, 0.000000)" fill="#373751" fill-rule="nonzero">
                    <path d="M43,5 C42.85,5 42.775,4.925 42.6,4.875 C42.55,4.875 42.475,4.85 42.35,4.825 C42.25,4.8 42.1,4.775 41.975,4.775 C41.725,4.75 41.5,4.75 41.5,4.75 C41.5,4.75 41.275,4.75 41.025,4.775 C40.9,4.775 40.775,4.8 40.65,4.825 C40.55,4.85 40.45,4.875 40.4,4.875 C40.225,4.925 40.125,5 40,5 C40.15,5 40.225,5.075 40.4,5.125 C40.45,5.125 40.525,5.15 40.65,5.175 C40.75,5.2 40.9,5.225 41.025,5.225 C41.275,5.25 41.5,5.25 41.5,5.25 C41.5,5.25 41.725,5.25 41.975,5.225 C42.1,5.225 42.225,5.2 42.35,5.175 C42.45,5.15 42.55,5.125 42.6,5.125 C42.775,5.075 42.85,5 43,5 Z" id="Path"></path>
                    <path d="M36,5 C35.85,5 35.775,4.925 35.6,4.875 C35.55,4.875 35.475,4.85 35.35,4.825 C35.25,4.8 35.1,4.775 34.975,4.775 C34.725,4.75 34.5,4.75 34.5,4.75 C34.5,4.75 34.275,4.75 34.025,4.775 C33.9,4.775 33.775,4.8 33.65,4.825 C33.55,4.85 33.45,4.875 33.4,4.875 C33.225,4.925 33.125,5 33,5 C33.15,5 33.225,5.075 33.4,5.125 C33.45,5.125 33.525,5.15 33.65,5.175 C33.75,5.2 33.9,5.225 34.025,5.225 C34.275,5.25 34.5,5.25 34.5,5.25 C34.5,5.25 34.725,5.25 34.975,5.225 C35.1,5.225 35.225,5.2 35.35,5.175 C35.45,5.15 35.55,5.125 35.6,5.125 C35.775,5.075 35.85,5 36,5 Z" id="Path"></path>
                    <path d="M38,7 C38,7.15 37.925,7.225 37.875,7.4 C37.875,7.45 37.85,7.525 37.825,7.65 C37.8,7.75 37.775,7.9 37.775,8.025 C37.75,8.275 37.75,8.5 37.75,8.5 C37.75,8.5 37.75,8.725 37.775,8.975 C37.775,9.1 37.8,9.225 37.825,9.35 C37.85,9.45 37.875,9.55 37.875,9.6 C37.925,9.775 38,9.875 38,10 C38,9.85 38.075,9.775 38.125,9.6 C38.125,9.55 38.15,9.475 38.175,9.35 C38.2,9.25 38.225,9.1 38.225,8.975 C38.25,8.725 38.25,8.5 38.25,8.5 C38.25,8.5 38.25,8.275 38.225,8.025 C38.225,7.9 38.2,7.775 38.175,7.65 C38.15,7.55 38.125,7.45 38.125,7.4 C38.075,7.225 38,7.15 38,7 Z" id="Path"></path>
                    <path d="M38,0 C38,0.15 37.925,0.225 37.875,0.4 C37.875,0.45 37.85,0.525 37.825,0.65 C37.8,0.75 37.775,0.9 37.775,1.025 C37.75,1.275 37.75,1.5 37.75,1.5 C37.75,1.5 37.75,1.725 37.775,1.975 C37.775,2.1 37.8,2.225 37.825,2.35 C37.85,2.45 37.875,2.55 37.875,2.6 C37.925,2.775 38,2.875 38,3 C38,2.85 38.075,2.775 38.125,2.6 C38.125,2.55 38.15,2.475 38.175,2.35 C38.2,2.25 38.225,2.1 38.225,1.975 C38.25,1.725 38.25,1.5 38.25,1.5 C38.25,1.5 38.25,1.275 38.225,1.025 C38.225,0.9 38.2,0.775 38.175,0.65 C38.15,0.55 38.125,0.45 38.125,0.4 C38.075,0.225 38,0.15 38,0 Z" id="Path"></path>
                    <path d="M32,47.175 C31.425,47.4 31,47.5 30.275,47.725 C30.15,47.75 29.95,47.825 29.55,47.925 C29.075,48.05 28.4,48.2 27.7,48.325 C26.975,48.45 26.225,48.575 25.5,48.625 C24.775,48.7 24.125,48.725 23.65,48.75 C23.175,48.75 22.875,48.75 22.875,48.75 C22.875,48.75 21.875,48.75 20.625,48.65 C20,48.6 19.3,48.5 18.625,48.4 C17.95,48.275 17.3,48.15 16.775,48.025 C16.225,47.9 15.875,47.8 15.7,47.75 C14.975,47.55 14.575,47.45 13.975,47.2 C14.55,47.45 14.925,47.65 15.625,47.925 C15.8,48 16.125,48.125 16.675,48.3 C17.2,48.475 17.85,48.65 18.525,48.8 C19.2,48.95 19.9,49.05 20.55,49.125 C21.2,49.2 21.775,49.225 22.175,49.25 C22.6,49.275 22.85,49.275 22.85,49.275 C22.85,49.275 23.15,49.275 23.625,49.275 C24.1,49.25 24.775,49.225 25.5,49.125 C26.225,49.05 27,48.9 27.725,48.725 C28.45,48.55 29.1,48.35 29.575,48.2 C29.975,48.075 30.175,47.975 30.3,47.95 C31.05,47.625 31.425,47.425 32,47.175 Z" id="Path"></path>
                    <path d="M-1.77635684e-15,26 C-1.77635684e-15,25.675 0.025,25.425 0.05,25.15 C0.05,25 0.075,24.875 0.075,24.725 C0.1,24.575 0.1,24.4 0.125,24.225 C0.125,24.125 0.15,23.975 0.175,23.775 C0.175,23.675 0.2,23.575 0.2,23.475 C0.275,23.05 0.35,22.625 0.425,22.15 C0.8,20.275 1.475,18.1 2.425,16.175 C3.375,14.25 4.575,12.55 5.55,11.4 C6.05,10.825 6.475,10.375 6.775,10.05 C7.075,9.75 7.25,9.575 7.25,9.575 C7.25,9.575 7.425,9.4 7.75,9.125 C8.075,8.825 8.55,8.425 9.15,7.95 C9.75,7.475 10.475,6.975 11.3,6.45 C12.125,5.95 13.075,5.45 14.05,5.025 C15.025,4.6 16.075,4.225 17.1,3.925 C17.35,3.85 17.625,3.775 17.875,3.725 C18.125,3.675 18.375,3.6 18.65,3.55 C18.9,3.5 19.15,3.45 19.4,3.4 C19.525,3.375 19.65,3.35 19.775,3.325 C19.825,3.325 19.9,3.3 19.95,3.3 L20.1,3.275 C20.6,3.2 21,3.15 21.2,3.125 C21.95,3.05 22.375,3 23,3 C22.375,3.025 21.95,2.975 21.2,3.025 C21,3.025 20.6,3.05 20.1,3.1 L19.95,3.125 C19.9,3.125 19.825,3.125 19.775,3.15 C19.65,3.175 19.525,3.175 19.4,3.2 C19.15,3.25 18.9,3.25 18.65,3.325 C18.4,3.375 18.125,3.425 17.875,3.475 C17.625,3.525 17.35,3.6 17.075,3.65 C16.025,3.925 14.95,4.25 13.925,4.675 C12.925,5.1 11.95,5.575 11.1,6.075 C10.25,6.575 9.5,7.1 8.875,7.575 C8.25,8.05 7.775,8.45 7.45,8.75 C7.125,9.05 6.925,9.225 6.925,9.225 C6.925,9.225 6.75,9.4 6.425,9.725 C6.1,10.025 5.675,10.5 5.175,11.1 C4.2,12.25 3,14 2.075,15.975 C1.125,17.95 0.525,20.2 0.225,22.1 C0.175,22.575 0.125,23.025 0.075,23.425 C0.075,23.525 0.075,23.65 0.05,23.725 C0.05,23.925 0.025,24.075 0.025,24.175 C0.025,24.35 -1.77635684e-15,24.525 -1.77635684e-15,24.675 C-1.77635684e-15,24.825 -1.77635684e-15,24.975 -1.77635684e-15,25.125 C-1.77635684e-15,25.425 -1.77635684e-15,25.675 -1.77635684e-15,26 Z" id="Path"></path>
                    <path d="M41.25,12 C41.425,12.25 41.575,12.475 41.725,12.7 C41.875,12.95 42.025,13.2 42.225,13.5 C42.275,13.6 42.35,13.725 42.45,13.875 C42.5,13.95 42.55,14.05 42.6,14.15 C42.625,14.2 42.65,14.25 42.7,14.3 C42.725,14.35 42.775,14.425 42.8,14.475 C42.875,14.6 42.925,14.725 43,14.85 C43.55,15.9 44.1,17.175 44.525,18.425 C44.95,19.675 45.225,20.9 45.4,21.825 C45.575,22.75 45.625,23.35 45.625,23.35 C45.625,23.35 45.65,23.5 45.675,23.775 C45.7,24.05 45.725,24.425 45.75,24.875 C45.775,25.35 45.8,25.9 45.775,26.475 C45.775,27.075 45.725,27.725 45.675,28.375 C45.55,29.7 45.3,31.075 45.025,32.2 C44.9,32.675 44.8,33.075 44.725,33.25 C44.5,33.975 44.4,34.375 44.15,34.95 C44.4,34.375 44.6,34 44.85,33.3 C44.925,33.1 45.075,32.725 45.225,32.25 C45.575,31.15 45.9,29.75 46.05,28.425 C46.125,27.75 46.175,27.1 46.2,26.5 C46.225,25.9 46.2,25.325 46.2,24.85 C46.175,24.375 46.15,23.975 46.125,23.725 C46.1,23.45 46.075,23.3 46.075,23.3 C46.075,23.3 46.025,22.7 45.85,21.75 C45.675,20.825 45.375,19.55 44.9,18.3 C44.45,17.025 43.825,15.775 43.2,14.75 C43.125,14.625 43.05,14.5 42.975,14.375 C42.95,14.325 42.9,14.25 42.875,14.2 C42.85,14.15 42.8,14.1 42.775,14.05 C42.725,13.95 42.65,13.875 42.6,13.8 C42.5,13.65 42.4,13.525 42.35,13.425 C42.125,13.125 41.95,12.875 41.775,12.675 C41.6,12.45 41.45,12.25 41.25,12 Z" id="Path"></path>
                    <path d="M7,31.75 C6.8,31.15 6.725,30.725 6.575,30 C6.55,29.9 6.525,29.75 6.5,29.575 C6.475,29.475 6.475,29.375 6.45,29.275 C6.425,29.1 6.4,28.9 6.375,28.675 C6.275,27.825 6.2,26.825 6.225,25.85 C6.25,24.9 6.35,23.975 6.475,23.3 C6.55,22.975 6.575,22.7 6.625,22.5 C6.675,22.3 6.7,22.2 6.7,22.2 C6.7,22.2 6.725,22.125 6.75,22.025 C6.775,21.9 6.825,21.75 6.875,21.55 C6.975,21.15 7.15,20.575 7.4,19.95 C7.625,19.325 7.925,18.65 8.25,18 C8.575,17.375 8.925,16.75 9.25,16.275 C9.4,16.025 9.525,15.85 9.65,15.7 C9.75,15.55 9.825,15.45 9.9,15.375 C10.125,15.075 10.3,14.85 10.475,14.625 C10.65,14.4 10.825,14.2 11.025,13.975 C10.8,14.2 10.625,14.375 10.4,14.575 C10.2,14.775 10,14.975 9.75,15.25 C9.7,15.325 9.6,15.425 9.475,15.575 C9.425,15.65 9.35,15.725 9.275,15.825 C9.2,15.925 9.125,16.025 9.025,16.125 C8.65,16.6 8.275,17.175 7.9,17.825 C7.55,18.475 7.2,19.15 6.975,19.775 C6.725,20.4 6.55,21 6.425,21.425 C6.35,21.625 6.325,21.8 6.3,21.925 C6.275,22.05 6.25,22.1 6.25,22.1 C6.25,22.1 6.225,22.2 6.175,22.4 C6.125,22.6 6.075,22.875 6.025,23.225 C5.925,23.925 5.825,24.85 5.825,25.85 C5.825,26.825 5.95,27.875 6.1,28.725 C6.15,28.925 6.2,29.15 6.225,29.325 C6.25,29.425 6.275,29.525 6.3,29.625 C6.35,29.8 6.4,29.95 6.425,30.05 C6.6,30.775 6.8,31.175 7,31.75 Z" id="Path"></path>
                    <path d="M25,9.125 C25.3,9.175 25.575,9.225 25.85,9.275 C25.975,9.3 26.125,9.325 26.275,9.35 C26.425,9.375 26.6,9.4 26.775,9.475 C26.875,9.5 27.025,9.55 27.2,9.6 C27.3,9.625 27.4,9.65 27.5,9.675 C27.65,9.725 27.775,9.75 27.925,9.8 C28.075,9.85 28.25,9.9 28.4,9.975 C28.725,10.1 29.05,10.225 29.375,10.35 C30.675,10.925 32.05,11.7 33.325,12.7 C34.575,13.7 35.725,14.925 36.65,16.225 C36.875,16.55 37.1,16.9 37.325,17.225 C37.525,17.575 37.7,17.925 37.9,18.25 L38.05,18.5 C38.1,18.575 38.125,18.675 38.175,18.75 C38.25,18.925 38.325,19.1 38.4,19.275 C38.55,19.625 38.7,19.95 38.8,20.3 C38.925,20.65 39.025,20.975 39.125,21.3 C39.225,21.625 39.275,21.975 39.35,22.275 C39.4,22.425 39.425,22.6 39.45,22.75 C39.5,22.9 39.5,23.05 39.525,23.2 C39.575,23.5 39.6,23.8 39.65,24.075 C39.75,25.2 39.775,26.125 39.75,26.775 C39.725,27.1 39.7,27.35 39.7,27.525 C39.7,27.7 39.675,27.775 39.675,27.775 C39.675,27.775 39.675,27.875 39.65,28.025 C39.625,28.2 39.6,28.45 39.55,28.775 C39.45,29.425 39.25,30.325 38.875,31.4 C38.5,32.475 37.975,33.7 37.2,34.925 C36.425,36.15 35.425,37.375 34.25,38.475 C33.65,39.025 33,39.525 32.35,39.975 C31.675,40.425 30.975,40.825 30.25,41.2 C29.525,41.55 28.8,41.85 28.05,42.1 C27.675,42.2 27.325,42.325 26.95,42.425 C26.775,42.475 26.6,42.525 26.4,42.55 C26.225,42.575 26.075,42.625 25.9,42.65 C25.425,42.75 25.025,42.8 24.825,42.825 C24.45,42.875 24.175,42.9 23.875,42.925 C23.6,42.95 23.325,42.95 23.025,42.95 C23.35,42.95 23.6,42.95 23.875,42.95 C24.15,42.95 24.45,42.925 24.825,42.9 C24.925,42.9 25.075,42.875 25.275,42.85 C25.475,42.825 25.7,42.8 25.925,42.775 C26.1,42.75 26.25,42.725 26.425,42.7 C26.6,42.65 26.8,42.625 26.975,42.575 C27.35,42.5 27.725,42.4 28.1,42.3 C28.85,42.075 29.6,41.8 30.35,41.45 C31.1,41.1 31.825,40.725 32.525,40.25 C33.225,39.8 33.9,39.3 34.5,38.75 C35.725,37.65 36.775,36.425 37.575,35.15 C38.4,33.9 38.95,32.625 39.325,31.55 C39.7,30.45 39.925,29.5 40.025,28.85 C40.1,28.525 40.1,28.275 40.125,28.075 C40.15,27.9 40.15,27.8 40.15,27.8 C40.15,27.8 40.175,27.7 40.175,27.525 C40.2,27.35 40.2,27.1 40.225,26.75 C40.25,26.075 40.25,25.125 40.125,23.975 C40.075,23.675 40.05,23.375 40,23.075 C39.975,22.925 39.975,22.75 39.925,22.6 C39.875,22.45 39.85,22.275 39.8,22.125 C39.725,21.8 39.65,21.45 39.55,21.125 C39.425,20.8 39.325,20.45 39.2,20.1 C39.1,19.75 38.925,19.4 38.775,19.05 C38.7,18.875 38.625,18.7 38.525,18.525 C38.475,18.425 38.45,18.35 38.4,18.25 L38.25,18 C38.05,17.65 37.85,17.3 37.65,16.95 C37.425,16.625 37.175,16.275 36.95,15.95 C35.975,14.625 34.775,13.425 33.475,12.425 C32.175,11.45 30.75,10.7 29.4,10.15 C29.05,10.025 28.725,9.925 28.4,9.8 C28.225,9.75 28.075,9.675 27.925,9.65 C27.775,9.625 27.65,9.575 27.5,9.55 C27.4,9.525 27.3,9.5 27.2,9.475 C27.025,9.425 26.875,9.4 26.775,9.375 C26.6,9.325 26.425,9.3 26.275,9.275 C26.125,9.25 25.975,9.225 25.85,9.225 C25.575,9.2 25.3,9.175 25,9.125 Z" id="Path"></path>
                    <path d="M3,40 C3.1,40.1 3.1,40.225 3.175,40.35 C3.2,40.375 3.25,40.475 3.3,40.55 C3.35,40.625 3.425,40.75 3.5,40.825 C3.65,41 3.8,41.15 3.8,41.15 C3.8,41.15 3.95,41.3 4.125,41.45 C4.225,41.525 4.325,41.6 4.4,41.65 C4.475,41.7 4.575,41.75 4.6,41.775 C4.75,41.85 4.85,41.875 4.95,41.95 C4.85,41.85 4.85,41.725 4.775,41.6 C4.75,41.575 4.7,41.475 4.65,41.4 C4.6,41.325 4.525,41.2 4.45,41.125 C4.3,40.95 4.15,40.8 4.15,40.8 C4.15,40.8 4,40.65 3.825,40.5 C3.725,40.425 3.625,40.35 3.55,40.3 C3.475,40.25 3.375,40.2 3.35,40.175 C3.225,40.1 3.1,40.1 3,40 Z" id="Path"></path>
                    <path d="M8,45 C8.1,45.1 8.1,45.225 8.175,45.35 C8.2,45.375 8.25,45.475 8.3,45.55 C8.35,45.625 8.425,45.75 8.5,45.825 C8.65,46 8.8,46.15 8.8,46.15 C8.8,46.15 8.95,46.3 9.125,46.45 C9.225,46.525 9.325,46.6 9.4,46.65 C9.475,46.7 9.575,46.75 9.6,46.775 C9.75,46.85 9.85,46.875 9.95,46.95 C9.85,46.85 9.85,46.725 9.775,46.6 C9.75,46.575 9.7,46.475 9.65,46.4 C9.6,46.325 9.525,46.2 9.45,46.125 C9.3,45.95 9.15,45.8 9.15,45.8 C9.15,45.8 9,45.65 8.825,45.5 C8.725,45.425 8.625,45.35 8.55,45.3 C8.475,45.25 8.375,45.2 8.35,45.175 C8.225,45.1 8.1,45.1 8,45 Z" id="Path"></path>
                    <path d="M10,40 C9.9,40.1 9.775,40.1 9.65,40.175 C9.625,40.2 9.525,40.25 9.45,40.3 C9.375,40.35 9.25,40.425 9.175,40.5 C9,40.65 8.85,40.8 8.85,40.8 C8.85,40.8 8.7,40.95 8.55,41.125 C8.475,41.225 8.4,41.325 8.35,41.4 C8.3,41.475 8.25,41.575 8.225,41.6 C8.15,41.75 8.125,41.85 8.05,41.95 C8.15,41.85 8.275,41.85 8.4,41.775 C8.425,41.75 8.525,41.7 8.6,41.65 C8.675,41.6 8.8,41.525 8.875,41.45 C9.05,41.3 9.2,41.15 9.2,41.15 C9.2,41.15 9.35,41 9.5,40.825 C9.575,40.725 9.65,40.625 9.7,40.55 C9.75,40.475 9.8,40.375 9.825,40.35 C9.9,40.225 9.9,40.1 10,40 Z" id="Path"></path>
                    <path d="M5,45 C4.9,45.1 4.775,45.1 4.65,45.175 C4.625,45.2 4.525,45.25 4.45,45.3 C4.375,45.35 4.25,45.425 4.175,45.5 C4,45.65 3.85,45.8 3.85,45.8 C3.85,45.8 3.7,45.95 3.55,46.125 C3.475,46.225 3.4,46.325 3.35,46.4 C3.3,46.475 3.25,46.575 3.225,46.6 C3.15,46.75 3.125,46.85 3.05,46.95 C3.15,46.85 3.275,46.85 3.4,46.775 C3.425,46.75 3.525,46.7 3.6,46.65 C3.675,46.6 3.8,46.525 3.875,46.45 C4.05,46.3 4.2,46.15 4.2,46.15 C4.2,46.15 4.35,46 4.5,45.825 C4.575,45.725 4.65,45.625 4.7,45.55 C4.75,45.475 4.8,45.375 4.825,45.35 C4.9,45.225 4.9,45.1 5,45 Z" id="Path"></path>
                    <path d="M41,40 C41,40.15 40.925,40.225 40.875,40.4 C40.875,40.45 40.85,40.525 40.825,40.65 C40.8,40.75 40.775,40.9 40.775,41.025 C40.75,41.275 40.75,41.5 40.75,41.5 C40.75,41.5 40.75,41.725 40.775,41.975 C40.775,42.1 40.8,42.225 40.825,42.35 C40.85,42.45 40.875,42.55 40.875,42.6 C40.925,42.775 41,42.875 41,43 C41,42.85 41.075,42.775 41.125,42.6 C41.125,42.55 41.15,42.475 41.175,42.35 C41.2,42.25 41.225,42.1 41.225,41.975 C41.25,41.725 41.25,41.5 41.25,41.5 C41.25,41.5 41.25,41.275 41.225,41.025 C41.225,40.9 41.2,40.775 41.175,40.65 C41.15,40.55 41.125,40.45 41.125,40.4 C41.075,40.225 41,40.15 41,40 Z" id="Path"></path>
                    <path d="M41,47 C41,47.15 40.925,47.225 40.875,47.4 C40.875,47.45 40.85,47.525 40.825,47.65 C40.8,47.75 40.775,47.9 40.775,48.025 C40.75,48.275 40.75,48.5 40.75,48.5 C40.75,48.5 40.75,48.725 40.775,48.975 C40.775,49.1 40.8,49.225 40.825,49.35 C40.85,49.45 40.875,49.55 40.875,49.6 C40.925,49.775 41,49.875 41,50 C41,49.85 41.075,49.775 41.125,49.6 C41.125,49.55 41.15,49.475 41.175,49.35 C41.2,49.25 41.225,49.1 41.225,48.975 C41.25,48.725 41.25,48.5 41.25,48.5 C41.25,48.5 41.25,48.275 41.225,48.025 C41.225,47.9 41.2,47.775 41.175,47.65 C41.15,47.55 41.125,47.45 41.125,47.4 C41.075,47.225 41,47.15 41,47 Z" id="Path"></path>
                    <path d="M46,45 C45.85,45 45.775,44.925 45.6,44.875 C45.55,44.875 45.475,44.85 45.35,44.825 C45.25,44.8 45.1,44.775 44.975,44.775 C44.725,44.75 44.5,44.75 44.5,44.75 C44.5,44.75 44.275,44.75 44.025,44.775 C43.9,44.775 43.775,44.8 43.65,44.825 C43.55,44.85 43.45,44.875 43.4,44.875 C43.225,44.925 43.125,45 43,45 C43.15,45 43.225,45.075 43.4,45.125 C43.45,45.125 43.525,45.15 43.65,45.175 C43.75,45.2 43.9,45.225 44.025,45.225 C44.275,45.25 44.5,45.25 44.5,45.25 C44.5,45.25 44.725,45.25 44.975,45.225 C45.1,45.225 45.225,45.2 45.35,45.175 C45.45,45.15 45.55,45.125 45.6,45.125 C45.775,45.075 45.85,45 46,45 Z" id="Path"></path>
                    <path d="M39,45 C38.85,45 38.775,44.925 38.6,44.875 C38.55,44.875 38.475,44.85 38.35,44.825 C38.25,44.8 38.1,44.775 37.975,44.775 C37.725,44.75 37.5,44.75 37.5,44.75 C37.5,44.75 37.275,44.75 37.025,44.775 C36.9,44.775 36.775,44.8 36.65,44.825 C36.55,44.85 36.45,44.875 36.4,44.875 C36.225,44.925 36.125,45 36,45 C36.15,45 36.225,45.075 36.4,45.125 C36.45,45.125 36.525,45.15 36.65,45.175 C36.75,45.2 36.9,45.225 37.025,45.225 C37.275,45.25 37.5,45.25 37.5,45.25 C37.5,45.25 37.725,45.25 37.975,45.225 C38.1,45.225 38.225,45.2 38.35,45.175 C38.45,45.15 38.55,45.125 38.6,45.125 C38.775,45.075 38.85,45 39,45 Z" id="Path"></path>
                </g>
                <polyline id="Path" fill="#DE6341" points="29.45 15 32.775 21.775 40.25 22.85 34.85 28.125 36.125 35.55 29.45 32.05 22.775 35.55 24.05 28.125 18.625 22.85 26.1 21.775 29.45 15"></polyline>
                <path d="M29.45,15 C29.725,15.55 29.9,15.95 30.225,16.625 C30.525,17.25 31.125,18.525 31.85,20.05 C32.1,20.55 32.325,21.05 32.575,21.575 L32.675,21.775 C32.7,21.8 32.7,21.85 32.725,21.875 L32.825,21.9 L32.925,21.925 C33.075,21.95 33.2,21.975 33.35,22 C33.65,22.05 33.925,22.1 34.225,22.125 C35.4,22.3 36.6,22.5 37.825,22.675 C38.425,22.775 39.05,22.875 39.675,22.95 L39.9,22.975 C39.9,22.975 39.9,22.975 39.9,22.975 C39.9,22.975 39.9,22.975 39.9,22.975 L39.9,22.975 C39.9,22.975 39.925,22.95 39.875,23 L39.2,23.65 C38.3,24.525 37.4,25.4 36.5,26.25 C36.05,26.675 35.6,27.1 35.175,27.525 L34.85,27.85 L34.725,27.95 L34.65,28.025 C34.625,28.05 34.65,28.1 34.65,28.125 L34.7,28.4 C34.75,28.7 34.8,29 34.85,29.3 C35.05,30.475 35.25,31.625 35.425,32.75 C35.525,33.3 35.6,33.85 35.7,34.375 C35.75,34.625 35.775,34.875 35.825,35.125 C35.825,35.125 35.825,35.125 35.825,35.125 C34.975,34.675 34.175,34.25 33.45,33.875 C31.9,33.05 30.625,32.4 29.75,31.925 C29.65,31.875 29.575,31.825 29.475,31.775 C29.425,31.8 29.375,31.825 29.325,31.85 C29.275,31.875 29.25,31.9 29.2,31.9 C29.1,31.95 29,32 28.925,32.05 C28.75,32.15 28.6,32.225 28.5,32.275 C28.275,32.4 28.15,32.475 28.15,32.475 C28.15,32.475 26.175,33.525 23.125,35.125 C23.375,33.65 23.675,31.925 23.975,30.025 C24.075,29.475 24.15,28.9 24.25,28.325 L24.275,28.2 L24.3,28.1 C24.3,28.075 24.3,28.075 24.3,28.05 L24.25,28 L24.025,27.8 L23.7,27.5 C23.5,27.3 23.275,27.1 23.05,26.875 C22.2,26.05 21.3,25.2 20.4,24.325 C19.95,23.9 19.5,23.45 19.05,23.025 L19,22.975 L19,22.975 L19,22.975 C19,22.975 19,22.975 19,22.975 L19,22.975 L19.05,22.975 L19.175,22.95 L20.1,22.8 C21.35,22.6 22.575,22.425 23.8,22.225 C24.4,22.125 25.025,22.025 25.625,21.95 L26.075,21.875 L26.175,21.85 C26.2,21.85 26.2,21.825 26.2,21.825 L26.225,21.775 L26.275,21.675 L26.375,21.475 C26.5,21.2 26.625,20.925 26.75,20.675 C27.25,19.625 27.725,18.6 28.2,17.65 C28.425,17.2 28.575,16.825 28.675,16.65 C29,15.95 29.175,15.55 29.45,15 C29.175,15.55 28.975,15.925 28.625,16.6 C28.525,16.775 28.35,17.15 28.125,17.575 C27.625,18.525 27.125,19.55 26.6,20.575 C26.475,20.85 26.325,21.1 26.2,21.375 L26.1,21.575 L26.05,21.675 L26.05,21.675 C26.05,21.675 26.075,21.675 26.025,21.675 C25.875,21.7 25.725,21.725 25.575,21.725 C24.975,21.8 24.375,21.9 23.75,21.975 C22.525,22.15 21.275,22.3 20.05,22.475 L19.125,22.6 L18.825,22.65 C18.675,22.675 18.525,22.7 18.375,22.725 C18.25,22.725 18.35,22.8 18.4,22.85 L18.575,23.025 L18.85,23.3 C19.3,23.75 19.75,24.175 20.175,24.625 C21.05,25.5 21.925,26.35 22.775,27.2 C23,27.4 23.2,27.625 23.4,27.825 L23.725,28.125 L23.8,28.2 L23.825,28.225 L23.825,28.225 L23.825,28.225 L23.825,28.225 L23.825,28.225 L23.825,28.25 L23.825,28.3 C23.725,28.875 23.625,29.425 23.525,30 C23.325,31.1 23.15,32.175 22.975,33.175 C22.9,33.675 22.8,34.15 22.725,34.625 C22.675,34.925 22.625,35.225 22.575,35.525 C22.55,35.625 22.55,35.75 22.525,35.85 L22.5,36.025 C22.5,36.025 22.5,36.025 22.5,36.025 L22.525,36.025 L22.55,36 L22.625,35.95 C22.825,35.85 23.025,35.75 23.2,35.65 C26.325,34 28.35,32.95 28.35,32.95 C28.35,32.95 28.475,32.875 28.7,32.75 C28.825,32.7 28.975,32.6 29.125,32.525 C29.2,32.475 29.3,32.425 29.4,32.375 L29.425,32.35 L29.425,32.35 L29.425,32.35 C29.425,32.35 29.4,32.325 29.475,32.375 C30.35,32.85 31.625,33.5 33.175,34.325 C34,34.75 34.875,35.225 35.825,35.7 C35.925,35.75 36.05,35.825 36.175,35.875 L36.35,35.975 L36.4,36 L36.425,36 C36.425,36 36.45,36 36.425,36 L36.4,35.9 C36.35,35.65 36.325,35.4 36.275,35.125 C36.225,34.85 36.175,34.575 36.125,34.3 C36.025,33.775 35.95,33.225 35.85,32.675 C35.65,31.575 35.45,30.425 35.25,29.25 C35.2,28.95 35.15,28.65 35.1,28.35 L35.075,28.25 L35.075,28.2 L35.075,28.2 L35.075,28.2 C35.075,28.2 35.075,28.2 35.075,28.2 L35.125,28.15 L35.45,27.825 C35.875,27.4 36.325,26.975 36.775,26.525 C37.65,25.65 38.55,24.775 39.45,23.9 L40.125,23.25 L40.425,22.95 L40.6,22.8 C40.65,22.775 40.575,22.775 40.55,22.75 L40.425,22.725 C40.275,22.7 40.125,22.675 39.95,22.65 L39.725,22.625 C39.1,22.55 38.5,22.45 37.875,22.375 C36.65,22.2 35.45,22.05 34.275,21.875 C33.975,21.825 33.7,21.8 33.4,21.75 C33.25,21.725 33.1,21.7 32.975,21.7 L32.875,21.675 C32.85,21.675 32.875,21.675 32.875,21.675 L32.775,21.475 C32.525,20.975 32.25,20.475 32,19.975 C31.225,18.45 30.6,17.225 30.275,16.6 C29.925,15.925 29.725,15.55 29.45,15 Z" id="Path" fill="#FFFFFF" fill-rule="nonzero"></path>
                <path d="M29.45,15 C29.725,15.55 29.9,15.95 30.225,16.625 C30.525,17.25 31.125,18.525 31.85,20.05 C32.1,20.55 32.325,21.05 32.575,21.575 L32.675,21.775 C32.7,21.8 32.7,21.85 32.725,21.875 L32.825,21.9 L32.925,21.925 C33.075,21.95 33.2,21.975 33.35,22 C33.65,22.05 33.925,22.1 34.225,22.125 C35.4,22.3 36.6,22.5 37.825,22.675 C38.425,22.775 39.05,22.875 39.675,22.95 L39.9,22.975 C39.9,22.975 39.9,22.975 39.9,22.975 C39.9,22.975 39.9,22.975 39.9,22.975 L39.9,22.975 C39.9,22.975 39.925,22.95 39.875,23 L39.2,23.65 C38.3,24.525 37.4,25.4 36.5,26.25 C36.05,26.675 35.6,27.1 35.175,27.525 L34.85,27.85 L34.725,27.95 L34.65,28.025 C34.625,28.05 34.65,28.1 34.65,28.125 L34.7,28.4 C34.75,28.7 34.8,29 34.85,29.3 C35.05,30.475 35.25,31.625 35.425,32.75 C35.525,33.3 35.6,33.85 35.7,34.375 C35.75,34.625 35.775,34.875 35.825,35.125 C35.825,35.125 35.825,35.125 35.825,35.125 C34.975,34.675 34.175,34.25 33.45,33.875 C31.9,33.05 30.625,32.4 29.75,31.925 C29.65,31.875 29.575,31.825 29.475,31.775 C29.425,31.8 29.375,31.825 29.325,31.85 C29.275,31.875 29.25,31.9 29.2,31.9 C29.1,31.95 29,32 28.925,32.05 C28.75,32.15 28.6,32.225 28.5,32.275 C28.275,32.4 28.15,32.475 28.15,32.475 C28.15,32.475 26.175,33.525 23.125,35.125 C23.375,33.65 23.675,31.925 23.975,30.025 C24.075,29.475 24.15,28.9 24.25,28.325 L24.275,28.2 L24.3,28.1 C24.3,28.075 24.3,28.075 24.3,28.05 L24.25,28 L24.025,27.8 L23.7,27.5 C23.5,27.3 23.275,27.1 23.05,26.875 C22.2,26.05 21.3,25.2 20.4,24.325 C19.95,23.9 19.5,23.45 19.05,23.025 L19,22.975 L19,22.975 L19,22.975 C19,22.975 19,22.975 19,22.975 L19,22.975 L19.05,22.975 L19.175,22.95 L20.1,22.8 C21.35,22.6 22.575,22.425 23.8,22.225 C24.4,22.125 25.025,22.025 25.625,21.95 L26.075,21.875 L26.175,21.85 C26.2,21.85 26.2,21.825 26.2,21.825 L26.225,21.775 L26.275,21.675 L26.375,21.475 C26.5,21.2 26.625,20.925 26.75,20.675 C27.25,19.625 27.725,18.6 28.2,17.65 C28.425,17.2 28.575,16.825 28.675,16.65 C29,15.95 29.175,15.55 29.45,15 C29.175,15.55 28.975,15.925 28.625,16.6 C28.525,16.775 28.35,17.15 28.125,17.575 C27.625,18.525 27.125,19.55 26.6,20.575 C26.475,20.85 26.325,21.1 26.2,21.375 L26.1,21.575 L26.05,21.675 L26.05,21.675 C26.05,21.675 26.075,21.675 26.025,21.675 C25.875,21.7 25.725,21.725 25.575,21.725 C24.975,21.8 24.375,21.9 23.75,21.975 C22.525,22.15 21.275,22.3 20.05,22.475 L19.125,22.6 L18.825,22.65 C18.675,22.675 18.525,22.7 18.375,22.725 C18.25,22.725 18.35,22.8 18.4,22.85 L18.575,23.025 L18.85,23.3 C19.3,23.75 19.75,24.175 20.175,24.625 C21.05,25.5 21.925,26.35 22.775,27.2 C23,27.4 23.2,27.625 23.4,27.825 L23.725,28.125 L23.8,28.2 L23.825,28.225 L23.825,28.225 L23.825,28.225 L23.825,28.225 L23.825,28.225 L23.825,28.25 L23.825,28.3 C23.725,28.875 23.625,29.425 23.525,30 C23.325,31.1 23.15,32.175 22.975,33.175 C22.9,33.675 22.8,34.15 22.725,34.625 C22.675,34.925 22.625,35.225 22.575,35.525 C22.55,35.625 22.55,35.75 22.525,35.85 L22.5,36.025 C22.5,36.025 22.5,36.025 22.5,36.025 L22.525,36.025 L22.55,36 L22.625,35.95 C22.825,35.85 23.025,35.75 23.2,35.65 C26.325,34 28.35,32.95 28.35,32.95 C28.35,32.95 28.475,32.875 28.7,32.75 C28.825,32.7 28.975,32.6 29.125,32.525 C29.2,32.475 29.3,32.425 29.4,32.375 L29.425,32.35 L29.425,32.35 L29.425,32.35 C29.425,32.35 29.4,32.325 29.475,32.375 C30.35,32.85 31.625,33.5 33.175,34.325 C34,34.75 34.875,35.225 35.825,35.7 C35.925,35.75 36.05,35.825 36.175,35.875 L36.35,35.975 L36.4,36 L36.425,36 C36.425,36 36.45,36 36.425,36 L36.4,35.9 C36.35,35.65 36.325,35.4 36.275,35.125 C36.225,34.85 36.175,34.575 36.125,34.3 C36.025,33.775 35.95,33.225 35.85,32.675 C35.65,31.575 35.45,30.425 35.25,29.25 C35.2,28.95 35.15,28.65 35.1,28.35 L35.075,28.25 L35.075,28.2 L35.075,28.2 L35.075,28.2 C35.075,28.2 35.075,28.2 35.075,28.2 L35.125,28.15 L35.45,27.825 C35.875,27.4 36.325,26.975 36.775,26.525 C37.65,25.65 38.55,24.775 39.45,23.9 L40.125,23.25 L40.425,22.95 L40.6,22.8 C40.65,22.775 40.575,22.775 40.55,22.75 L40.425,22.725 C40.275,22.7 40.125,22.675 39.95,22.65 L39.725,22.625 C39.1,22.55 38.5,22.45 37.875,22.375 C36.65,22.2 35.45,22.05 34.275,21.875 C33.975,21.825 33.7,21.8 33.4,21.75 C33.25,21.725 33.1,21.7 32.975,21.7 L32.875,21.675 C32.85,21.675 32.875,21.675 32.875,21.675 L32.775,21.475 C32.525,20.975 32.25,20.475 32,19.975 C31.225,18.45 30.6,17.225 30.275,16.6 C29.925,15.925 29.725,15.55 29.45,15 Z" id="Path" fill="#373751" fill-rule="nonzero"></path>
            </g>
        </g>
    </g>
</svg>