<?xml version="1.0" encoding="UTF-8"?>
<svg width="64px" height="64px" viewBox="0 0 64 64" version="1.1" xmlns="http://www.w3.org/2000/svg" xmlns:xlink="http://www.w3.org/1999/xlink">
    <title>Icon/Block/2</title>
    <defs>
        <rect id="path-1" x="0.175" y="0.425" width="42" height="32"></rect>
    </defs>
    <g id="Icon/Block/2" stroke="none" stroke-width="1" fill="none" fill-rule="evenodd">
        <g id="4" transform="translate(1.000000, 1.000000)">
            <g id="Fill-350" fill="#EBEBEB" fill-rule="nonzero">
                <path d="M48,24 C48,37.25 37.25,48 24,48 C10.75,48 0,37.25 0,24 C0,10.75 10.75,0 24,0 C37.25,0 48,10.75 48,24" id="Path"></path>
            </g>
            <g id="Fill-352" transform="translate(8.250000, 30.000000)" fill="#FFFFFE">
                <rect id="Rectangle" x="0.175" y="0.425" width="28" height="31"></rect>
                <path d="M0.175,31.425 C0.8,31.425 1.225,31.425 1.975,31.45 C3,31.45 5.075,31.475 7.625,31.5 C11.15,31.525 15.025,31.55 18.975,31.575 C20.95,31.575 22.975,31.6 24.975,31.6 C26,31.6 27,31.6 28.025,31.625 L28.225,31.625 L28.325,31.625 C28.35,31.625 28.35,31.625 28.375,31.625 L28.375,31.575 L28.375,31.225 L28.375,30.85 L28.375,30.1 C28.375,29.6 28.375,29.1 28.375,28.6 C28.4,20.625 28.4,13 28.425,7.375 C28.425,4.55 28.425,2.2 28.425,0.575 C28.425,0.475 28.425,0.375 28.425,0.275 L28.425,0.2 C28.425,0.175 28.4,0.2 28.4,0.175 L28.375,0.175 L28.225,0.175 C28.075,0.175 27.95,0.175 27.8,0.175 C27.625,0.175 27.45,0.175 27.3,0.175 C27,0.175 26.725,0.175 26.5,0.175 C26.075,0.175 25.85,0.175 25.85,0.175 C25.85,0.175 22.225,0.175 16.6,0.175 C13.8,0.175 10.475,0.175 6.875,0.2 C5.075,0.2 3.2,0.2 1.275,0.225 C1.025,0.225 0.8,0.225 0.55,0.225 L0.35,0.225 C0.225,0.225 0.1,0.225 8.8817842e-15,0.225 L8.8817842e-15,0.775 C8.8817842e-15,1.25 8.8817842e-15,1.75 8.8817842e-15,2.25 C8.8817842e-15,3.225 8.8817842e-15,4.225 8.8817842e-15,5.225 C0.025,9.225 0.05,13.3 0.075,17.275 C0.1,21.2 0.125,25.025 0.15,28.525 C0.15,29.025 0.15,29.425 0.15,29.625 C0.15,30.375 0.15,30.8 0.175,31.425 C0.175,30.8 0.175,30.375 0.2,29.625 C0.2,29.425 0.2,29.025 0.2,28.525 C0.225,25.025 0.25,21.2 0.275,17.275 C0.3,13.3 0.325,9.225 0.35,5.225 C0.35,4.225 0.35,3.225 0.35,2.25 C0.35,1.75 0.35,1.275 0.35,0.775 L0.35,0.6 L0.35,0.6 L0.35,0.6 L0.525,0.6 C0.775,0.6 1,0.6 1.25,0.6 C3.175,0.6 5.05,0.6 6.85,0.625 C10.45,0.625 13.775,0.65 16.575,0.65 C22.2,0.65 25.825,0.65 25.825,0.65 C25.825,0.65 26.575,0.65 27.9,0.65 C27.9,2.25 27.9,4.55 27.9,7.325 C27.9,12.95 27.925,20.575 27.95,28.55 C27.95,29.425 27.95,30.325 27.95,31.2 C26.95,31.2 25.95,31.2 24.95,31.2 C22.925,31.2 20.925,31.225 18.95,31.225 C14.975,31.25 11.125,31.275 7.6,31.3 C5.075,31.325 3,31.35 1.95,31.35 C1.225,31.4 0.8,31.425 0.175,31.425 Z" id="Path" fill-rule="nonzero"></path>
            </g>
            <g id="Fill-351" transform="translate(18.250000, 21.000000)">
                <mask id="mask-2" fill="white">
                    <use xlink:href="#path-1"></use>
                </mask>
                <use id="Mask" fill="#FFFFFE" xlink:href="#path-1"></use>
                <path d="M12.164,13.2128932 L14.37,15.419 L29.3711068,15.42 L42.5175534,28.5664466 L41.8104466,29.2735534 L28.956,16.419 L13.9568932,16.42 L12.164,14.627 L8.871,17.92 L13.37,22.419 L27.3711068,22.42 L37.7055534,32.7544466 L36.9984466,33.4615534 L26.956,23.419 L12.9568932,23.42 L7.45689322,17.92 L12.164,13.2128932 Z M0.517553391,16.5664466 L11.37,27.419 L25.3711068,27.42 L30.5175534,32.5664466 L29.8104466,33.2735534 L24.956,28.419 L10.9568932,28.42 L-0.189553391,17.2735534 L0.517553391,16.5664466 Z M5.51755339,-0.433553391 L16.37,10.419 L31.3711068,10.42 L42.5175534,21.5664466 L41.8104466,22.2735534 L30.956,11.419 L15.9568932,11.42 L4.81044661,0.273553391 L5.51755339,-0.433553391 Z M-0.189553391,2.27355339 L0.517553391,1.56644661 L8.87110678,9.92 L4.164,14.6271068 L-0.189553391,10.2735534 L0.517553391,9.56644661 L4.164,13.213 L7.457,9.919 L-0.189553391,2.27355339 Z M32.5175534,0.566446609 L42.5175534,10.5664466 L41.8104466,11.2735534 L31.8104466,1.27355339 L32.5175534,0.566446609 Z" id="Stroke-355" fill="#DE6341" fill-rule="nonzero" mask="url(#mask-2)"></path>
                <path d="M0.175,32.425 C0.8,32.425 1.225,32.425 1.975,32.45 C3.25,32.45 5.8,32.475 8.925,32.5 C17.875,32.55 28.45,32.575 38.575,32.625 C39.2,32.625 39.825,32.625 40.475,32.625 C40.8,32.625 41.1,32.625 41.425,32.625 L41.9,32.625 L42.25,32.625 L42.375,32.625 C42.4,32.625 42.425,32.625 42.425,32.625 L42.425,32.575 L42.425,32.35 C42.425,31.075 42.425,29.825 42.425,28.6 C42.425,26.15 42.425,23.775 42.45,21.5 C42.45,16.925 42.45,12.75 42.475,9.175 C42.475,5.6 42.475,2.65 42.475,0.6 C42.475,0.475 42.475,0.35 42.475,0.225 C42.475,0.2 42.45,0.2 42.45,0.2 L42.4,0.2 L42.3,0.2 C42.25,0.2 42.175,0.2 42.125,0.2 C41.975,0.2 41.85,0.2 41.7,0.2 C41.475,0.2 41.25,0.2 41.075,0.2 C40.675,0.2 40.35,0.2 40.075,0.2 C39.525,0.2 39.25,0.2 39.25,0.2 C39.25,0.2 20.875,0.2 0.65,0.275 L0.4,0.275 L0.15,0.275 L0.1,0.275 C0.075,0.275 0.075,0.275 0.075,0.3 L0.075,0.425 L0.075,1 L0.075,1.95 C0.075,2.575 0.075,3.225 0.075,3.85 C0.075,5.125 0.075,6.4 0.1,7.675 C0.1,10.225 0.125,12.775 0.125,15.3 C0.15,20.275 0.175,25.1 0.225,29.55 C0.225,30.05 0.225,30.45 0.225,30.65 C0.15,31.375 0.15,31.8 0.175,32.425 C0.175,31.8 0.175,31.375 0.2,30.625 C0.2,30.425 0.2,30.025 0.2,29.525 C0.225,25.1 0.25,20.25 0.3,15.275 C0.3,12.75 0.325,10.225 0.325,7.65 C0.325,6.375 0.325,5.1 0.35,3.825 C0.35,3.2 0.35,2.55 0.35,1.925 L0.35,0.975 L0.35,0.6 L0.35,0.6 L0.575,0.6 C20.8,0.675 39.175,0.675 39.175,0.675 C39.175,0.675 40.175,0.675 41.925,0.675 C41.925,2.7 41.925,5.625 41.925,9.15 C41.925,12.7 41.925,16.9 41.95,21.475 C41.95,23.75 41.95,26.125 41.975,28.575 C41.975,29.775 41.975,31 41.975,32.225 C40.85,32.225 39.7,32.225 38.575,32.225 C28.475,32.275 17.9,32.325 8.925,32.35 C5.8,32.375 3.25,32.4 1.975,32.4 C1.225,32.4 0.8,32.425 0.175,32.425 Z" id="Path" fill="#FFFFFE" fill-rule="nonzero" mask="url(#mask-2)"></path>
            </g>
            <g id="Stroke-353" transform="translate(8.000000, 30.250000)" fill="#373751" fill-rule="nonzero">
                <g id="Group">
                    <path d="M10.425,23.175 C10.425,23.8 10.375,24.225 10.35,24.975 C10.35,25 10.35,25.025 10.35,25.05 C10.35,25.075 10.35,25.075 10.35,25.1 C10.35,25.125 10.35,25.175 10.35,25.2 C10.35,25.2 10.35,25.225 10.35,25.225 L10.375,25.225 L10.425,25.25 C10.45,25.25 10.475,25.275 10.5,25.275 C10.55,25.3 10.575,25.3 10.625,25.325 C10.975,25.45 11.4,25.575 11.85,25.725 C13.175,26.15 14.75,26.65 16.275,27.125 C19.3,28.05 22.05,28.85 22.05,28.85 C22.05,28.85 22.75,29.05 23.8,29.35 C24.325,29.5 24.975,29.675 25.65,29.875 C26,29.975 26.35,30.075 26.725,30.175 C26.9,30.225 27.1,30.275 27.275,30.325 L27.35,30.35 C27.375,30.35 27.4,30.375 27.425,30.375 L27.475,30.375 L27.625,30.375 L27.925,30.375 L28.225,30.375 L28.5,30.375 C28.55,30.375 28.6,30.375 28.625,30.35 L28.625,30.2 C28.625,30.15 28.625,30.1 28.625,30.05 L28.625,29.925 L28.625,29.775 L28.625,29.475 C28.625,29.075 28.6,28.675 28.6,28.275 C28.575,27.5 28.55,26.75 28.55,26.05 C28.525,25.55 28.525,25.15 28.525,24.95 C28.5,24.2 28.45,23.775 28.45,23.15 C28.45,23.775 28.4,24.2 28.375,24.95 C28.375,25.15 28.35,25.55 28.35,26.05 C28.325,26.75 28.325,27.5 28.3,28.275 C28.3,28.675 28.275,29.075 28.275,29.475 L28.275,29.775 L28.275,29.925 L28.275,29.95 L28.275,29.95 L28.275,29.95 L28.275,29.95 L28.275,29.95 L28.275,29.95 L28.25,29.95 L27.95,29.95 L27.65,29.95 L27.5,29.95 C27.475,29.95 27.5,29.95 27.475,29.95 L27.4,29.925 C27.225,29.875 27.025,29.8 26.85,29.75 C26.475,29.65 26.125,29.525 25.8,29.425 C25.125,29.225 24.5,29.025 23.95,28.875 C22.875,28.55 22.2,28.35 22.2,28.35 C22.2,28.35 19.45,27.525 16.4,26.675 C14.875,26.25 13.3,25.825 11.925,25.45 C11.45,25.325 11.025,25.225 10.675,25.125 C10.625,25.125 10.575,25.1 10.55,25.1 C10.525,25.1 10.525,25.1 10.5,25.075 L10.5,25.075 C10.5,25.075 10.5,25.075 10.5,25.075 C10.5,25.05 10.5,25.05 10.5,25.025 C10.5,25 10.5,24.975 10.5,24.95 C10.45,24.225 10.425,23.8 10.425,23.175 Z" id="Path"></path>
                    <path d="M28.425,26.175 C28.425,26.8 28.4,27.225 28.4,27.975 C28.4,28.075 28.4,28.225 28.4,28.425 C28.4,28.525 28.4,28.625 28.4,28.725 C28.4,29.175 28.375,29.65 28.375,30.125 C28.375,30.375 28.375,30.65 28.375,30.9 L28.375,31.1 L28.375,31.1 C28.375,31.1 28.375,31.1 28.375,31.1 L28.325,31.1 C28.2,31.1 28.05,31.1 27.925,31.1 C23.625,31.05 18.525,31 13.675,30.975 C8.825,30.95 4.175,30.95 0.75,30.925 L0.7,30.925 C0.675,30.925 0.7,30.925 0.7,30.925 L0.7,30.925 L0.7,30.925 C0.7,30.9 0.7,30.975 0.7,30.825 C0.7,30.625 0.7,30.425 0.7,30.225 C0.7,29.825 0.7,29.475 0.7,29.125 C0.7,28.425 0.7,27.85 0.7,27.35 C0.7,26.375 0.7,25.825 0.7,25.825 C0.7,25.825 0.7,16.975 0.65,7.25 C0.65,6.025 0.625,4.8 0.625,3.575 C0.625,2.95 0.625,2.35 0.6,1.725 C0.6,1.425 0.6,1.125 0.6,0.8 L0.6,0.35 L0.6,0.3 L0.6,0.275 L0.6,0.275 L0.6,0.275 C0.6,0.275 0.6,0.275 0.6,0.275 L0.725,0.275 C3.125,0.25 5.45,0.225 7.575,0.2 C8.075,0.2 8.475,0.175 8.675,0.175 C9.425,0.175 9.85,0.15 10.475,0.15 C9.85,0.15 9.425,0.125 8.675,0.125 C8.475,0.125 8.075,0.125 7.575,0.1 C5.45,0.075 3.125,0.05 0.725,0.025 L0.6,0.025 L0.375,0.025 L0.35,0.025 C0.35,0.025 0.35,0.05 0.35,0.05 L0.35,0.1 L0.35,0.225 L0.35,0.375 L0.35,0.825 C0.35,1.125 0.35,1.425 0.35,1.75 C0.35,2.35 0.35,2.975 0.325,3.6 C0.325,4.825 0.3,6.05 0.3,7.275 C0.225,17 0.25,25.85 0.25,25.85 C0.25,25.85 0.25,26.4 0.25,27.375 C0.25,27.875 0.25,28.475 0.25,29.15 C0.25,29.5 0.25,29.85 0.25,30.25 C0.25,30.45 0.25,30.65 0.25,30.85 C0.25,31.025 0.25,31.2 0.25,31.375 L0.25,31.425 L0.25,31.45 C0.25,31.45 0.25,31.45 0.275,31.45 L0.35,31.45 L0.5,31.45 C0.6,31.45 0.675,31.45 0.775,31.45 C4.2,31.45 8.85,31.425 13.7,31.4 C18.55,31.375 23.65,31.325 27.95,31.275 C28.075,31.275 28.225,31.275 28.35,31.275 L28.5,31.275 C28.6,31.3 28.55,31.2 28.575,31.15 L28.575,30.95 C28.575,30.675 28.575,30.425 28.575,30.175 C28.575,29.7 28.55,29.225 28.55,28.775 C28.55,28.675 28.55,28.55 28.55,28.475 C28.55,28.275 28.55,28.125 28.55,28.025 C28.425,27.225 28.425,26.8 28.425,26.175 Z" id="Path"></path>
                </g>
            </g>
            <g id="Stroke-355" transform="translate(18.250000, 20.250000)"></g>
            <g id="Stroke-356" transform="translate(18.250000, 21.000000)" fill="#373751" fill-rule="nonzero">
                <path d="M0.175,32.425 C0.8,32.425 1.225,32.425 1.975,32.45 C3.25,32.45 5.8,32.475 8.925,32.5 C17.875,32.55 28.45,32.575 38.575,32.625 C39.2,32.625 39.825,32.625 40.475,32.625 C40.8,32.625 41.1,32.625 41.425,32.625 L41.9,32.625 L42.25,32.625 L42.375,32.625 C42.4,32.625 42.425,32.625 42.425,32.625 L42.425,32.575 L42.425,32.35 C42.425,31.075 42.425,29.825 42.425,28.6 C42.425,26.15 42.425,23.775 42.45,21.5 C42.45,16.925 42.45,12.75 42.475,9.175 C42.475,5.6 42.475,2.65 42.475,0.6 C42.475,0.475 42.475,0.35 42.475,0.225 C42.475,0.2 42.45,0.2 42.45,0.2 L42.4,0.2 L42.3,0.2 C42.25,0.2 42.175,0.2 42.125,0.2 C41.975,0.2 41.85,0.2 41.7,0.2 C41.475,0.2 41.25,0.2 41.075,0.2 C40.675,0.2 40.35,0.2 40.075,0.2 C39.525,0.2 39.25,0.2 39.25,0.2 C39.25,0.2 20.875,0.2 0.65,0.275 L0.4,0.275 L0.15,0.275 L0.1,0.275 C0.075,0.275 0.075,0.275 0.075,0.3 L0.075,0.425 L0.075,1 L0.075,1.95 C0.075,2.575 0.075,3.225 0.075,3.85 C0.075,5.125 0.075,6.4 0.1,7.675 C0.1,10.225 0.125,12.775 0.125,15.3 C0.15,20.275 0.175,25.1 0.225,29.55 C0.225,30.05 0.225,30.45 0.225,30.65 C0.15,31.375 0.15,31.8 0.175,32.425 C0.175,31.8 0.175,31.375 0.2,30.625 C0.2,30.425 0.2,30.025 0.2,29.525 C0.225,25.1 0.25,20.25 0.3,15.275 C0.3,12.75 0.325,10.225 0.325,7.65 C0.325,6.375 0.325,5.1 0.35,3.825 C0.35,3.2 0.35,2.55 0.35,1.925 L0.35,0.975 L0.35,0.6 L0.35,0.6 L0.575,0.6 C20.8,0.675 39.175,0.675 39.175,0.675 C39.175,0.675 40.175,0.675 41.925,0.675 C41.925,2.7 41.925,5.625 41.925,9.15 C41.925,12.7 41.925,16.9 41.95,21.475 C41.95,23.75 41.95,26.125 41.975,28.575 C41.975,29.775 41.975,31 41.975,32.225 C40.85,32.225 39.7,32.225 38.575,32.225 C28.475,32.275 17.9,32.325 8.925,32.35 C5.8,32.375 3.25,32.4 1.975,32.4 C1.225,32.4 0.8,32.425 0.175,32.425 Z" id="Path"></path>
            </g>
            <g id="Group-18" transform="translate(31.750000, 0.000000)">
                <g id="Oval">
                    <path d="M13.25,39.5 C21.925,28.175 26.25,19.5 26.25,13.5 C26.25,6.325 20.425,0.5 13.25,0.5 C6.075,0.5 0.25,6.325 0.25,13.5 C0.25,19.5 4.575,28.175 13.25,39.5 Z" id="Path" fill="#DE6341"></path>
                    <path d="M13.25,39.5 C13.625,39 13.9,38.675 14.35,38.075 C14.4,38 14.5,37.875 14.625,37.725 C14.675,37.65 14.75,37.575 14.825,37.475 C15.2,36.975 15.575,36.45 15.975,35.925 C16.4,35.35 16.8,34.775 17.25,34.15 C18.95,31.725 20.75,29.025 22.35,26.1 C23.15,24.625 23.9,23.125 24.55,21.55 C25.2,19.975 25.75,18.375 26.1,16.7 C26.175,16.275 26.275,15.875 26.325,15.45 C26.375,15.025 26.45,14.625 26.45,14.2 C26.45,14 26.475,13.775 26.475,13.575 C26.475,13.375 26.45,13.15 26.45,12.95 C26.425,12.525 26.425,12.125 26.35,11.725 C26.15,10.1 25.625,8.55 24.9,7.2 C24.175,5.85 23.225,4.675 22.2,3.75 C21.7,3.25 21.15,2.875 20.625,2.5 C20.075,2.175 19.55,1.825 19,1.575 C18.875,1.5 18.725,1.45 18.6,1.375 L18.4,1.275 L18.2,1.2 C17.925,1.1 17.675,1 17.425,0.9 C17.175,0.8 16.9,0.75 16.675,0.675 C16.425,0.6 16.175,0.55 15.95,0.5 C15.475,0.425 15.025,0.35 14.625,0.3 C14.2,0.275 13.825,0.25 13.475,0.25 C13.3,0.225 13.15,0.25 13,0.25 C12.85,0.25 12.7,0.275 12.575,0.275 C12.3,0.3 12.075,0.3 11.9,0.325 C11.55,0.375 11.35,0.4 11.35,0.4 C11.35,0.4 11.1,0.45 10.75,0.5 C10.575,0.525 10.35,0.6 10.1,0.65 C9.85,0.725 9.55,0.775 9.225,0.9 C8.9,1.025 8.55,1.15 8.15,1.3 C7.775,1.475 7.375,1.675 6.925,1.875 C6.1,2.375 5.15,2.95 4.3,3.775 C4.2,3.875 4.075,3.975 3.975,4.075 C3.85,4.175 3.775,4.3 3.65,4.425 C3.45,4.65 3.225,4.9 3,5.15 C2.8,5.4 2.6,5.675 2.4,5.95 C2.3,6.075 2.2,6.225 2.125,6.375 C2.025,6.525 1.95,6.675 1.85,6.825 C1.15,8.025 0.6,9.4 0.275,10.925 C-0.025,12.425 -0.05,14.05 0.2,15.675 C0.45,17.3 0.925,18.9 1.5,20.475 C2.675,23.625 4.35,26.65 6.1,29.475 C6.525,30.175 7,30.875 7.425,31.55 C7.875,32.225 8.35,32.9 8.775,33.55 C9.225,34.2 9.7,34.85 10.15,35.475 C10.6,36.075 11.025,36.65 11.45,37.225 C11.75,37.625 12,37.95 12.125,38.1 C12.6,38.675 12.875,39 13.25,39.5 C12.875,39 12.625,38.65 12.175,38.05 C12.05,37.875 11.8,37.55 11.525,37.15 C11.125,36.575 10.7,35.975 10.275,35.375 C9.85,34.75 9.4,34.1 8.95,33.425 C8.525,32.75 8.075,32.075 7.625,31.4 C7.2,30.7 6.75,30 6.325,29.3 C4.625,26.45 3,23.425 1.875,20.3 C1.3,18.725 0.85,17.15 0.625,15.575 C0.4,14 0.425,12.425 0.725,10.975 C1.025,9.525 1.575,8.2 2.25,7.025 C2.325,6.875 2.425,6.75 2.5,6.6 C2.575,6.45 2.675,6.325 2.775,6.2 C2.975,5.95 3.15,5.675 3.35,5.425 C3.55,5.175 3.775,4.975 3.975,4.75 C4.075,4.65 4.175,4.525 4.275,4.425 C4.375,4.325 4.5,4.225 4.6,4.125 C5.425,3.325 6.35,2.775 7.15,2.3 C7.575,2.1 7.95,1.9 8.325,1.75 C8.7,1.625 9.05,1.475 9.35,1.375 C9.675,1.275 9.95,1.225 10.2,1.15 C10.45,1.1 10.65,1.025 10.825,1 C11.175,0.95 11.35,0.925 11.35,0.925 C11.35,0.925 11.525,0.9 11.875,0.85 C12.05,0.825 12.275,0.825 12.525,0.825 C12.65,0.825 12.8,0.8 12.95,0.8 C13.1,0.8 13.25,0.775 13.425,0.8 C13.75,0.825 14.125,0.825 14.525,0.85 C14.925,0.9 15.35,0.975 15.8,1.05 C16.025,1.1 16.25,1.175 16.5,1.225 C16.75,1.25 17,1.3 17.25,1.4 C17.5,1.5 17.75,1.575 18,1.675 L18.2,1.75 L18.4,1.85 C18.525,1.9 18.65,1.975 18.775,2.025 C19.3,2.25 19.8,2.6 20.35,2.9 C20.85,3.275 21.4,3.65 21.875,4.125 C22.85,5.025 23.775,6.15 24.5,7.45 C25.2,8.75 25.7,10.25 25.925,11.825 C26,12.225 26,12.625 26.025,13.025 C26.025,13.225 26.05,13.425 26.05,13.625 C26.05,13.825 26.025,14.025 26.025,14.225 C26.025,14.625 25.95,15.025 25.9,15.45 C25.875,15.85 25.775,16.25 25.7,16.675 C25.375,18.3 24.825,19.9 24.225,21.45 C23.6,23 22.85,24.525 22.075,26 C20.525,28.925 18.775,31.65 17.125,34.1 C16.7,34.7 16.3,35.325 15.9,35.875 C15.525,36.425 15.15,36.95 14.775,37.45 C14.7,37.55 14.65,37.625 14.6,37.7 C14.5,37.85 14.4,37.975 14.35,38.05 C13.875,38.65 13.625,39 13.25,39.5 Z" id="Path" fill="#373751" fill-rule="nonzero"></path>
                </g>
                <g id="Group" transform="translate(8.000000, 8.500000)">
                    <circle id="Oval" fill="#FFFFFE" cx="5.25" cy="5" r="5"></circle>
                    <path d="M5.25,0 C5.4,0 5.55,0.025 5.7,0.025 C5.85,0.025 5.975,0.075 6.1,0.075 C6.25,0.1 6.375,0.125 6.525,0.175 C6.6,0.2 6.675,0.225 6.75,0.25 C6.825,0.275 6.9,0.3 7,0.35 C7.05,0.375 7.1,0.4 7.175,0.425 C7.25,0.45 7.325,0.5 7.4,0.525 C7.475,0.575 7.575,0.6 7.675,0.675 C7.75,0.725 7.825,0.775 7.9,0.8 C7.975,0.85 8.05,0.9 8.125,0.95 C8.275,1.075 8.45,1.175 8.575,1.325 C8.875,1.6 9.15,1.925 9.375,2.3 C9.6,2.675 9.775,3.075 9.925,3.5 C10.175,4.375 10.2,5.325 9.95,6.175 C9.725,7.05 9.225,7.8 8.675,8.35 C8.1,8.9 7.45,9.275 6.875,9.475 C6.8,9.5 6.725,9.525 6.65,9.55 C6.575,9.575 6.5,9.575 6.45,9.6 C6.325,9.625 6.175,9.675 6.075,9.675 C5.95,9.7 5.85,9.725 5.725,9.725 C5.625,9.725 5.525,9.725 5.425,9.75 C5.25,9.775 5.1,9.75 5.025,9.75 C4.925,9.75 4.875,9.75 4.875,9.75 C4.875,9.75 4.825,9.75 4.725,9.75 C4.625,9.725 4.5,9.725 4.325,9.7 C3.975,9.625 3.475,9.5 2.95,9.2 C2.4,8.9 1.825,8.45 1.35,7.8 C1.225,7.65 1.125,7.475 1.025,7.3 C0.925,7.125 0.825,6.925 0.75,6.725 C0.575,6.325 0.475,5.9 0.425,5.45 C0.375,5 0.4,4.55 0.45,4.1 C0.55,3.65 0.65,3.2 0.875,2.8 C1.075,2.4 1.325,2.025 1.6,1.7 C1.725,1.525 1.9,1.4 2.05,1.25 C2.125,1.175 2.225,1.125 2.3,1.05 L2.425,0.95 L2.475,0.9 L2.525,0.875 C2.725,0.75 2.925,0.625 3.1,0.55 C3.175,0.5 3.25,0.475 3.325,0.45 C3.4,0.425 3.45,0.4 3.5,0.375 C3.6,0.35 3.675,0.3 3.75,0.275 C3.825,0.25 3.9,0.225 3.975,0.2 C4.125,0.15 4.25,0.125 4.4,0.1 C4.55,0.075 4.675,0.05 4.8,0.05 C4.95,0.025 5.1,0 5.25,0 C5.1,0 4.95,0.025 4.8,0.025 C4.65,0.025 4.525,0.05 4.4,0.075 C4.25,0.1 4.125,0.125 3.975,0.175 C3.9,0.2 3.825,0.2 3.75,0.225 C3.675,0.25 3.575,0.275 3.5,0.325 C3.45,0.35 3.4,0.375 3.325,0.4 C3.25,0.425 3.175,0.475 3.1,0.5 C2.925,0.575 2.725,0.7 2.525,0.825 L2.475,0.85 L2.4,0.9 L2.25,0.975 C2.175,1.05 2.075,1.1 2,1.175 C1.85,1.325 1.675,1.45 1.525,1.625 C1.225,1.95 0.95,2.325 0.725,2.725 C0.5,3.125 0.35,3.575 0.225,4.05 C0.125,4.525 0.1,5 0.125,5.475 C0.175,6.425 0.5,7.325 1,8.025 C1.5,8.75 2.1,9.275 2.7,9.6 C3.3,9.95 3.85,10.075 4.225,10.175 C4.425,10.2 4.575,10.225 4.675,10.25 C4.775,10.275 4.825,10.275 4.825,10.275 C4.825,10.275 4.875,10.275 4.975,10.275 C5.075,10.275 5.225,10.3 5.425,10.275 C5.525,10.275 5.625,10.275 5.75,10.25 C5.875,10.225 6,10.225 6.125,10.2 C6.25,10.175 6.4,10.15 6.55,10.1 C6.625,10.075 6.7,10.05 6.775,10.05 C6.85,10.025 6.925,10 7,9.975 C7.625,9.75 8.35,9.325 8.95,8.7 C9.55,8.075 10.025,7.225 10.225,6.3 C10.45,5.375 10.375,4.375 10.075,3.5 C9.925,3.075 9.7,2.65 9.45,2.275 C9.2,1.925 8.925,1.575 8.6,1.325 C8.45,1.175 8.275,1.075 8.125,0.95 C8.05,0.9 7.975,0.85 7.875,0.8 C7.8,0.75 7.725,0.725 7.65,0.675 C7.55,0.625 7.45,0.575 7.375,0.55 C7.3,0.5 7.2,0.475 7.15,0.45 C7.075,0.425 7.025,0.4 6.975,0.375 C6.875,0.35 6.8,0.325 6.725,0.275 C6.65,0.25 6.575,0.225 6.5,0.225 C6.35,0.175 6.2,0.15 6.075,0.125 C5.925,0.1 5.8,0.075 5.675,0.075 C5.55,0.025 5.4,0 5.25,0 Z" id="Path" fill="#373751" fill-rule="nonzero"></path>
                </g>
            </g>
        </g>
    </g>
</svg>