<?xml version="1.0" encoding="UTF-8"?>
<svg width="64px" height="64px" viewBox="0 0 64 64" version="1.1" xmlns="http://www.w3.org/2000/svg" xmlns:xlink="http://www.w3.org/1999/xlink">
    <title>Icon/Block/3</title>
    <g id="Icon/Block/3" stroke="none" stroke-width="1" fill="none" fill-rule="evenodd">
        <g id="3" transform="translate(1.000000, 1.000000)">
            <g id="Fill-350" transform="translate(1.750000, 1.750000)" fill="#EBEBEB" fill-rule="nonzero">
                <path d="M58.25,29.25 C58.25,45.275 45.275,58.25 29.25,58.25 C13.225,58.25 0.25,45.275 0.25,29.25 C0.25,13.225 13.225,0.25 29.25,0.25 C45.275,0.25 58.25,13.225 58.25,29.25" id="Path"></path>
            </g>
            <g id="Group">
                <g id="Path" transform="translate(10.750000, 32.750000)">
                    <circle id="Oval" fill="#FFFFFE" cx="9.25" cy="9.25" r="9"></circle>
                    <path d="M9.25,18.25 C8.925,18.225 8.675,18.225 8.4,18.2 C8.125,18.175 7.825,18.125 7.475,18.05 C7.375,18.025 7.225,18 7.05,17.95 C6.95,17.925 6.85,17.9 6.75,17.875 L6.675,17.85 C6.625,17.85 6.575,17.825 6.55,17.8 C6.475,17.775 6.375,17.725 6.3,17.7 C6.125,17.625 5.95,17.575 5.775,17.5 C5.6,17.425 5.425,17.325 5.25,17.25 C5.15,17.2 5.075,17.175 4.975,17.125 C4.9,17.075 4.8,17.025 4.725,16.975 C3.35,16.175 2.075,14.875 1.3,13.25 C0.9,12.45 0.65,11.575 0.5,10.675 C0.475,10.45 0.425,10.225 0.425,10 L0.4,9.325 C0.4,9.1 0.425,8.875 0.425,8.65 L0.45,8.325 L0.5,8 C0.625,7.125 0.9,6.275 1.275,5.5 C1.625,4.725 2.125,4.025 2.65,3.45 C2.775,3.3 2.925,3.15 3.05,3.025 C3.2,2.9 3.35,2.775 3.475,2.65 C3.55,2.6 3.625,2.525 3.7,2.475 C3.775,2.425 3.85,2.375 3.925,2.3 C4.075,2.2 4.225,2.075 4.375,1.975 C4.975,1.6 5.575,1.275 6.175,1.075 C7.35,0.65 8.375,0.525 9.075,0.525 C9.25,0.5 9.4,0.525 9.55,0.525 C9.675,0.525 9.8,0.55 9.9,0.55 C10,0.55 10.075,0.55 10.125,0.55 C10.175,0.55 10.2,0.55 10.2,0.55 C10.2,0.55 10.3,0.575 10.475,0.6 C10.575,0.625 10.675,0.625 10.825,0.65 C10.9,0.65 10.975,0.675 11.05,0.675 C11.125,0.7 11.2,0.725 11.3,0.725 C11.475,0.775 11.675,0.825 11.875,0.875 C12.075,0.95 12.3,1.025 12.525,1.1 C13,1.275 13.5,1.525 14.025,1.875 C15.075,2.525 16.175,3.575 16.975,4.975 C17.075,5.15 17.15,5.325 17.25,5.525 L17.4,5.8 C17.45,5.9 17.475,6 17.525,6.1 C17.6,6.3 17.675,6.5 17.75,6.7 C17.8,6.9 17.85,7.1 17.925,7.325 C18,7.525 18,7.75 18.05,7.95 C18.075,8.175 18.125,8.375 18.125,8.6 C18.15,8.825 18.15,9.05 18.175,9.25 C18.175,9.475 18.15,9.7 18.15,9.925 C18.15,10.15 18.125,10.375 18.075,10.6 C18.05,10.825 18.025,11.05 17.975,11.275 L17.825,11.925 L17.6,12.575 C17.275,13.425 16.825,14.225 16.275,14.925 C15.7,15.625 15.05,16.225 14.35,16.725 C13.975,16.95 13.625,17.2 13.25,17.35 C13.05,17.425 12.875,17.55 12.7,17.6 C12.525,17.675 12.35,17.725 12.175,17.8 C12.125,17.825 12.05,17.85 12,17.875 C11.95,17.9 11.9,17.9 11.825,17.925 C11.725,17.95 11.625,17.975 11.525,18 C11.35,18.05 11.2,18.1 11.1,18.1 C10.725,18.15 10.45,18.2 10.175,18.25 C9.825,18.225 9.575,18.225 9.25,18.25 C9.575,18.225 9.825,18.225 10.1,18.2 C10.375,18.175 10.675,18.125 11.025,18.075 C11.125,18.05 11.275,18.025 11.45,17.975 C11.55,17.95 11.65,17.925 11.75,17.9 C11.8,17.875 11.85,17.875 11.925,17.85 C11.975,17.825 12.025,17.8 12.1,17.8 C12.275,17.725 12.45,17.675 12.625,17.6 C12.825,17.525 13,17.425 13.2,17.35 C13.575,17.175 13.95,16.95 14.3,16.725 C15.025,16.225 15.675,15.625 16.275,14.95 C16.85,14.25 17.325,13.45 17.675,12.6 L17.925,11.95 L18.1,11.275 C18.175,11.05 18.2,10.825 18.225,10.6 C18.275,10.375 18.3,10.15 18.3,9.925 C18.325,9.7 18.325,9.475 18.35,9.25 C18.35,9.025 18.325,8.8 18.325,8.575 C18.325,8.35 18.275,8.125 18.25,7.9 C18.225,7.675 18.2,7.45 18.15,7.25 C18.1,7.025 18.05,6.825 18,6.6 C17.925,6.4 17.85,6.175 17.8,5.975 C17.775,5.875 17.725,5.775 17.7,5.675 C17.65,5.575 17.6,5.475 17.575,5.375 C17.475,5.175 17.4,4.975 17.3,4.8 C16.5,3.325 15.375,2.2 14.275,1.5 C13.725,1.15 13.2,0.875 12.7,0.675 C12.45,0.575 12.225,0.5 12,0.425 C11.775,0.375 11.575,0.325 11.4,0.275 C11.3,0.25 11.225,0.225 11.15,0.2 C11.075,0.175 11,0.175 10.925,0.15 C10.775,0.125 10.65,0.1 10.55,0.1 C10.35,0.075 10.25,0.05 10.25,0.05 C10.25,0.05 10.225,0.05 10.175,0.05 C10.125,0.05 10.05,0.05 9.95,0.05 C9.85,0.05 9.725,0.05 9.575,0.025 C9.425,0.025 9.275,3.55288715e-14 9.075,0.025 C8.325,0.025 7.25,0.15 6,0.625 C5.375,0.85 4.75,1.2 4.125,1.6 C3.975,1.7 3.825,1.825 3.675,1.95 C3.6,2 3.525,2.075 3.45,2.125 C3.375,2.175 3.3,2.25 3.225,2.325 C3.075,2.45 2.925,2.6 2.775,2.75 C2.65,2.9 2.5,3.05 2.35,3.2 C1.8,3.825 1.3,4.55 0.95,5.375 C0.575,6.175 0.325,7.075 0.225,7.975 L0.175,8.325 L0.15,8.675 C0.15,8.9 0.125,9.125 0.125,9.375 L0.175,10.075 C0.175,10.3 0.25,10.525 0.275,10.75 C0.45,11.65 0.725,12.55 1.15,13.35 C1.975,14.975 3.275,16.25 4.675,17.05 C4.75,17.1 4.85,17.15 4.925,17.2 C5.025,17.25 5.1,17.275 5.2,17.325 C5.375,17.4 5.55,17.5 5.725,17.575 C5.9,17.65 6.075,17.7 6.25,17.775 C6.325,17.8 6.425,17.85 6.5,17.875 C6.55,17.9 6.575,17.9 6.625,17.925 L6.7,17.95 C6.8,17.975 6.9,18 7,18.025 C7.175,18.075 7.325,18.1 7.425,18.125 C7.8,18.175 8.075,18.225 8.35,18.25 C8.675,18.225 8.925,18.225 9.25,18.25 Z" fill="#373751" fill-rule="nonzero"></path>
                </g>
                <g transform="translate(0.000000, 21.750000)" id="Path">
                    <path d="M37,20.25 C37,18.675 38.225,17.4 39.75,17.275 C39.25,13.975 37.975,10.95 36.075,8.4 C35.525,8.925 34.8,9.25 34,9.25 C32.35,9.25 31,7.9 31,6.25 C31,5.45 31.325,4.7 31.85,4.175 C29.3,2.275 26.275,1 22.975,0.5 C22.85,2.05 21.575,3.25 20,3.25 C18.425,3.25 17.15,2.025 17.025,0.5 C13.725,1 10.7,2.275 8.15,4.175 C8.675,4.725 9,5.45 9,6.25 C9,7.9 7.65,9.25 6,9.25 C5.2,9.25 4.45,8.925 3.925,8.4 C2.025,10.95 0.725,13.975 0.25,17.275 C1.8,17.4 3,18.675 3,20.25 C3,21.825 1.775,23.1 0.25,23.225 C0.75,26.525 2.025,29.55 3.925,32.1 C4.475,31.575 5.2,31.25 6,31.25 C7.65,31.25 9,32.6 9,34.25 C9,35.05 8.675,35.8 8.15,36.325 C10.7,38.225 13.725,39.5 17.025,40 C17.15,38.45 18.425,37.25 20,37.25 C21.575,37.25 22.85,38.475 22.975,40 C26.275,39.5 29.3,38.225 31.85,36.325 C31.325,35.775 31,35.05 31,34.25 C31,32.6 32.35,31.25 34,31.25 C34.8,31.25 35.55,31.575 36.075,32.1 C37.975,29.55 39.25,26.525 39.75,23.225 C38.225,23.1 37,21.825 37,20.25 L37,20.25 Z" fill="#FFFFFE"></path>
                    <path d="M37,20.25 C37.025,19.625 37.125,19.175 37.525,18.55 C37.575,18.475 37.675,18.35 37.8,18.2 C37.875,18.125 37.95,18.05 38.025,17.975 L38.175,17.85 C38.275,17.775 38.375,17.7 38.5,17.625 C38.725,17.5 38.975,17.4 39.225,17.325 C39.35,17.3 39.475,17.25 39.625,17.25 L39.725,17.225 C39.75,17.225 39.75,17.225 39.775,17.225 L39.775,17.175 L39.75,16.975 C39.7,16.7 39.65,16.45 39.6,16.175 C39.4,15.1 39.075,14.05 38.675,12.975 C38.275,11.9 37.75,10.85 37.15,9.85 C36.85,9.35 36.525,8.85 36.15,8.35 C36.15,8.325 36.125,8.35 36.1,8.35 L36.075,8.375 L36.025,8.425 C36,8.45 35.975,8.475 35.95,8.5 C35.9,8.55 35.825,8.6 35.775,8.65 C35.65,8.75 35.525,8.825 35.4,8.875 C35.125,9.025 34.85,9.1 34.55,9.15 C34.25,9.2 33.95,9.2 33.65,9.15 C33.35,9.1 33.05,9.025 32.775,8.875 C32.225,8.6 31.75,8.15 31.45,7.6 C31.15,7.05 31.05,6.4 31.125,5.8 C31.175,5.5 31.275,5.2 31.4,4.9 C31.475,4.75 31.55,4.625 31.65,4.5 C31.7,4.425 31.75,4.375 31.8,4.325 C31.825,4.3 31.85,4.275 31.875,4.225 L31.925,4.175 L31.975,4.125 C32,4.1 32,4.1 31.975,4.075 L31.55,3.775 C31.425,3.675 31.275,3.6 31.15,3.5 C30.875,3.325 30.6,3.15 30.325,2.975 C29.775,2.65 29.2,2.325 28.625,2.05 C27.45,1.475 26.225,1.05 24.95,0.725 C24.625,0.65 24.325,0.575 24,0.5 C23.85,0.475 23.675,0.425 23.525,0.4 L23.275,0.35 L23.15,0.325 L23.025,0.3 L22.975,0.3 C22.95,0.3 22.95,0.3 22.95,0.325 L22.9,0.65 C22.875,0.725 22.875,0.8 22.85,0.875 C22.8,1.025 22.75,1.175 22.7,1.325 C22.575,1.6 22.4,1.875 22.2,2.1 C21.775,2.575 21.2,2.875 20.6,3 C20,3.1 19.35,3.025 18.8,2.725 C18.25,2.45 17.8,1.975 17.525,1.425 C17.4,1.15 17.3,0.85 17.25,0.55 L17.225,0.35 L17.2,0.225 C17.2,0.2 17.175,0.225 17.15,0.225 L17.1,0.225 L16.775,0.275 C16.625,0.3 16.45,0.325 16.3,0.35 C15.05,0.575 13.825,0.925 12.65,1.375 C11.475,1.825 10.375,2.375 9.35,3.025 C9.1,3.175 8.85,3.35 8.6,3.525 L8.175,3.825 C8.075,3.925 7.825,4 8.025,4.1 L8.175,4.275 L8.25,4.375 C8.6,4.8 8.8,5.35 8.85,5.875 C8.875,6.15 8.85,6.425 8.8,6.675 C8.75,6.925 8.65,7.2 8.525,7.425 C8.275,7.9 7.9,8.275 7.45,8.525 C7,8.775 6.5,8.9 5.975,8.875 C5.475,8.85 4.975,8.7 4.575,8.45 C4.525,8.425 4.475,8.375 4.425,8.35 L4.35,8.3 L4.325,8.275 L4.275,8.225 L3.975,7.975 L3.95,7.95 C3.95,7.95 3.925,7.975 3.925,7.975 L3.875,8.05 L3.75,8.2 C3.65,8.325 3.575,8.45 3.475,8.575 C3.4,8.675 3.325,8.8 3.25,8.9 C2.95,9.325 2.7,9.75 2.45,10.2 C1.95,11.075 1.55,11.925 1.225,12.8 C0.9,13.65 0.625,14.5 0.425,15.3 C0.375,15.5 0.325,15.7 0.275,15.9 C0.225,16.1 0.2,16.3 0.15,16.475 C0.1,16.725 0.075,16.975 0.025,17.225 L0.025,17.3 C0.025,17.325 5.5493804e-15,17.35 0.025,17.35 L0.15,17.375 L0.4,17.4 L0.525,17.425 L0.575,17.45 L0.7,17.475 C1.35,17.65 1.875,18.025 2.225,18.5 C2.575,18.975 2.75,19.475 2.775,19.95 C2.8,20.425 2.725,20.85 2.575,21.2 C2.425,21.55 2.25,21.8 2.075,21.975 C1.9,22.15 1.75,22.275 1.65,22.35 C1.55,22.425 1.475,22.45 1.475,22.45 C1.475,22.45 1.425,22.475 1.3,22.55 C1.175,22.6 1,22.7 0.775,22.75 C0.725,22.775 0.65,22.775 0.575,22.8 L0.525,22.8 C0.5,22.8 0.45,22.8 0.425,22.825 C0.35,22.825 0.275,22.85 0.2,22.85 C0.15,22.85 0.125,22.85 0.075,22.875 L0.025,22.875 C0.025,22.9 0.025,22.925 0.025,22.95 C0.05,23.05 0.05,23.125 0.075,23.225 C0.1,23.35 0.125,23.475 0.125,23.6 C0.2,24 0.3,24.45 0.4,24.975 C0.65,26 1.05,27.225 1.65,28.55 C1.95,29.225 2.325,29.925 2.75,30.625 C2.975,30.975 3.2,31.325 3.45,31.7 C3.525,31.8 3.6,31.925 3.675,32.025 L3.875,32.3 C3.875,32.325 3.9,32.325 3.9,32.3 L3.925,32.275 L3.975,32.225 L4.1,32.125 C4.15,32.075 4.175,32.05 4.225,32.025 C4.25,32 4.275,32 4.3,31.975 C4.35,31.95 4.375,31.9 4.425,31.875 C4.5,31.825 4.6,31.75 4.7,31.7 C5.425,31.3 6.4,31.225 7.225,31.65 C8.05,32.025 8.7,32.9 8.8,33.875 C8.85,34.35 8.775,34.875 8.575,35.325 C8.475,35.55 8.35,35.775 8.15,35.975 C8.1,36.025 8.05,36.075 8,36.125 L7.925,36.2 L7.9,36.25 C7.9,36.25 7.85,36.275 7.875,36.275 L8.225,36.525 L8.575,36.775 C9.5,37.4 10.5,37.975 11.575,38.475 C12.65,38.95 13.775,39.375 14.95,39.65 C15.55,39.8 16.15,39.925 16.75,40.025 L17.075,40.075 C17.1,40.075 17.15,40.1 17.175,40.075 L17.2,39.95 L17.225,39.75 C17.225,39.675 17.25,39.6 17.275,39.525 C17.3,39.45 17.3,39.375 17.325,39.3 C17.4,39.025 17.525,38.75 17.7,38.5 C18.025,38 18.525,37.625 19.075,37.425 C19.65,37.225 20.275,37.2 20.85,37.375 C21.425,37.55 21.95,37.925 22.325,38.4 C22.5,38.65 22.65,38.925 22.75,39.225 C22.8,39.375 22.825,39.525 22.85,39.675 L22.875,39.8 L22.9,39.925 L22.9,39.975 C22.9,40 22.9,40 22.925,40 L23.25,39.95 C25.8,39.525 28.3,38.6 30.5,37.2 C30.775,37.025 31.05,36.85 31.325,36.675 C31.45,36.575 31.6,36.475 31.725,36.4 L31.825,36.325 L31.9,36.275 C31.9,36.275 31.95,36.25 31.925,36.25 L31.875,36.2 L31.775,36.1 L31.7,36 C31.3,35.5 31.05,34.875 31.05,34.25 C31.05,33.925 31.075,33.6 31.175,33.3 C31.275,33 31.4,32.7 31.6,32.45 C31.975,31.925 32.5,31.525 33.1,31.325 C33.7,31.125 34.375,31.125 34.975,31.325 C35.275,31.425 35.55,31.575 35.8,31.75 C35.875,31.8 35.925,31.85 35.975,31.9 L36.05,31.975 L36.075,32 C36.075,32 36.1,31.975 36.1,31.975 L36.125,31.925 L36.4,31.55 C37.125,30.525 37.725,29.425 38.225,28.3 C38.725,27.175 39.1,26.025 39.4,24.875 C39.55,24.3 39.65,23.725 39.75,23.15 L39.75,23.125 C39.75,23.125 39.725,23.125 39.725,23.125 L39.675,23.125 L39.575,23.1 C39.5,23.1 39.425,23.075 39.35,23.05 C39.2,23.025 39.075,22.975 38.925,22.925 C38.8,22.875 38.65,22.825 38.525,22.75 C38.45,22.725 38.4,22.675 38.35,22.65 L38.3,22.625 C37.875,22.35 37.625,22.025 37.525,21.85 C37.125,21.325 37.025,20.875 37,20.25 C37.025,20.875 37.125,21.325 37.525,21.95 C37.625,22.125 37.9,22.45 38.3,22.725 L38.35,22.75 C38.4,22.8 38.475,22.825 38.525,22.85 C38.65,22.925 38.775,22.975 38.925,23.025 C39.05,23.075 39.2,23.125 39.35,23.15 C39.425,23.175 39.5,23.175 39.575,23.2 L39.675,23.225 L39.725,23.225 C39.725,23.225 39.75,23.225 39.75,23.225 L39.75,23.25 C39.65,23.825 39.55,24.4 39.4,24.975 C39.125,26.125 38.725,27.275 38.225,28.4 C37.725,29.525 37.1,30.6 36.4,31.625 L36.125,32 L36.1,32.05 C36.1,32.05 36.1,32.05 36.1,32.05 L36.025,31.975 C35.975,31.925 35.9,31.875 35.85,31.825 C35.6,31.625 35.3,31.475 35,31.375 C34.4,31.175 33.725,31.175 33.1,31.35 C32.475,31.55 31.925,31.95 31.55,32.475 C31.35,32.75 31.225,33.025 31.125,33.35 C31.025,33.675 31,34 31,34.325 C31.025,34.975 31.25,35.625 31.675,36.15 L31.75,36.25 L31.825,36.325 L31.825,36.325 L31.825,36.325 L31.8,36.35 L31.7,36.425 C31.575,36.525 31.45,36.625 31.3,36.7 C31.025,36.875 30.75,37.05 30.475,37.225 C28.275,38.575 25.775,39.475 23.25,39.875 L23.125,39.9 L23.1,39.9 L23.1,39.9 C23.1,39.9 23.1,39.9 23.1,39.9 L23.075,39.775 C23.05,39.6 23.025,39.45 22.95,39.3 C22.85,38.975 22.7,38.675 22.5,38.425 C22.1,37.9 21.55,37.475 20.925,37.3 C20.3,37.1 19.6,37.125 19,37.35 C18.375,37.55 17.85,37.975 17.475,38.525 C17.3,38.8 17.15,39.075 17.05,39.4 C17.025,39.475 17,39.55 17,39.625 C16.975,39.7 16.975,39.775 16.95,39.85 L16.95,39.875 L16.95,39.875 L16.95,39.875 L16.95,39.875 L16.825,39.85 C16.225,39.75 15.625,39.625 15.05,39.475 C13.9,39.175 12.775,38.75 11.75,38.275 C10.7,37.8 9.725,37.225 8.825,36.6 L8.5,36.35 C8.5,36.35 8.5,36.35 8.5,36.35 C8.675,36.15 8.85,35.9 8.975,35.625 C9.225,35.1 9.325,34.525 9.25,33.95 C9.15,32.825 8.425,31.825 7.45,31.375 C6.5,30.9 5.375,30.95 4.525,31.425 C4.425,31.475 4.325,31.55 4.225,31.625 C4.175,31.65 4.125,31.7 4.075,31.725 C4.05,31.75 4.025,31.775 4,31.775 C4,31.775 4,31.775 4,31.775 L4,31.775 L3.85,31.575 C3.6,31.225 3.375,30.875 3.175,30.525 C2.75,29.825 2.4,29.15 2.1,28.5 C1.5,27.2 1.125,26 0.875,25 C0.75,24.5 0.675,24.05 0.6,23.65 C0.6,23.575 0.575,23.5 0.575,23.45 C0.575,23.45 0.575,23.45 0.6,23.45 L0.625,23.45 L0.625,23.45 L0.675,23.425 C0.75,23.4 0.825,23.4 0.9,23.375 C1.175,23.3 1.4,23.2 1.525,23.125 C1.65,23.05 1.725,23.025 1.725,23.025 C1.725,23.025 1.8,22.975 1.925,22.9 C2.05,22.8 2.225,22.675 2.425,22.45 C2.625,22.225 2.85,21.925 3.025,21.525 C3.2,21.125 3.3,20.625 3.275,20.075 C3.25,19.525 3.05,18.9 2.625,18.35 C2.225,17.8 1.6,17.35 0.825,17.15 L0.675,17.125 L0.6,17.1 L0.575,17.1 L0.55,17.1 C0.575,16.975 0.6,16.85 0.6,16.725 C0.625,16.525 0.675,16.35 0.7,16.15 C0.75,15.95 0.8,15.75 0.825,15.575 C1.025,14.775 1.275,13.975 1.6,13.125 C1.925,12.3 2.325,11.45 2.8,10.6 C3.05,10.175 3.3,9.75 3.575,9.325 C3.65,9.225 3.725,9.125 3.775,9 L3.95,8.75 C3.95,8.75 3.95,8.75 3.95,8.75 L3.975,8.775 L4.025,8.8 L4.1,8.875 C4.15,8.925 4.225,8.95 4.275,9 C4.75,9.3 5.325,9.475 5.9,9.5 C6.475,9.525 7.075,9.375 7.6,9.075 C8.125,8.775 8.55,8.325 8.85,7.8 C9,7.525 9.1,7.25 9.15,6.95 C9.2,6.65 9.225,6.35 9.2,6.025 C9.15,5.4 8.9,4.8 8.5,4.3 L8.45,4.225 L8.45,4.225 L8.45,4.225 L8.75,4 C9,3.825 9.25,3.675 9.5,3.5 C10.5,2.85 11.6,2.3 12.725,1.85 C13.875,1.4 15.075,1.025 16.3,0.8 C16.45,0.775 16.6,0.75 16.775,0.725 L16.9,0.7 C16.925,0.7 16.925,0.7 16.925,0.7 L16.925,0.7 L16.925,0.7 C16.925,0.7 16.925,0.675 16.925,0.725 C16.975,1.05 17.075,1.375 17.225,1.675 C17.525,2.275 18.025,2.775 18.625,3.075 C19.225,3.375 19.925,3.475 20.575,3.35 C21.225,3.225 21.85,2.875 22.3,2.375 C22.525,2.125 22.7,1.825 22.825,1.525 C22.9,1.375 22.95,1.2 22.975,1.05 C23,0.975 23.025,0.875 23.025,0.8 C23.025,0.725 23.05,0.6 23.05,0.65 L23.4,0.7 C23.55,0.725 23.725,0.75 23.875,0.775 C24.2,0.825 24.5,0.9 24.825,0.975 C26.075,1.275 27.3,1.7 28.475,2.25 C29.05,2.525 29.625,2.825 30.175,3.15 C30.45,3.325 30.725,3.475 31,3.65 C31.125,3.75 31.275,3.825 31.4,3.925 L31.75,4.175 L31.75,4.175 L31.725,4.2 C31.7,4.225 31.675,4.25 31.65,4.3 C31.6,4.35 31.55,4.425 31.5,4.5 C31.4,4.625 31.325,4.775 31.25,4.925 C31.1,5.225 31,5.525 30.975,5.85 C30.9,6.5 31.025,7.15 31.325,7.7 C31.625,8.25 32.1,8.725 32.675,8.975 C32.95,9.125 33.25,9.2 33.575,9.25 C33.875,9.3 34.2,9.3 34.5,9.25 C34.8,9.2 35.1,9.1 35.375,8.95 C35.5,8.875 35.65,8.8 35.775,8.7 C35.825,8.65 35.9,8.6 35.95,8.55 C35.975,8.525 36,8.5 36.025,8.475 L36.075,8.425 L36.1,8.4 L36.1,8.4 C36.45,8.875 36.8,9.375 37.1,9.875 C37.4,10.375 37.7,10.9 37.95,11.425 C38.2,11.95 38.45,12.475 38.65,13 C39.05,14.075 39.375,15.125 39.6,16.2 C39.65,16.475 39.7,16.725 39.75,17 L39.775,17.2 L39.775,17.25 L39.725,17.25 L39.625,17.275 C39.5,17.275 39.375,17.325 39.225,17.35 C38.975,17.425 38.725,17.525 38.5,17.65 C38.375,17.725 38.275,17.8 38.175,17.875 L38.025,18 C37.95,18.075 37.875,18.15 37.8,18.225 C37.675,18.375 37.575,18.475 37.525,18.575 C37.125,19.175 37.025,19.625 37,20.25 Z" fill="#373751" fill-rule="nonzero"></path>
                </g>
                <g id="Fill-235" transform="translate(10.750000, 32.750000)">
                    <path d="M18.25,9.25 C18.25,14.225 14.225,18.25 9.25,18.25 C4.275,18.25 0.25,14.225 0.25,9.25 C0.25,4.275 4.275,0.25 9.25,0.25 C14.225,0.25 18.25,4.275 18.25,9.25" id="Path" fill="#DE6341"></path>
                    <path d="M18.25,9.25 C18.225,9.575 18.225,9.825 18.2,10.1 C18.175,10.375 18.1,10.65 18.05,11.025 C18.025,11.125 17.975,11.275 17.925,11.45 C17.9,11.55 17.875,11.65 17.85,11.75 L17.825,11.825 C17.8,11.875 17.8,11.925 17.775,11.95 C17.75,12.025 17.7,12.125 17.675,12.2 C17.6,12.375 17.55,12.55 17.475,12.725 C17.4,12.9 17.3,13.075 17.225,13.25 C17.175,13.325 17.125,13.425 17.1,13.5 C17.05,13.575 17,13.675 16.95,13.75 C16.125,15.1 14.85,16.35 13.25,17.125 C12.475,17.525 11.6,17.775 10.7,17.925 C10.475,17.95 10.25,18 10.025,18 L9.35,18.025 C9.125,18.025 8.9,18 8.675,18 L8.35,17.975 L8.025,17.925 C7.15,17.8 6.3,17.525 5.525,17.175 C4.75,16.825 4.075,16.325 3.475,15.825 C3.325,15.7 3.175,15.55 3.05,15.425 C2.925,15.275 2.8,15.125 2.675,15 C2.625,14.925 2.55,14.85 2.5,14.775 C2.45,14.7 2.4,14.625 2.325,14.55 C2.225,14.4 2.1,14.25 2,14.1 C1.625,13.5 1.3,12.9 1.1,12.3 C0.675,11.125 0.55,10.1 0.55,9.4 C0.525,9.225 0.55,9.075 0.55,8.925 C0.55,8.8 0.575,8.675 0.575,8.575 C0.575,8.475 0.575,8.4 0.575,8.35 C0.575,8.3 0.575,8.275 0.575,8.275 C0.575,8.275 0.6,8.175 0.625,8 C0.65,7.9 0.65,7.8 0.675,7.65 C0.675,7.575 0.7,7.5 0.7,7.425 C0.725,7.35 0.75,7.275 0.775,7.175 C0.825,7 0.875,6.8 0.925,6.6 C1,6.4 1.075,6.175 1.175,5.95 C1.35,5.5 1.6,4.975 1.95,4.45 C2.6,3.4 3.675,2.325 5.05,1.525 C5.225,1.425 5.4,1.35 5.6,1.25 L5.875,1.125 C5.975,1.075 6.075,1.05 6.175,1.025 C6.375,0.95 6.575,0.875 6.775,0.8 C6.975,0.75 7.175,0.7 7.4,0.65 C7.6,0.575 7.825,0.575 8.025,0.525 C8.25,0.5 8.45,0.45 8.675,0.45 C8.9,0.425 9.1,0.425 9.325,0.4 C9.55,0.4 9.775,0.425 9.975,0.425 C10.2,0.425 10.425,0.45 10.65,0.5 C10.875,0.525 11.1,0.55 11.3,0.625 L11.95,0.775 L12.575,1 C13.4,1.325 14.2,1.775 14.9,2.325 C15.6,2.875 16.2,3.525 16.7,4.225 C16.925,4.6 17.175,4.925 17.35,5.3 C17.45,5.475 17.55,5.675 17.625,5.85 C17.7,6.025 17.75,6.2 17.825,6.375 C17.85,6.425 17.875,6.5 17.9,6.55 C17.925,6.6 17.925,6.65 17.95,6.725 C17.975,6.825 18,6.925 18.025,7.025 C18.075,7.2 18.125,7.35 18.15,7.45 C18.2,7.825 18.275,8.1 18.3,8.375 C18.225,8.675 18.225,8.925 18.25,9.25 C18.225,8.95 18.225,8.675 18.225,8.4 C18.2,8.125 18.15,7.825 18.1,7.45 C18.075,7.35 18.05,7.2 18,7.025 C17.975,6.925 17.95,6.825 17.925,6.725 C17.9,6.675 17.9,6.625 17.875,6.55 C17.85,6.5 17.825,6.425 17.825,6.375 C17.775,6.2 17.7,6.025 17.65,5.85 C17.575,5.65 17.475,5.475 17.4,5.275 C17.25,4.875 17,4.525 16.775,4.15 C16.275,3.425 15.675,2.75 15,2.15 C14.3,1.575 13.475,1.1 12.625,0.725 L11.975,0.475 L11.3,0.3 C11.075,0.225 10.85,0.2 10.625,0.175 C10.4,0.125 10.175,0.1 9.925,0.1 C9.7,0.075 9.475,0.075 9.225,0.05 C9,0.05 8.775,0.075 8.55,0.075 C8.325,0.075 8.1,0.125 7.875,0.15 C7.65,0.175 7.425,0.2 7.2,0.275 C6.975,0.325 6.775,0.375 6.55,0.425 C6.35,0.5 6.125,0.575 5.925,0.65 C5.825,0.7 5.725,0.725 5.625,0.775 C5.525,0.825 5.425,0.875 5.325,0.925 C5.125,1.025 4.925,1.1 4.75,1.2 C3.275,2.025 2.175,3.15 1.475,4.25 C1.125,4.8 0.85,5.35 0.65,5.825 C0.55,6.075 0.475,6.3 0.4,6.525 C0.35,6.75 0.3,6.95 0.25,7.125 C0.225,7.225 0.2,7.3 0.175,7.375 C0.15,7.45 0.15,7.525 0.15,7.6 C0.125,7.75 0.1,7.875 0.1,7.975 C0.075,8.175 0.05,8.275 0.05,8.275 C0.05,8.275 0.05,8.3 0.05,8.35 C0.05,8.4 0.05,8.475 0.05,8.575 C0.05,8.675 0.05,8.8 0.025,8.95 C0.025,9.1 -1.76941795e-15,9.25 0.025,9.45 C0.025,10.2 0.15,11.275 0.625,12.525 C0.85,13.15 1.175,13.775 1.6,14.425 C1.7,14.575 1.825,14.725 1.95,14.9 C2,14.975 2.075,15.05 2.125,15.125 C2.175,15.2 2.25,15.275 2.325,15.35 C2.45,15.5 2.6,15.65 2.725,15.8 C2.875,15.95 3.025,16.075 3.175,16.225 C3.8,16.775 4.525,17.275 5.35,17.625 C6.15,18 7.05,18.275 7.975,18.375 L8.325,18.425 L8.675,18.45 C8.9,18.45 9.15,18.475 9.375,18.475 L10.075,18.425 C10.3,18.425 10.525,18.35 10.775,18.325 C11.7,18.175 12.6,17.875 13.4,17.45 C15.025,16.6 16.325,15.3 17.1,13.875 C17.15,13.8 17.2,13.7 17.25,13.625 C17.3,13.525 17.325,13.45 17.375,13.35 C17.45,13.175 17.55,13 17.625,12.825 C17.7,12.65 17.75,12.475 17.8,12.3 C17.825,12.2 17.85,12.125 17.9,12.05 C17.925,12 17.925,11.95 17.925,11.925 L17.95,11.85 C17.975,11.75 18,11.65 18.025,11.55 C18.075,11.375 18.1,11.225 18.125,11.125 C18.175,10.75 18.225,10.45 18.25,10.175 C18.225,9.825 18.225,9.575 18.25,9.25 Z" id="Path" fill="#373751" fill-rule="nonzero"></path>
                </g>
                <g id="Fill-236" transform="translate(15.750000, 37.750000)">
                    <path d="M8.25,4.25 C8.25,6.45 6.45,8.25 4.25,8.25 C2.05,8.25 0.25,6.45 0.25,4.25 C0.25,2.05 2.05,0.25 4.25,0.25 C6.45,0.25 8.25,2.05 8.25,4.25" id="Path" fill="#FFFFFE"></path>
                    <path d="M8.25,4.25 C8.25,4.4 8.225,4.55 8.225,4.7 C8.2,4.825 8.175,4.975 8.15,5.1 C8.075,5.375 7.975,5.65 7.8,5.975 C7.775,6.025 7.75,6.075 7.725,6.15 C7.675,6.2 7.65,6.275 7.6,6.35 C7.55,6.425 7.5,6.5 7.425,6.6 C7.375,6.65 7.35,6.7 7.3,6.75 C7.25,6.8 7.2,6.85 7.15,6.9 C7.05,7 6.95,7.1 6.825,7.2 C6.375,7.6 5.775,7.875 5.125,8.025 C4.475,8.15 3.775,8.1 3.15,7.9 C2.525,7.675 1.975,7.325 1.575,6.9 C1.175,6.475 0.9,5.975 0.75,5.55 C0.7,5.45 0.675,5.325 0.65,5.225 C0.625,5.125 0.6,5.025 0.6,4.925 C0.575,4.825 0.575,4.75 0.55,4.675 C0.55,4.6 0.55,4.525 0.55,4.45 C0.55,4.325 0.55,4.225 0.55,4.15 C0.55,4.075 0.55,4.05 0.55,4.05 C0.55,4.05 0.55,4.025 0.55,3.95 C0.55,3.875 0.575,3.775 0.6,3.65 C0.6,3.525 0.675,3.375 0.7,3.175 C0.775,3 0.825,2.8 0.925,2.6 C1.125,2.2 1.45,1.725 1.925,1.35 C2.375,0.975 2.975,0.675 3.625,0.55 C4.275,0.425 4.975,0.475 5.6,0.7 C6.225,0.9 6.8,1.3 7.175,1.725 C7.5,2.075 7.725,2.425 7.8,2.6 C7.975,2.925 8.075,3.2 8.15,3.475 C8.175,3.6 8.2,3.75 8.225,3.875 C8.225,3.95 8.25,4.1 8.25,4.25 C8.25,4.1 8.25,3.95 8.225,3.8 C8.2,3.65 8.2,3.525 8.175,3.375 C8.125,3.1 8.075,2.8 7.9,2.45 C7.825,2.25 7.625,1.875 7.3,1.5 C7.25,1.45 7.2,1.375 7.15,1.325 C7.1,1.275 7.025,1.2 6.975,1.15 C6.85,1.025 6.725,0.925 6.575,0.825 C6.3,0.625 6,0.45 5.65,0.325 C4.975,0.05 4.2,-0.025 3.5,0.1 C2.775,0.2 2.1,0.525 1.575,0.95 C1.05,1.35 0.675,1.875 0.45,2.325 C0.325,2.55 0.25,2.775 0.175,2.975 C0.125,3.175 0.075,3.35 0.05,3.5 C0.025,3.65 3.55271368e-15,3.75 3.55271368e-15,3.85 C3.55271368e-15,3.925 3.55271368e-15,3.975 3.55271368e-15,3.975 C3.55271368e-15,3.975 3.55271368e-15,4.025 3.55271368e-15,4.1 C3.55271368e-15,4.175 3.55271368e-15,4.3 3.55271368e-15,4.45 C3.55271368e-15,4.525 3.55271368e-15,4.6 0.025,4.7 C0.05,4.8 0.05,4.875 0.075,5 C0.075,5.1 0.125,5.225 0.15,5.325 C0.175,5.45 0.2,5.55 0.25,5.675 C0.425,6.175 0.725,6.7 1.2,7.2 C1.65,7.675 2.3,8.075 3,8.3 C3.7,8.5 4.475,8.525 5.175,8.35 C5.875,8.175 6.5,7.825 6.975,7.375 C7.1,7.275 7.2,7.15 7.3,7.05 C7.35,7 7.4,6.925 7.45,6.875 C7.5,6.825 7.525,6.775 7.575,6.7 C7.65,6.6 7.7,6.525 7.75,6.425 C7.8,6.35 7.85,6.275 7.875,6.2 C7.9,6.125 7.925,6.075 7.95,6.025 C8.1,5.675 8.175,5.375 8.225,5.1 C8.25,4.95 8.25,4.825 8.275,4.675 C8.25,4.55 8.25,4.4 8.25,4.25 Z" id="Path" fill="#FFFFFF" fill-rule="nonzero"></path>
                </g>
                <g id="Fill-238" transform="translate(32.000000, 0.000000)">
                    <path d="M27,15 C27,13.45 28.2,12.175 29.7,12.025 C29.3,10.05 28.525,8.225 27.425,6.6 C27,6.85 26.5,6.975 25.975,6.975 C24.325,6.975 22.975,5.625 22.975,3.975 C22.975,3.45 23.125,2.975 23.35,2.525 C21.75,1.425 19.9,0.65 17.925,0.25 C17.825,1.825 16.55,3 15,3 C13.45,3 12.175,1.825 12.025,0.3 C10.05,0.7 8.225,1.475 6.6,2.575 C6.85,3 6.975,3.5 6.975,4.025 C6.975,5.675 5.625,7.025 3.975,7.025 C3.45,7.025 2.975,6.875 2.525,6.65 C1.425,8.25 0.65,10.1 0.25,12.075 C1.775,12.225 2.95,13.5 2.95,15.05 C2.95,16.6 1.775,17.875 0.25,18.025 C0.65,20 1.425,21.825 2.525,23.45 C2.95,23.2 3.45,23.075 3.975,23.075 C5.625,23.075 6.975,24.425 6.975,26.075 C6.975,26.6 6.825,27.075 6.6,27.525 C8.2,28.625 10.05,29.4 12.025,29.8 C12.175,28.275 13.45,27.1 15,27.1 C16.55,27.1 17.825,28.3 17.975,29.8 C19.95,29.4 21.775,28.625 23.4,27.525 C23.15,27.1 23.025,26.6 23.025,26.075 C23.025,24.425 24.375,23.075 26.025,23.075 C26.55,23.075 27.025,23.225 27.475,23.45 C28.575,21.85 29.35,20 29.75,18.025 C28.2,17.825 27,16.55 27,15" id="Path" fill="#FFFFFE"></path>
                    <path d="M27,15 C27.025,14.375 27.125,13.95 27.55,13.325 C27.625,13.2 27.8,13 28.025,12.8 L28.075,12.775 C28.25,12.625 28.5,12.475 28.75,12.35 C29,12.225 29.25,12.15 29.525,12.1 L29.775,12.075 C29.8,12.075 29.775,12.05 29.775,12.05 L29.775,12 L29.775,11.95 L29.75,11.85 C29.725,11.7 29.7,11.575 29.65,11.425 C29.4,10.325 29,9.225 28.45,8.15 C28.325,7.875 28.175,7.625 28.025,7.35 C27.95,7.225 27.875,7.1 27.8,6.95 L27.675,6.75 L27.5,6.5 C27.45,6.5 27.375,6.575 27.325,6.575 L27.225,6.625 C27.15,6.65 27.1,6.675 27.025,6.7 C26.9,6.75 26.75,6.8 26.6,6.825 C26.3,6.9 26.025,6.9 25.725,6.875 C25.425,6.85 25.15,6.75 24.875,6.65 C24.6,6.525 24.35,6.375 24.125,6.175 C23.675,5.775 23.35,5.25 23.225,4.675 C23.1,4.1 23.15,3.475 23.375,2.95 C23.4,2.875 23.425,2.825 23.475,2.725 C23.5,2.65 23.55,2.575 23.575,2.525 L23.375,2.4 C23.225,2.3 23.1,2.225 22.975,2.15 C22.7,1.975 22.45,1.825 22.175,1.675 C21.075,1.075 19.925,0.625 18.75,0.325 C18.6,0.3 18.45,0.25 18.3,0.225 L17.975,0.15 L17.875,0.125 C17.875,0.125 17.85,0.125 17.85,0.125 L17.85,0.15 L17.85,0.2 L17.825,0.425 L17.75,0.525 C17.75,0.55 17.725,0.6 17.725,0.625 C17.7,0.7 17.7,0.75 17.675,0.825 L17.6,1.025 C17.575,1.1 17.55,1.15 17.525,1.225 C17.4,1.475 17.25,1.7 17.075,1.9 C16.9,2.1 16.675,2.275 16.45,2.4 C15.525,2.975 14.325,2.9 13.475,2.325 C13.05,2.05 12.725,1.65 12.525,1.225 C12.425,1 12.35,0.775 12.3,0.55 C12.3,0.525 12.275,0.475 12.275,0.425 L12.25,0.275 L12.225,0.125 L12.225,0.075 C12.225,0.075 12.225,0.05 12.2,0.05 L12.1,0.075 C11.925,0.125 11.75,0.15 11.575,0.2 C10.6,0.425 9.7,0.725 8.9,1.075 C8.1,1.425 7.375,1.825 6.775,2.2 C6.65,2.275 6.55,2.35 6.425,2.425 L6.375,2.45 L6.35,2.475 C6.35,2.475 6.325,2.475 6.35,2.5 L6.4,2.625 C6.45,2.7 6.475,2.775 6.525,2.85 C6.6,3 6.65,3.15 6.7,3.275 C6.775,3.55 6.825,3.85 6.8,4.1 C6.775,4.825 6.475,5.475 6,5.95 C5.55,6.425 4.95,6.675 4.4,6.75 C3.825,6.825 3.3,6.725 2.875,6.5 C2.75,6.45 2.65,6.375 2.525,6.325 L2.5,6.325 L2.475,6.35 L2.45,6.4 L2.4,6.475 L2.3,6.625 C2.25,6.7 2.225,6.75 2.175,6.8 C2.15,6.85 2.1,6.9 2.075,6.95 C1.95,7.15 1.85,7.325 1.75,7.5 C1.35,8.175 1.15,8.65 1.1,8.8 C1.05,8.95 1.1,8.775 1.375,8.2 C0.85,9.25 0.5,10.225 0.275,11.125 C0.25,11.225 0.225,11.35 0.2,11.45 L0.15,11.625 C0.125,11.7 0.125,11.775 0.1,11.85 C0.075,11.95 0.05,12.05 0.025,12.175 L0,12.25 C0.025,12.25 0.05,12.25 0.075,12.25 L0.225,12.275 C0.325,12.3 0.425,12.3 0.525,12.325 C0.6,12.325 0.625,12.35 0.675,12.35 C1.025,12.45 1.35,12.6 1.625,12.775 C2.15,13.15 2.475,13.65 2.625,14.125 C2.775,14.575 2.8,15 2.75,15.35 C2.7,15.7 2.625,15.95 2.525,16.15 C2.425,16.35 2.325,16.5 2.275,16.6 C2.125,16.8 2.075,16.85 2.075,16.85 C2.075,16.85 2.05,16.875 2.025,16.9 C1.975,16.925 1.925,17 1.825,17.075 C1.775,17.125 1.725,17.175 1.65,17.225 C1.575,17.275 1.5,17.325 1.4,17.4 C1.3,17.45 1.175,17.5 1.05,17.575 C0.975,17.6 0.9,17.625 0.825,17.65 C0.775,17.65 0.75,17.675 0.7,17.675 L0.625,17.7 L0.6,17.7 L0.525,17.7 C0.425,17.725 0.35,17.725 0.25,17.75 C0.2,17.75 0.15,17.775 0.1,17.775 L0.075,17.775 C0.05,17.775 0.075,17.8 0.075,17.8 L0.1,17.875 C0.125,18.05 0.175,18.225 0.225,18.4 C0.275,18.625 0.35,18.875 0.425,19.15 C0.575,19.675 0.775,20.3 1.075,21 C1.375,21.675 1.75,22.45 2.275,23.25 C2.325,23.325 2.375,23.4 2.425,23.45 L2.525,23.6 L2.575,23.675 C2.575,23.7 2.6,23.675 2.6,23.675 L2.65,23.65 L2.825,23.55 L2.9,23.5 L2.975,23.475 C3.025,23.45 3.075,23.425 3.125,23.4 C3.35,23.325 3.575,23.25 3.8,23.225 C4.275,23.175 4.825,23.25 5.3,23.5 C5.475,23.575 5.7,23.725 5.95,23.925 C6.2,24.15 6.475,24.475 6.675,25 C6.775,25.25 6.85,25.575 6.85,25.925 C6.875,26.275 6.8,26.675 6.625,27.075 L6.6,27.15 L6.525,27.3 L6.45,27.475 L6.45,27.5 C6.45,27.5 6.45,27.5 6.475,27.525 L6.525,27.55 L6.6,27.6 C6.85,27.775 6.9,27.8 7.025,27.875 C7.25,28.025 7.5,28.15 7.75,28.3 C8.275,28.575 8.85,28.875 9.5,29.125 C10.025,29.35 10.675,29.55 11.375,29.725 C11.475,29.75 11.55,29.775 11.65,29.8 L11.8,29.825 L11.975,29.85 C12.075,29.875 12.15,29.9 12.25,29.9 L12.325,29.925 L12.35,29.925 L12.35,29.9 L12.375,29.775 C12.4,29.625 12.425,29.4 12.45,29.35 C12.525,29 12.7,28.625 12.925,28.3 C13.175,27.975 13.475,27.7 13.875,27.5 C14.25,27.3 14.7,27.175 15.15,27.175 C15.6,27.175 16.075,27.275 16.5,27.525 C16.925,27.75 17.3,28.1 17.55,28.525 C17.675,28.75 17.775,28.975 17.85,29.225 L17.9,29.4 C17.9,29.425 17.9,29.475 17.925,29.5 L17.95,29.675 L17.975,29.875 C17.975,29.875 17.975,29.9 18,29.875 L18.025,29.875 L18.075,29.875 L18.175,29.85 L18.475,29.775 C19.025,29.65 19.575,29.5 20.125,29.3 C21.225,28.925 22.3,28.4 23.3,27.75 L23.5,27.625 L23.65,27.525 L23.75,27.475 C23.75,27.475 23.775,27.475 23.775,27.45 L23.75,27.425 L23.725,27.375 L23.625,27.2 L23.575,27.1 C23.55,27.025 23.525,26.975 23.5,26.9 C23.4,26.625 23.35,26.35 23.325,26.05 C23.3,25.475 23.45,24.875 23.775,24.4 C23.925,24.15 24.125,23.925 24.35,23.75 C24.575,23.575 24.825,23.4 25.1,23.3 C25.65,23.075 26.25,23 26.85,23.15 C27,23.175 27.125,23.225 27.275,23.275 C27.35,23.3 27.4,23.325 27.475,23.375 L27.625,23.45 L27.65,23.475 C27.65,23.475 27.675,23.475 27.675,23.475 L27.7,23.425 L27.75,23.325 C27.925,23.075 28.075,22.8 28.225,22.55 C28.525,22.025 28.8,21.475 29.025,20.9 C29.25,20.35 29.45,19.775 29.625,19.2 C29.7,18.9 29.775,18.625 29.85,18.325 L29.9,18.1 L29.75,18 C29.75,17.975 29.775,17.925 29.725,17.925 L29.65,17.9 L29.425,17.875 L29.225,17.825 C28.95,17.75 28.675,17.625 28.425,17.475 L28.3,17.4 C28.275,17.375 28.225,17.35 28.2,17.325 C28.125,17.275 28.075,17.225 28.025,17.175 C27.8,16.975 27.65,16.775 27.575,16.65 C27.125,16.05 27.025,15.625 27,15 C27.025,15.625 27.1,16.075 27.525,16.7 C27.6,16.825 27.75,17.025 27.975,17.225 C28.025,17.275 28.1,17.325 28.15,17.375 C28.175,17.4 28.225,17.425 28.25,17.45 L28.375,17.55 C28.625,17.7 28.9,17.825 29.175,17.925 L29.4,17.975 L29.625,18 L29.65,18 L29.65,18 L29.65,18 L29.625,18.1 L29.575,18.325 C29.5,18.6 29.425,18.9 29.35,19.175 C29.175,19.75 28.975,20.3 28.725,20.85 C28.475,21.4 28.2,21.95 27.9,22.475 C27.75,22.725 27.575,23 27.4,23.25 C27.4,23.25 27.4,23.25 27.4,23.25 L27.35,23.225 C27.275,23.2 27.2,23.15 27.125,23.125 C26.975,23.075 26.825,23.025 26.675,22.975 C26.05,22.825 25.4,22.875 24.8,23.1 C24.5,23.225 24.225,23.375 23.975,23.575 C23.725,23.775 23.525,24.025 23.35,24.275 C23,24.8 22.825,25.45 22.85,26.075 C22.85,26.4 22.925,26.7 23.025,27 C23.05,27.075 23.075,27.15 23.125,27.225 L23.175,27.325 L23.175,27.35 L23.175,27.35 L23.175,27.35 L23.175,27.35 L23.175,27.35 L23.125,27.375 L22.95,27.5 C21.95,28.125 20.9,28.625 19.825,28.975 C19.3,29.15 18.75,29.3 18.225,29.425 L18.125,29.45 C18.1,29.45 18.125,29.45 18.1,29.45 L18.1,29.45 L18.1,29.425 C18.1,29.4 18.1,29.35 18.075,29.325 L18.025,29.125 C17.95,28.85 17.85,28.575 17.7,28.35 C17.4,27.875 17,27.475 16.525,27.2 C16.05,26.925 15.5,26.8 15,26.8 C14.475,26.8 13.975,26.925 13.55,27.15 C13.125,27.375 12.75,27.7 12.475,28.075 C12.2,28.45 12.025,28.85 11.925,29.275 C11.9,29.4 11.9,29.4 11.9,29.425 C11.9,29.45 11.9,29.45 11.9,29.45 C11.825,29.425 11.725,29.4 11.65,29.4 C11.55,29.375 11.475,29.35 11.375,29.325 C10.675,29.15 10.075,28.95 9.55,28.725 C8.9,28.475 8.35,28.2 7.85,27.9 C7.6,27.75 7.375,27.625 7.15,27.475 C7.05,27.425 6.875,27.3 6.925,27.325 L6.925,27.325 C6.925,27.325 6.925,27.325 6.925,27.325 L6.975,27.25 C7.175,26.775 7.275,26.325 7.25,25.9 C7.25,25.5 7.15,25.125 7.05,24.825 C6.825,24.225 6.475,23.825 6.2,23.575 C5.9,23.325 5.675,23.175 5.45,23.075 C4.875,22.775 4.25,22.7 3.7,22.775 C3.425,22.8 3.15,22.875 2.9,22.975 C2.825,23 2.775,23.025 2.725,23.05 L2.7,23.05 L2.7,23.05 L2.7,23.05 L2.7,23.05 L2.7,23.05 L2.7,23.05 C2.7,23.05 2.7,23.05 2.7,23.025 L2.65,22.95 C2.15,22.175 1.775,21.425 1.5,20.775 C1.225,20.1 1.025,19.525 0.875,19 C0.8,18.75 0.75,18.5 0.7,18.275 C0.7,18.225 0.675,18.2 0.675,18.15 L0.675,18.15 C0.675,18.15 0.7,18.15 0.7,18.15 C0.8,18.125 0.875,18.1 0.95,18.075 C1.05,18.05 1.125,18.025 1.2,18 C1.35,17.925 1.5,17.875 1.625,17.8 C1.75,17.725 1.85,17.675 1.925,17.6 C2.025,17.55 2.075,17.475 2.15,17.425 C2.275,17.325 2.35,17.25 2.375,17.2 C2.425,17.15 2.45,17.125 2.45,17.125 C2.45,17.125 2.525,17.05 2.7,16.825 C2.775,16.7 2.9,16.55 3,16.3 C3.125,16.075 3.225,15.75 3.275,15.35 C3.325,14.95 3.325,14.45 3.125,13.9 C2.95,13.35 2.575,12.775 1.95,12.325 C1.65,12.1 1.25,11.925 0.825,11.825 L0.675,11.8 L0.65,11.8 C0.625,11.8 0.625,11.8 0.625,11.8 C0.625,11.825 0.625,11.75 0.65,11.7 L0.7,11.55 C0.725,11.45 0.75,11.325 0.775,11.225 C1,10.35 1.35,9.4 1.85,8.375 C1.575,8.925 1.525,9.1 1.575,8.95 C1.65,8.8 1.85,8.35 2.2,7.7 C2.3,7.525 2.4,7.35 2.525,7.175 C2.55,7.125 2.575,7.075 2.625,7.025 C2.65,7 2.675,6.95 2.7,6.925 C2.7,6.925 2.7,6.925 2.7,6.925 C3.2,7.15 3.825,7.3 4.5,7.2 C5.15,7.125 5.85,6.8 6.375,6.25 C6.9,5.7 7.275,4.925 7.3,4.1 C7.325,3.8 7.275,3.475 7.175,3.125 C7.125,2.95 7.075,2.8 6.975,2.625 C6.975,2.6 6.975,2.625 6.975,2.625 L6.975,2.625 L7.075,2.55 C7.675,2.175 8.35,1.775 9.15,1.425 C9.925,1.075 10.8,0.775 11.725,0.55 L11.9,0.5 L11.925,0.5 L11.925,0.5 L11.925,0.5 L11.925,0.5 C11.925,0.5 11.925,0.525 11.925,0.525 L11.925,0.55 C11.925,0.55 11.925,0.55 11.925,0.6 C11.975,0.875 12.075,1.125 12.2,1.375 C12.45,1.875 12.825,2.3 13.3,2.625 C14.25,3.275 15.625,3.325 16.675,2.675 C16.925,2.525 17.175,2.325 17.375,2.1 C17.575,1.875 17.75,1.6 17.9,1.325 C17.925,1.25 17.975,1.175 18,1.1 L18.075,0.875 C18.1,0.8 18.125,0.725 18.125,0.65 C18.125,0.6 18.15,0.575 18.15,0.525 L18.175,0.45 C18.175,0.45 18.175,0.45 18.175,0.45 L18.175,0.45 L18.275,0.475 C18.425,0.5 18.575,0.55 18.7,0.575 C19.85,0.85 21,1.3 22.075,1.875 C22.35,2.025 22.6,2.175 22.875,2.325 C23,2.4 23.15,2.5 23.25,2.575 L23.25,2.575 C23.225,2.625 23.175,2.725 23.15,2.775 C22.9,3.375 22.85,4.05 23,4.675 C23.15,5.3 23.5,5.875 24,6.3 C24.25,6.5 24.525,6.675 24.8,6.8 C25.1,6.925 25.4,7 25.725,7.025 C26.05,7.05 26.35,7.05 26.675,6.975 C26.825,6.95 26.975,6.9 27.125,6.825 C27.2,6.8 27.275,6.775 27.35,6.725 L27.475,6.65 C27.45,6.625 27.525,6.725 27.55,6.775 L27.675,6.975 C27.75,7.1 27.825,7.225 27.9,7.35 C28.05,7.6 28.2,7.875 28.325,8.125 C28.875,9.175 29.275,10.275 29.55,11.35 C29.575,11.475 29.625,11.625 29.65,11.75 L29.675,11.85 L29.675,11.9 L29.675,11.9 L29.5,11.925 C29.225,11.975 28.95,12.05 28.7,12.175 C28.45,12.3 28.2,12.45 28.025,12.625 L27.975,12.675 C27.75,12.875 27.6,13.075 27.525,13.2 C27.1,13.925 27.025,14.375 27,15 Z" id="Path" fill="#373751" fill-rule="nonzero"></path>
                </g>
                <g id="Fill-240" transform="translate(37.750000, 5.750000)" fill-rule="nonzero">
                    <path d="M18.25,9.25 C18.25,14.225 14.225,18.25 9.25,18.25 C4.275,18.25 0.25,14.225 0.25,9.25 C0.25,4.275 4.275,0.25 9.25,0.25 C14.225,0.25 18.25,4.275 18.25,9.25" id="Path" fill="#DE6341"></path>
                    <path d="M18.25,9.25 C18.225,9.575 18.225,9.825 18.2,10.1 C18.175,10.375 18.1,10.65 18.05,11.025 C18.025,11.125 17.975,11.275 17.925,11.45 C17.9,11.55 17.875,11.65 17.85,11.75 L17.825,11.825 C17.8,11.875 17.8,11.925 17.775,11.95 C17.75,12.025 17.7,12.125 17.675,12.2 C17.6,12.375 17.55,12.55 17.475,12.725 C17.4,12.9 17.3,13.075 17.225,13.25 C17.175,13.325 17.125,13.425 17.1,13.5 C17.05,13.575 17,13.675 16.95,13.75 C16.125,15.1 14.85,16.35 13.25,17.125 C12.475,17.525 11.6,17.775 10.7,17.925 C10.475,17.95 10.25,18 10.025,18 L9.35,18.025 C9.125,18.025 8.9,18 8.675,18 L8.35,17.975 L8.025,17.925 C7.15,17.8 6.3,17.525 5.525,17.175 C4.75,16.825 4.075,16.325 3.475,15.825 C3.325,15.7 3.175,15.55 3.05,15.425 C2.925,15.275 2.8,15.125 2.675,15 C2.625,14.925 2.55,14.85 2.5,14.775 C2.45,14.7 2.4,14.625 2.325,14.55 C2.225,14.4 2.1,14.25 2,14.1 C1.625,13.5 1.3,12.9 1.1,12.3 C0.675,11.125 0.55,10.1 0.55,9.4 C0.525,9.225 0.55,9.075 0.55,8.925 C0.55,8.8 0.575,8.675 0.575,8.575 C0.575,8.475 0.575,8.4 0.575,8.35 C0.575,8.3 0.575,8.275 0.575,8.275 C0.575,8.275 0.6,8.175 0.625,8 C0.65,7.9 0.65,7.8 0.675,7.65 C0.675,7.575 0.7,7.5 0.7,7.425 C0.725,7.35 0.75,7.275 0.775,7.175 C0.825,7 0.875,6.8 0.925,6.6 C1,6.4 1.075,6.175 1.175,5.95 C1.35,5.5 1.6,4.975 1.95,4.45 C2.6,3.4 3.675,2.325 5.05,1.525 C5.225,1.425 5.4,1.35 5.6,1.25 L5.875,1.125 C5.975,1.075 6.075,1.05 6.175,1.025 C6.375,0.95 6.575,0.875 6.775,0.8 C6.975,0.75 7.175,0.7 7.4,0.65 C7.6,0.575 7.825,0.575 8.025,0.525 C8.25,0.5 8.45,0.45 8.675,0.45 C8.9,0.425 9.1,0.425 9.325,0.4 C9.55,0.4 9.775,0.425 9.975,0.425 C10.2,0.425 10.425,0.45 10.65,0.5 C10.875,0.525 11.1,0.55 11.3,0.625 L11.95,0.775 L12.575,1 C13.4,1.325 14.2,1.775 14.9,2.325 C15.6,2.875 16.2,3.525 16.7,4.225 C16.925,4.6 17.175,4.925 17.35,5.3 C17.45,5.475 17.55,5.675 17.625,5.85 C17.7,6.025 17.75,6.2 17.825,6.375 C17.85,6.425 17.875,6.5 17.9,6.55 C17.925,6.6 17.925,6.65 17.95,6.725 C17.975,6.825 18,6.925 18.025,7.025 C18.075,7.2 18.125,7.35 18.15,7.45 C18.2,7.825 18.275,8.1 18.3,8.375 C18.225,8.675 18.225,8.925 18.25,9.25 C18.225,8.95 18.225,8.675 18.225,8.4 C18.2,8.125 18.15,7.825 18.1,7.45 C18.075,7.35 18.05,7.2 18,7.025 C17.975,6.925 17.95,6.825 17.925,6.725 C17.9,6.675 17.9,6.625 17.875,6.55 C17.85,6.5 17.825,6.425 17.825,6.375 C17.775,6.2 17.7,6.025 17.65,5.85 C17.575,5.65 17.475,5.475 17.4,5.275 C17.25,4.875 17,4.525 16.775,4.15 C16.275,3.425 15.675,2.75 15,2.15 C14.3,1.575 13.475,1.1 12.625,0.725 L11.975,0.475 L11.3,0.3 C11.075,0.225 10.85,0.2 10.625,0.175 C10.4,0.125 10.175,0.1 9.925,0.1 C9.7,0.075 9.475,0.075 9.225,0.05 C9,0.05 8.775,0.075 8.55,0.075 C8.325,0.075 8.1,0.125 7.875,0.15 C7.65,0.175 7.425,0.2 7.2,0.275 C6.975,0.325 6.775,0.375 6.55,0.425 C6.35,0.5 6.125,0.575 5.925,0.65 C5.825,0.7 5.725,0.725 5.625,0.775 C5.525,0.825 5.425,0.875 5.325,0.925 C5.125,1.025 4.925,1.1 4.75,1.2 C3.275,2.025 2.175,3.15 1.475,4.25 C1.125,4.8 0.85,5.35 0.65,5.825 C0.55,6.075 0.475,6.3 0.4,6.525 C0.35,6.75 0.3,6.95 0.25,7.125 C0.225,7.225 0.2,7.3 0.175,7.375 C0.15,7.45 0.15,7.525 0.15,7.6 C0.125,7.75 0.1,7.875 0.1,7.975 C0.075,8.175 0.05,8.275 0.05,8.275 C0.05,8.275 0.05,8.3 0.05,8.35 C0.05,8.4 0.05,8.475 0.05,8.575 C0.05,8.675 0.05,8.8 0.025,8.95 C0.025,9.1 2.84217094e-14,9.25 0.025,9.45 C0.025,10.2 0.15,11.275 0.625,12.525 C0.85,13.15 1.175,13.775 1.6,14.425 C1.7,14.575 1.825,14.725 1.95,14.9 C2,14.975 2.075,15.05 2.125,15.125 C2.175,15.2 2.25,15.275 2.325,15.35 C2.45,15.5 2.6,15.65 2.725,15.8 C2.875,15.95 3.025,16.075 3.175,16.225 C3.8,16.775 4.525,17.275 5.35,17.625 C6.15,18 7.05,18.275 7.975,18.375 L8.325,18.425 L8.675,18.45 C8.9,18.45 9.15,18.475 9.375,18.475 L10.075,18.425 C10.3,18.425 10.525,18.35 10.775,18.325 C11.7,18.175 12.6,17.875 13.4,17.45 C15.025,16.6 16.325,15.3 17.1,13.875 C17.15,13.8 17.2,13.7 17.25,13.625 C17.3,13.525 17.325,13.45 17.375,13.35 C17.45,13.175 17.55,13 17.625,12.825 C17.7,12.65 17.75,12.475 17.8,12.3 C17.825,12.2 17.85,12.125 17.9,12.05 C17.925,12 17.925,11.95 17.925,11.925 L17.95,11.85 C17.975,11.75 18,11.65 18.025,11.55 C18.075,11.375 18.1,11.225 18.125,11.125 C18.175,10.75 18.225,10.45 18.25,10.175 C18.225,9.825 18.225,9.575 18.25,9.25 Z" id="Path" fill="#FFFFFF"></path>
                </g>
                <g transform="translate(42.750000, 10.750000)" id="Path">
                    <path d="M4.25,8.25 C2.05,8.25 0.25,6.45 0.25,4.25 C0.25,2.05 2.05,0.25 4.25,0.25 C6.45,0.25 8.25,2.05 8.25,4.25 C8.25,6.45 6.45,8.25 4.25,8.25 L4.25,8.25 Z" fill="#FFFFFE"></path>
                    <path d="M4.25,8.25 C4.1,8.25 3.95,8.25 3.8,8.225 C3.65,8.2 3.525,8.175 3.4,8.15 C3.125,8.075 2.85,8 2.525,7.825 C2.475,7.8 2.425,7.775 2.35,7.75 C2.275,7.7 2.225,7.675 2.125,7.625 C2.05,7.575 1.95,7.525 1.875,7.45 C1.825,7.4 1.775,7.375 1.725,7.325 C1.675,7.275 1.625,7.225 1.575,7.175 C1.475,7.075 1.375,6.975 1.275,6.85 C0.875,6.375 0.575,5.775 0.45,5.1 C0.325,4.425 0.375,3.725 0.6,3.1 C0.825,2.475 1.2,1.925 1.65,1.525 C2.1,1.125 2.575,0.85 3.025,0.725 C3.125,0.675 3.25,0.65 3.35,0.625 C3.45,0.6 3.55,0.575 3.65,0.575 C3.75,0.55 3.825,0.55 3.9,0.525 C3.975,0.525 4.05,0.525 4.125,0.525 C4.25,0.525 4.35,0.525 4.425,0.525 C4.5,0.525 4.525,0.525 4.525,0.525 C4.525,0.525 4.55,0.525 4.625,0.525 C4.7,0.525 4.8,0.55 4.925,0.575 C5.05,0.575 5.2,0.65 5.4,0.675 C5.575,0.725 5.775,0.8 5.975,0.9 C6.375,1.1 6.85,1.425 7.225,1.875 C7.6,2.325 7.925,2.925 8.05,3.575 C8.175,4.225 8.15,4.95 7.925,5.6 C7.725,6.25 7.325,6.825 6.875,7.225 C6.5,7.55 6.15,7.775 5.975,7.85 C5.65,8.025 5.35,8.1 5.1,8.175 C4.975,8.2 4.825,8.225 4.7,8.25 C4.55,8.25 4.4,8.25 4.25,8.25 C4.4,8.25 4.55,8.25 4.7,8.225 C4.85,8.2 4.975,8.2 5.1,8.15 C5.375,8.075 5.65,8 6,7.85 C6.2,7.775 6.55,7.575 6.925,7.25 C7.375,6.875 7.825,6.3 8.075,5.65 C8.35,5 8.425,4.25 8.325,3.525 C8.225,2.8 7.925,2.15 7.525,1.625 C7.125,1.1 6.625,0.725 6.175,0.475 C5.95,0.35 5.725,0.275 5.525,0.2 C5.325,0.15 5.15,0.1 5,0.075 C4.85,0.05 4.75,0.025 4.65,0.025 C4.575,0.025 4.525,0.025 4.525,0.025 C4.525,0.025 4.475,0.025 4.4,0.025 C4.325,0.025 4.2,0.025 4.05,0.025 C3.75,0.025 3.325,0.1 2.825,0.275 C2.325,0.45 1.8,0.75 1.325,1.225 C0.85,1.675 0.475,2.325 0.275,3.025 C0.075,3.725 0.075,4.475 0.25,5.175 C0.425,5.85 0.775,6.475 1.2,6.925 C1.3,7.05 1.4,7.15 1.525,7.25 C1.575,7.3 1.625,7.35 1.7,7.4 C1.75,7.45 1.8,7.475 1.85,7.525 C1.95,7.6 2.025,7.65 2.1,7.7 C2.175,7.75 2.25,7.8 2.325,7.825 C2.4,7.85 2.45,7.875 2.5,7.9 C2.85,8.075 3.125,8.15 3.4,8.2 C3.525,8.225 3.675,8.25 3.8,8.275 C3.95,8.25 4.1,8.25 4.25,8.25 Z" fill="#373751" fill-rule="nonzero"></path>
                </g>
            </g>
        </g>
    </g>
</svg>