<?xml version="1.0" encoding="UTF-8"?>
<svg width="64px" height="64px" viewBox="0 0 64 64" version="1.1" xmlns="http://www.w3.org/2000/svg" xmlns:xlink="http://www.w3.org/1999/xlink">
    <title>Icon/Block/4</title>
    <g id="Icon/Block/4" stroke="none" stroke-width="1" fill="none" fill-rule="evenodd">
        <g id="2" transform="translate(1.000000, 1.000000)">
            <path d="M40,42 C40,53.05 31.05,62 20,62 C8.95,62 0,53.05 0,42 C0,30.95 8.95,22 20,22 C31.05,22 40,30.95 40,42" id="Path" fill="#EBEBEB" fill-rule="nonzero"></path>
            <path d="M62,14 C62,21.725 55.725,28 48,28 C40.275,28 34,21.725 34,14 C34,6.275 40.275,0 48,0 C55.725,0 62,6.275 62,14" id="Path" fill="#EBEBEB" fill-rule="nonzero"></path>
            <g id="Group" transform="translate(10.750000, 2.250000)">
                <g id="Rectangle">
                    <rect fill="#FFFFFF" x="0.25" y="0.25" width="40" height="57"></rect>
                    <path d="M0.25,0.25 C0.875,0.25 1.3,0.25 2.05,0.25 C3.7,0.25 6.975,0.275 11,0.3 C16.925,0.325 23.375,0.35 30.025,0.375 C33.35,0.375 36.7,0.4 40.075,0.4 C40.075,3.675 40.05,6.95 40.05,10.175 C40.025,23.55 40.025,36.325 40,45.75 C40,50.45 40,54.3 40,57 C37.6,57 36.225,57 36.225,57 C36.225,57 30.15,57 20.725,57 C16.025,57 10.475,57 4.425,57.025 C3.675,57.025 2.9,57.025 2.125,57.025 C1.75,57.025 1.35,57.025 0.975,57.025 L0.45,57.025 L0.45,57.025 L0.45,56.8 C0.45,55.225 0.45,53.65 0.45,52.025 C0.45,48.8 0.425,45.5 0.425,42.15 C0.4,35.475 0.375,28.65 0.35,22 C0.325,15.4 0.3,9.025 0.275,3.15 C0.275,2.65 0.275,2.25 0.275,2.05 C0.25,1.3 0.25,0.875 0.25,0.25 C0.25,0.875 0.25,1.3 0.25,2.05 C0.25,2.25 0.25,2.65 0.25,3.15 C0.225,9.025 0.2,15.4 0.15,22 C0.125,28.65 0.1,35.475 0.075,42.175 C0.075,45.525 0.05,48.825 0.05,52.05 C0.05,53.65 0.05,55.25 0.05,56.825 L0.05,57.175 C0.05,57.275 0.05,57.375 0.05,57.475 L0.35,57.475 C0.575,57.475 0.775,57.475 1,57.475 C1.4,57.475 1.775,57.475 2.15,57.475 C2.925,57.475 3.675,57.475 4.45,57.475 C10.5,57.475 16.05,57.5 20.75,57.5 C30.175,57.5 36.25,57.5 36.25,57.5 C36.25,57.5 36.625,57.5 37.35,57.5 C37.7,57.5 38.15,57.5 38.675,57.5 C38.925,57.5 39.225,57.5 39.525,57.5 C39.675,57.5 39.825,57.5 40,57.5 C40.15,57.5 40.3,57.5 40.45,57.5 L40.5,57.5 L40.525,57.5 L40.525,57.475 L40.525,57.35 C40.525,57.275 40.525,57.175 40.525,57.1 C40.525,54.4 40.525,50.5 40.525,45.775 C40.525,36.35 40.5,23.575 40.475,10.2 C40.475,8.525 40.475,6.85 40.475,5.15 C40.475,4.3 40.475,3.475 40.475,2.625 L40.475,1.35 L40.475,0.725 L40.475,0.4 L40.475,0.075 C40.375,0.075 40.275,0.075 40.15,0.075 C36.775,0.075 33.4,0.1 30.075,0.1 C23.375,0.15 16.925,0.175 11,0.2 C6.975,0.2 3.7,0.225 2.05,0.25 C1.3,0.25 0.875,0.25 0.25,0.25 Z" id="Path" fill="#373751" fill-rule="nonzero"></path>
                </g>
                <g transform="translate(4.000000, 4.000000)">
                    <rect id="Rectangle" fill="#DE6341" x="0.25" y="0.25" width="32" height="9"></rect>
                    <path d="M0.25,0.25 C0.875,0.25 1.3,0.275 2.05,0.275 C2.8,0.275 4.3,0.3 6.125,0.325 C10.925,0.375 16.6,0.425 22.05,0.45 C24.775,0.45 27.425,0.475 29.875,0.475 C30.5,0.475 31.1,0.475 31.675,0.475 L31.9,0.475 L32,0.475 C32.025,0.475 32.025,0.475 32.025,0.475 L32.025,0.475 L32.025,0.475 L32.025,0.475 L32.025,0.475 L32.025,0.525 C32.025,0.8 32.025,1.1 32.025,1.375 C32.025,2.475 32.025,3.525 32.025,4.475 C32.025,6.375 32.025,7.925 32.025,9 C31.2,9 30.75,9 30.75,9 C30.75,9 20.85,9 10,9.075 C7.275,9.1 4.5,9.125 1.8,9.125 C1.475,9.125 1.125,9.125 0.8,9.125 L0.35,9.125 L0.35,9.125 C0.35,9.125 0.35,9.125 0.35,9.125 L0.35,9.1 L0.35,9.05 L0.35,8.8 C0.35,8.125 0.325,7.475 0.325,6.825 C0.3,5.55 0.3,4.325 0.275,3.15 C0.275,2.65 0.275,2.25 0.25,2.05 C0.275,1.3 0.25,0.875 0.25,0.25 C0.25,0.875 0.225,1.3 0.225,2.05 C0.225,2.25 0.225,2.65 0.2,3.15 C0.175,4.325 0.175,5.55 0.15,6.825 C0.15,7.475 0.125,8.125 0.125,8.8 L0.125,9.05 L0.125,9.2 L0.125,9.325 L0.125,9.35 C0.125,9.35 0.15,9.35 0.15,9.35 L0.2,9.35 C0.375,9.35 0.575,9.35 0.75,9.35 C1.075,9.35 1.425,9.35 1.75,9.35 C4.5,9.4 7.275,9.425 10,9.425 C20.85,9.5 30.725,9.5 30.725,9.5 C30.725,9.5 30.875,9.5 31.175,9.5 C31.325,9.5 31.5,9.5 31.7,9.5 C31.825,9.5 31.95,9.5 32.075,9.5 C32.2,9.5 32.325,9.5 32.45,9.5 L32.475,9.5 C32.475,9.5 32.475,9.475 32.475,9.475 L32.475,9.425 L32.475,9.325 C32.475,9.25 32.475,9.2 32.475,9.125 C32.475,8.025 32.475,6.425 32.475,4.5 C32.475,3.55 32.475,2.5 32.475,1.4 C32.475,1.125 32.475,0.85 32.475,0.55 C32.475,0.425 32.475,0.3 32.475,0.175 L32.475,0.075 L32.475,0.05 C32.475,0.05 32.45,0.05 32.45,0.05 L32.4,0.05 L32.175,0.05 C32,0.05 31.825,0.05 31.65,0.05 C31.075,0.05 30.475,0.05 29.85,0.05 C27.4,0.05 24.75,0.075 22.025,0.075 C16.6,0.1 10.925,0.15 6.1,0.2 C4.275,0.225 2.775,0.25 2.025,0.25 C1.3,0.225 0.875,0.25 0.25,0.25 Z" id="Path" fill="#373751" fill-rule="nonzero"></path>
                </g>
                <g transform="translate(4.000000, 21.000000)" fill="#373751" fill-rule="nonzero" id="Path">
                    <path d="M0.25,0.25 C0.875,0.25 1.3,0.3 2.05,0.35 C2.3,0.35 2.825,0.375 3.45,0.4 C3.9,0.425 4.4,0.425 4.925,0.45 L5.025,0.45 L5.075,0.45 C5.075,0.45 5.075,0.45 5.075,0.45 C5.075,0.45 5.075,0.45 5.075,0.45 L5.075,0.45 C5.075,0.45 5.075,0.45 5.075,0.45 L5.075,0.5 L5.075,0.7 C5.075,0.95 5.075,1.225 5.05,1.475 C5.05,2.5 5.025,3.5 5.025,4.225 C5.025,4.55 5.025,4.85 5.025,5.025 C5.025,5.025 5.025,5.025 5.025,5.025 L5.025,5.025 C5.025,5.025 5.05,5.025 5,5.025 C4.975,5.025 4.95,5.025 4.925,5.025 C4.8,5.025 4.625,5.025 4.375,5.025 C3.925,5.025 3.275,5.025 2.575,5.025 C1.9,5.025 1.175,5.05 0.45,5.05 L0.45,5.05 C0.45,5.05 0.45,5.075 0.45,5 C0.45,4.9 0.45,4.8 0.45,4.725 C0.45,4.55 0.45,4.35 0.425,4.175 C0.425,3.825 0.4,3.475 0.4,3.175 C0.375,2.6 0.375,2.25 0.35,2.05 C0.3,1.3 0.25,0.875 0.25,0.25 C0.25,0.875 0.2,1.3 0.15,2.05 C0.15,2.225 0.125,2.6 0.1,3.175 C0.1,3.475 0.075,3.825 0.075,4.175 C0.075,4.35 0.075,4.55 0.05,4.725 C0.05,4.825 0.05,4.925 0.05,5 L0.05,5.225 L0.05,5.375 C0.05,5.4 0.05,5.425 0.075,5.425 L0.15,5.425 C0.975,5.45 1.8,5.45 2.55,5.45 C4.025,5.45 5.175,5.475 5.175,5.475 C5.175,5.475 5.225,5.475 5.35,5.475 C5.4,5.475 5.5,5.5 5.475,5.4 C5.475,5.325 5.475,5.225 5.475,5.125 C5.475,4.9 5.475,4.575 5.475,4.2 C5.475,3.475 5.45,2.5 5.45,1.45 C5.45,1.2 5.45,0.925 5.425,0.675 C5.425,0.5 5.425,0.325 5.425,0.15 C5.425,0.125 5.425,0.075 5.425,0.05 L5.325,0.05 C5.275,0.05 5.2,0.05 5.125,0.05 L4.875,0.05 C4.375,0.075 3.875,0.075 3.4,0.1 C2.775,0.125 2.275,0.15 2,0.15 C1.3,0.2 0.875,0.25 0.25,0.25 Z"></path>
                </g>
                <g transform="translate(13.000000, 21.000000)" fill="#373751" fill-rule="nonzero" id="Path">
                    <path d="M0.25,0.25 C0.875,0.25 1.3,0.3 2.05,0.35 C2.3,0.35 2.825,0.375 3.45,0.4 C3.9,0.425 4.4,0.425 4.925,0.45 L5.025,0.45 L5.075,0.45 C5.075,0.45 5.075,0.45 5.075,0.45 C5.075,0.45 5.075,0.45 5.075,0.45 L5.075,0.45 C5.075,0.45 5.075,0.45 5.075,0.45 L5.075,0.5 L5.075,0.7 C5.075,0.95 5.075,1.225 5.05,1.475 C5.05,2.5 5.025,3.5 5.025,4.225 C5.025,4.55 5.025,4.85 5.025,5.025 C5.025,5.025 5.025,5.025 5.025,5.025 L5.025,5.025 C5.025,5.025 5.05,5.025 5,5.025 C4.975,5.025 4.95,5.025 4.925,5.025 C4.8,5.025 4.625,5.025 4.375,5.025 C3.925,5.025 3.275,5.025 2.575,5.025 C1.9,5.025 1.175,5.05 0.45,5.05 L0.45,5.05 C0.45,5.05 0.45,5.075 0.45,5 C0.45,4.9 0.45,4.8 0.45,4.725 C0.45,4.55 0.45,4.35 0.425,4.175 C0.425,3.825 0.4,3.475 0.4,3.175 C0.375,2.6 0.375,2.25 0.35,2.05 C0.3,1.3 0.25,0.875 0.25,0.25 C0.25,0.875 0.2,1.3 0.15,2.05 C0.15,2.225 0.125,2.6 0.1,3.175 C0.1,3.475 0.075,3.825 0.075,4.175 C0.075,4.35 0.075,4.55 0.05,4.725 C0.05,4.825 0.05,4.925 0.05,5 L0.05,5.225 L0.05,5.375 C0.05,5.4 0.05,5.425 0.075,5.425 L0.15,5.425 C0.975,5.45 1.8,5.45 2.55,5.45 C4.025,5.45 5.175,5.475 5.175,5.475 C5.175,5.475 5.225,5.475 5.35,5.475 C5.4,5.475 5.5,5.5 5.475,5.4 C5.475,5.325 5.475,5.225 5.475,5.125 C5.475,4.9 5.475,4.575 5.475,4.2 C5.475,3.475 5.45,2.5 5.45,1.45 C5.45,1.2 5.45,0.925 5.425,0.675 C5.425,0.5 5.425,0.325 5.425,0.15 C5.425,0.125 5.425,0.075 5.425,0.05 L5.325,0.05 C5.275,0.05 5.2,0.05 5.125,0.05 L4.875,0.05 C4.375,0.075 3.875,0.075 3.4,0.1 C2.775,0.125 2.275,0.15 2,0.15 C1.3,0.2 0.875,0.25 0.25,0.25 Z"></path>
                </g>
                <g transform="translate(22.000000, 21.000000)" fill="#373751" fill-rule="nonzero" id="Path">
                    <path d="M0.25,0.25 C0.875,0.25 1.3,0.3 2.05,0.35 C2.3,0.35 2.825,0.375 3.45,0.4 C3.9,0.425 4.4,0.425 4.925,0.45 L5.025,0.45 L5.075,0.45 C5.075,0.45 5.075,0.45 5.075,0.45 C5.075,0.45 5.075,0.45 5.075,0.45 L5.075,0.45 C5.075,0.45 5.075,0.45 5.075,0.45 L5.075,0.5 L5.075,0.7 C5.075,0.95 5.075,1.225 5.05,1.475 C5.05,2.5 5.025,3.5 5.025,4.225 C5.025,4.55 5.025,4.85 5.025,5.025 C5.025,5.025 5.025,5.025 5.025,5.025 L5.025,5.025 C5.025,5.025 5.05,5.025 5,5.025 C4.975,5.025 4.95,5.025 4.925,5.025 C4.8,5.025 4.625,5.025 4.375,5.025 C3.925,5.025 3.275,5.025 2.575,5.025 C1.9,5.025 1.175,5.05 0.45,5.05 L0.45,5.05 C0.45,5.05 0.45,5.075 0.45,5 C0.45,4.9 0.45,4.8 0.45,4.725 C0.45,4.55 0.45,4.35 0.425,4.175 C0.425,3.825 0.4,3.475 0.4,3.175 C0.375,2.6 0.375,2.25 0.35,2.05 C0.3,1.3 0.25,0.875 0.25,0.25 C0.25,0.875 0.2,1.3 0.15,2.05 C0.15,2.225 0.125,2.6 0.1,3.175 C0.1,3.475 0.075,3.825 0.075,4.175 C0.075,4.35 0.075,4.55 0.05,4.725 C0.05,4.825 0.05,4.925 0.05,5 L0.05,5.225 L0.05,5.375 C0.05,5.4 0.05,5.425 0.075,5.425 L0.15,5.425 C0.975,5.45 1.8,5.45 2.55,5.45 C4.025,5.45 5.175,5.475 5.175,5.475 C5.175,5.475 5.225,5.475 5.35,5.475 C5.4,5.475 5.5,5.5 5.475,5.4 C5.475,5.325 5.475,5.225 5.475,5.125 C5.475,4.9 5.475,4.575 5.475,4.2 C5.475,3.475 5.45,2.5 5.45,1.45 C5.45,1.2 5.45,0.925 5.425,0.675 C5.425,0.5 5.425,0.325 5.425,0.15 C5.425,0.125 5.425,0.075 5.425,0.05 L5.325,0.05 C5.275,0.05 5.2,0.05 5.125,0.05 L4.875,0.05 C4.375,0.075 3.875,0.075 3.4,0.1 C2.775,0.125 2.275,0.15 2,0.15 C1.3,0.2 0.875,0.25 0.25,0.25 Z"></path>
                </g>
                <g transform="translate(31.000000, 21.000000)" fill="#373751" fill-rule="nonzero" id="Path">
                    <path d="M0.25,0.25 C0.875,0.25 1.3,0.3 2.05,0.35 C2.3,0.35 2.825,0.375 3.45,0.4 C3.9,0.425 4.4,0.425 4.925,0.45 L5.025,0.45 L5.075,0.45 C5.075,0.45 5.075,0.45 5.075,0.45 C5.075,0.45 5.075,0.45 5.075,0.45 L5.075,0.45 C5.075,0.45 5.075,0.45 5.075,0.45 L5.075,0.5 L5.075,0.7 C5.075,0.95 5.075,1.225 5.05,1.475 C5.05,2.5 5.025,3.5 5.025,4.225 C5.025,4.55 5.025,4.85 5.025,5.025 C5.025,5.025 5.025,5.025 5.025,5.025 L5.025,5.025 C5.025,5.025 5.05,5.025 5,5.025 C4.975,5.025 4.95,5.025 4.925,5.025 C4.8,5.025 4.625,5.025 4.375,5.025 C3.925,5.025 3.275,5.025 2.575,5.025 C1.9,5.025 1.175,5.05 0.45,5.05 L0.45,5.05 C0.45,5.05 0.45,5.075 0.45,5 C0.45,4.9 0.45,4.8 0.45,4.725 C0.45,4.55 0.45,4.35 0.425,4.175 C0.425,3.825 0.4,3.475 0.4,3.175 C0.375,2.6 0.375,2.25 0.35,2.05 C0.3,1.3 0.25,0.875 0.25,0.25 C0.25,0.875 0.2,1.3 0.15,2.05 C0.15,2.225 0.125,2.6 0.1,3.175 C0.1,3.475 0.075,3.825 0.075,4.175 C0.075,4.35 0.075,4.55 0.05,4.725 C0.05,4.825 0.05,4.925 0.05,5 L0.05,5.225 L0.05,5.375 C0.05,5.4 0.05,5.425 0.075,5.425 L0.15,5.425 C0.975,5.45 1.8,5.45 2.55,5.45 C4.025,5.45 5.175,5.475 5.175,5.475 C5.175,5.475 5.225,5.475 5.35,5.475 C5.4,5.475 5.5,5.5 5.475,5.4 C5.475,5.325 5.475,5.225 5.475,5.125 C5.475,4.9 5.475,4.575 5.475,4.2 C5.475,3.475 5.45,2.5 5.45,1.45 C5.45,1.2 5.45,0.925 5.425,0.675 C5.425,0.5 5.425,0.325 5.425,0.15 C5.425,0.125 5.425,0.075 5.425,0.05 L5.325,0.05 C5.275,0.05 5.2,0.05 5.125,0.05 L4.875,0.05 C4.375,0.075 3.875,0.075 3.4,0.1 C2.775,0.125 2.275,0.15 2,0.15 C1.3,0.2 0.875,0.25 0.25,0.25 Z"></path>
                </g>
                <g transform="translate(4.000000, 30.000000)" fill="#373751" fill-rule="nonzero" id="Path">
                    <path d="M0.25,0.25 C0.875,0.25 1.3,0.3 2.05,0.35 C2.3,0.35 2.825,0.375 3.45,0.4 C3.9,0.425 4.4,0.425 4.925,0.45 L5.025,0.45 L5.075,0.45 C5.075,0.45 5.075,0.45 5.075,0.45 C5.075,0.45 5.075,0.45 5.075,0.45 L5.075,0.45 C5.075,0.45 5.075,0.45 5.075,0.45 L5.075,0.5 L5.075,0.7 C5.075,0.95 5.075,1.225 5.05,1.475 C5.05,2.5 5.025,3.5 5.025,4.225 C5.025,4.55 5.025,4.85 5.025,5.025 C5.025,5.025 5.025,5.025 5.025,5.025 L5.025,5.025 C5.025,5.025 5.05,5.025 5,5.025 C4.975,5.025 4.95,5.025 4.925,5.025 C4.8,5.025 4.625,5.025 4.375,5.025 C3.925,5.025 3.275,5.025 2.575,5.025 C1.9,5.025 1.175,5.05 0.45,5.05 L0.45,5.05 C0.45,5.05 0.45,5.075 0.45,5 C0.45,4.9 0.45,4.8 0.45,4.725 C0.45,4.55 0.45,4.35 0.425,4.175 C0.425,3.825 0.4,3.475 0.4,3.175 C0.375,2.6 0.375,2.25 0.35,2.05 C0.3,1.3 0.25,0.875 0.25,0.25 C0.25,0.875 0.2,1.3 0.15,2.05 C0.15,2.225 0.125,2.6 0.1,3.175 C0.1,3.475 0.075,3.825 0.075,4.175 C0.075,4.35 0.075,4.55 0.05,4.725 C0.05,4.825 0.05,4.925 0.05,5 L0.05,5.225 L0.05,5.375 C0.05,5.4 0.05,5.425 0.075,5.425 L0.15,5.425 C0.975,5.45 1.8,5.45 2.55,5.45 C4.025,5.45 5.175,5.475 5.175,5.475 C5.175,5.475 5.225,5.475 5.35,5.475 C5.4,5.475 5.5,5.5 5.475,5.4 C5.475,5.325 5.475,5.225 5.475,5.125 C5.475,4.9 5.475,4.575 5.475,4.2 C5.475,3.475 5.45,2.5 5.45,1.45 C5.45,1.2 5.45,0.925 5.425,0.675 C5.425,0.5 5.425,0.325 5.425,0.15 C5.425,0.125 5.425,0.075 5.425,0.05 L5.325,0.05 C5.275,0.05 5.2,0.05 5.125,0.05 L4.875,0.05 C4.375,0.075 3.875,0.075 3.4,0.1 C2.775,0.125 2.275,0.15 2,0.15 C1.3,0.2 0.875,0.25 0.25,0.25 Z"></path>
                </g>
                <g transform="translate(13.000000, 30.000000)" fill="#373751" fill-rule="nonzero" id="Path">
                    <path d="M0.25,0.25 C0.875,0.25 1.3,0.3 2.05,0.35 C2.3,0.35 2.825,0.375 3.45,0.4 C3.9,0.425 4.4,0.425 4.925,0.45 L5.025,0.45 L5.075,0.45 C5.075,0.45 5.075,0.45 5.075,0.45 C5.075,0.45 5.075,0.45 5.075,0.45 L5.075,0.45 C5.075,0.45 5.075,0.45 5.075,0.45 L5.075,0.5 L5.075,0.7 C5.075,0.95 5.075,1.225 5.05,1.475 C5.05,2.5 5.025,3.5 5.025,4.225 C5.025,4.55 5.025,4.85 5.025,5.025 C5.025,5.025 5.025,5.025 5.025,5.025 L5.025,5.025 C5.025,5.025 5.05,5.025 5,5.025 C4.975,5.025 4.95,5.025 4.925,5.025 C4.8,5.025 4.625,5.025 4.375,5.025 C3.925,5.025 3.275,5.025 2.575,5.025 C1.9,5.025 1.175,5.05 0.45,5.05 L0.45,5.05 C0.45,5.05 0.45,5.075 0.45,5 C0.45,4.9 0.45,4.8 0.45,4.725 C0.45,4.55 0.45,4.35 0.425,4.175 C0.425,3.825 0.4,3.475 0.4,3.175 C0.375,2.6 0.375,2.25 0.35,2.05 C0.3,1.3 0.25,0.875 0.25,0.25 C0.25,0.875 0.2,1.3 0.15,2.05 C0.15,2.225 0.125,2.6 0.1,3.175 C0.1,3.475 0.075,3.825 0.075,4.175 C0.075,4.35 0.075,4.55 0.05,4.725 C0.05,4.825 0.05,4.925 0.05,5 L0.05,5.225 L0.05,5.375 C0.05,5.4 0.05,5.425 0.075,5.425 L0.15,5.425 C0.975,5.45 1.8,5.45 2.55,5.45 C4.025,5.45 5.175,5.475 5.175,5.475 C5.175,5.475 5.225,5.475 5.35,5.475 C5.4,5.475 5.5,5.5 5.475,5.4 C5.475,5.325 5.475,5.225 5.475,5.125 C5.475,4.9 5.475,4.575 5.475,4.2 C5.475,3.475 5.45,2.5 5.45,1.45 C5.45,1.2 5.45,0.925 5.425,0.675 C5.425,0.5 5.425,0.325 5.425,0.15 C5.425,0.125 5.425,0.075 5.425,0.05 L5.325,0.05 C5.275,0.05 5.2,0.05 5.125,0.05 L4.875,0.05 C4.375,0.075 3.875,0.075 3.4,0.1 C2.775,0.125 2.275,0.15 2,0.15 C1.3,0.2 0.875,0.25 0.25,0.25 Z"></path>
                </g>
                <g transform="translate(22.000000, 30.000000)" fill="#373751" fill-rule="nonzero" id="Path">
                    <path d="M0.25,0.25 C0.875,0.25 1.3,0.3 2.05,0.35 C2.3,0.35 2.825,0.375 3.45,0.4 C3.9,0.425 4.4,0.425 4.925,0.45 L5.025,0.45 L5.075,0.45 C5.075,0.45 5.075,0.45 5.075,0.45 C5.075,0.45 5.075,0.45 5.075,0.45 L5.075,0.45 C5.075,0.45 5.075,0.45 5.075,0.45 L5.075,0.5 L5.075,0.7 C5.075,0.95 5.075,1.225 5.05,1.475 C5.05,2.5 5.025,3.5 5.025,4.225 C5.025,4.55 5.025,4.85 5.025,5.025 C5.025,5.025 5.025,5.025 5.025,5.025 L5.025,5.025 C5.025,5.025 5.05,5.025 5,5.025 C4.975,5.025 4.95,5.025 4.925,5.025 C4.8,5.025 4.625,5.025 4.375,5.025 C3.925,5.025 3.275,5.025 2.575,5.025 C1.9,5.025 1.175,5.05 0.45,5.05 L0.45,5.05 C0.45,5.05 0.45,5.075 0.45,5 C0.45,4.9 0.45,4.8 0.45,4.725 C0.45,4.55 0.45,4.35 0.425,4.175 C0.425,3.825 0.4,3.475 0.4,3.175 C0.375,2.6 0.375,2.25 0.35,2.05 C0.3,1.3 0.25,0.875 0.25,0.25 C0.25,0.875 0.2,1.3 0.15,2.05 C0.15,2.225 0.125,2.6 0.1,3.175 C0.1,3.475 0.075,3.825 0.075,4.175 C0.075,4.35 0.075,4.55 0.05,4.725 C0.05,4.825 0.05,4.925 0.05,5 L0.05,5.225 L0.05,5.375 C0.05,5.4 0.05,5.425 0.075,5.425 L0.15,5.425 C0.975,5.45 1.8,5.45 2.55,5.45 C4.025,5.45 5.175,5.475 5.175,5.475 C5.175,5.475 5.225,5.475 5.35,5.475 C5.4,5.475 5.5,5.5 5.475,5.4 C5.475,5.325 5.475,5.225 5.475,5.125 C5.475,4.9 5.475,4.575 5.475,4.2 C5.475,3.475 5.45,2.5 5.45,1.45 C5.45,1.2 5.45,0.925 5.425,0.675 C5.425,0.5 5.425,0.325 5.425,0.15 C5.425,0.125 5.425,0.075 5.425,0.05 L5.325,0.05 C5.275,0.05 5.2,0.05 5.125,0.05 L4.875,0.05 C4.375,0.075 3.875,0.075 3.4,0.1 C2.775,0.125 2.275,0.15 2,0.15 C1.3,0.2 0.875,0.25 0.25,0.25 Z"></path>
                </g>
                <g transform="translate(31.000000, 30.000000)" fill="#373751" fill-rule="nonzero" id="Path">
                    <path d="M0.25,0.25 C0.875,0.25 1.3,0.3 2.05,0.35 C2.3,0.35 2.825,0.375 3.45,0.4 C3.9,0.425 4.4,0.425 4.925,0.45 L5.025,0.45 L5.075,0.45 C5.075,0.45 5.075,0.45 5.075,0.45 C5.075,0.45 5.075,0.45 5.075,0.45 L5.075,0.45 C5.075,0.45 5.075,0.45 5.075,0.45 L5.075,0.5 L5.075,0.7 C5.075,0.95 5.075,1.225 5.05,1.475 C5.05,2.5 5.025,3.5 5.025,4.225 C5.025,4.55 5.025,4.85 5.025,5.025 C5.025,5.025 5.025,5.025 5.025,5.025 L5.025,5.025 C5.025,5.025 5.05,5.025 5,5.025 C4.975,5.025 4.95,5.025 4.925,5.025 C4.8,5.025 4.625,5.025 4.375,5.025 C3.925,5.025 3.275,5.025 2.575,5.025 C1.9,5.025 1.175,5.05 0.45,5.05 L0.45,5.05 C0.45,5.05 0.45,5.075 0.45,5 C0.45,4.9 0.45,4.8 0.45,4.725 C0.45,4.55 0.45,4.35 0.425,4.175 C0.425,3.825 0.4,3.475 0.4,3.175 C0.375,2.6 0.375,2.25 0.35,2.05 C0.3,1.3 0.25,0.875 0.25,0.25 C0.25,0.875 0.2,1.3 0.15,2.05 C0.15,2.225 0.125,2.6 0.1,3.175 C0.1,3.475 0.075,3.825 0.075,4.175 C0.075,4.35 0.075,4.55 0.05,4.725 C0.05,4.825 0.05,4.925 0.05,5 L0.05,5.225 L0.05,5.375 C0.05,5.4 0.05,5.425 0.075,5.425 L0.15,5.425 C0.975,5.45 1.8,5.45 2.55,5.45 C4.025,5.45 5.175,5.475 5.175,5.475 C5.175,5.475 5.225,5.475 5.35,5.475 C5.4,5.475 5.5,5.5 5.475,5.4 C5.475,5.325 5.475,5.225 5.475,5.125 C5.475,4.9 5.475,4.575 5.475,4.2 C5.475,3.475 5.45,2.5 5.45,1.45 C5.45,1.2 5.45,0.925 5.425,0.675 C5.425,0.5 5.425,0.325 5.425,0.15 C5.425,0.125 5.425,0.075 5.425,0.05 L5.325,0.05 C5.275,0.05 5.2,0.05 5.125,0.05 L4.875,0.05 C4.375,0.075 3.875,0.075 3.4,0.1 C2.775,0.125 2.275,0.15 2,0.15 C1.3,0.2 0.875,0.25 0.25,0.25 Z"></path>
                </g>
                <g transform="translate(4.000000, 39.000000)" fill="#373751" fill-rule="nonzero" id="Path">
                    <path d="M0.25,0.25 C0.875,0.25 1.3,0.3 2.05,0.35 C2.3,0.35 2.825,0.375 3.45,0.4 C3.9,0.425 4.4,0.425 4.925,0.45 L5.025,0.45 L5.075,0.45 C5.075,0.45 5.075,0.45 5.075,0.45 C5.075,0.45 5.075,0.45 5.075,0.45 L5.075,0.45 C5.075,0.45 5.075,0.45 5.075,0.45 L5.075,0.5 L5.075,0.7 C5.075,0.95 5.075,1.225 5.05,1.475 C5.05,2.5 5.025,3.5 5.025,4.225 C5.025,4.55 5.025,4.85 5.025,5.025 C5.025,5.025 5.025,5.025 5.025,5.025 L5.025,5.025 C5.025,5.025 5.05,5.025 5,5.025 C4.975,5.025 4.95,5.025 4.925,5.025 C4.8,5.025 4.625,5.025 4.375,5.025 C3.925,5.025 3.275,5.025 2.575,5.025 C1.9,5.025 1.175,5.05 0.45,5.05 L0.45,5.05 C0.45,5.05 0.45,5.075 0.45,5 C0.45,4.9 0.45,4.8 0.45,4.725 C0.45,4.55 0.45,4.35 0.425,4.175 C0.425,3.825 0.4,3.475 0.4,3.175 C0.375,2.6 0.375,2.25 0.35,2.05 C0.3,1.3 0.25,0.875 0.25,0.25 C0.25,0.875 0.2,1.3 0.15,2.05 C0.15,2.225 0.125,2.6 0.1,3.175 C0.1,3.475 0.075,3.825 0.075,4.175 C0.075,4.35 0.075,4.55 0.05,4.725 C0.05,4.825 0.05,4.925 0.05,5 L0.05,5.225 L0.05,5.375 C0.05,5.4 0.05,5.425 0.075,5.425 L0.15,5.425 C0.975,5.45 1.8,5.45 2.55,5.45 C4.025,5.45 5.175,5.475 5.175,5.475 C5.175,5.475 5.225,5.475 5.35,5.475 C5.4,5.475 5.5,5.5 5.475,5.4 C5.475,5.325 5.475,5.225 5.475,5.125 C5.475,4.9 5.475,4.575 5.475,4.2 C5.475,3.475 5.45,2.5 5.45,1.45 C5.45,1.2 5.45,0.925 5.425,0.675 C5.425,0.5 5.425,0.325 5.425,0.15 C5.425,0.125 5.425,0.075 5.425,0.05 L5.325,0.05 C5.275,0.05 5.2,0.05 5.125,0.05 L4.875,0.05 C4.375,0.075 3.875,0.075 3.4,0.1 C2.775,0.125 2.275,0.15 2,0.15 C1.3,0.2 0.875,0.25 0.25,0.25 Z"></path>
                </g>
                <g transform="translate(13.000000, 39.000000)" fill="#373751" fill-rule="nonzero" id="Path">
                    <path d="M0.25,0.25 C0.875,0.25 1.3,0.3 2.05,0.35 C2.3,0.35 2.825,0.375 3.45,0.4 C3.9,0.425 4.4,0.425 4.925,0.45 L5.025,0.45 L5.075,0.45 C5.075,0.45 5.075,0.45 5.075,0.45 C5.075,0.45 5.075,0.45 5.075,0.45 L5.075,0.45 C5.075,0.45 5.075,0.45 5.075,0.45 L5.075,0.5 L5.075,0.7 C5.075,0.95 5.075,1.225 5.05,1.475 C5.05,2.5 5.025,3.5 5.025,4.225 C5.025,4.55 5.025,4.85 5.025,5.025 C5.025,5.025 5.025,5.025 5.025,5.025 L5.025,5.025 C5.025,5.025 5.05,5.025 5,5.025 C4.975,5.025 4.95,5.025 4.925,5.025 C4.8,5.025 4.625,5.025 4.375,5.025 C3.925,5.025 3.275,5.025 2.575,5.025 C1.9,5.025 1.175,5.05 0.45,5.05 L0.45,5.05 C0.45,5.05 0.45,5.075 0.45,5 C0.45,4.9 0.45,4.8 0.45,4.725 C0.45,4.55 0.45,4.35 0.425,4.175 C0.425,3.825 0.4,3.475 0.4,3.175 C0.375,2.6 0.375,2.25 0.35,2.05 C0.3,1.3 0.25,0.875 0.25,0.25 C0.25,0.875 0.2,1.3 0.15,2.05 C0.15,2.225 0.125,2.6 0.1,3.175 C0.1,3.475 0.075,3.825 0.075,4.175 C0.075,4.35 0.075,4.55 0.05,4.725 C0.05,4.825 0.05,4.925 0.05,5 L0.05,5.225 L0.05,5.375 C0.05,5.4 0.05,5.425 0.075,5.425 L0.15,5.425 C0.975,5.45 1.8,5.45 2.55,5.45 C4.025,5.45 5.175,5.475 5.175,5.475 C5.175,5.475 5.225,5.475 5.35,5.475 C5.4,5.475 5.5,5.5 5.475,5.4 C5.475,5.325 5.475,5.225 5.475,5.125 C5.475,4.9 5.475,4.575 5.475,4.2 C5.475,3.475 5.45,2.5 5.45,1.45 C5.45,1.2 5.45,0.925 5.425,0.675 C5.425,0.5 5.425,0.325 5.425,0.15 C5.425,0.125 5.425,0.075 5.425,0.05 L5.325,0.05 C5.275,0.05 5.2,0.05 5.125,0.05 L4.875,0.05 C4.375,0.075 3.875,0.075 3.4,0.1 C2.775,0.125 2.275,0.15 2,0.15 C1.3,0.2 0.875,0.25 0.25,0.25 Z"></path>
                </g>
                <g transform="translate(22.000000, 39.000000)" fill="#373751" fill-rule="nonzero" id="Path">
                    <path d="M0.25,0.25 C0.875,0.25 1.3,0.3 2.05,0.35 C2.3,0.35 2.825,0.375 3.45,0.4 C3.9,0.425 4.4,0.425 4.925,0.45 L5.025,0.45 L5.075,0.45 C5.075,0.45 5.075,0.45 5.075,0.45 C5.075,0.45 5.075,0.45 5.075,0.45 L5.075,0.45 C5.075,0.45 5.075,0.45 5.075,0.45 L5.075,0.5 L5.075,0.7 C5.075,0.95 5.075,1.225 5.05,1.475 C5.05,2.5 5.025,3.5 5.025,4.225 C5.025,4.55 5.025,4.85 5.025,5.025 C5.025,5.025 5.025,5.025 5.025,5.025 L5.025,5.025 C5.025,5.025 5.05,5.025 5,5.025 C4.975,5.025 4.95,5.025 4.925,5.025 C4.8,5.025 4.625,5.025 4.375,5.025 C3.925,5.025 3.275,5.025 2.575,5.025 C1.9,5.025 1.175,5.05 0.45,5.05 L0.45,5.05 C0.45,5.05 0.45,5.075 0.45,5 C0.45,4.9 0.45,4.8 0.45,4.725 C0.45,4.55 0.45,4.35 0.425,4.175 C0.425,3.825 0.4,3.475 0.4,3.175 C0.375,2.6 0.375,2.25 0.35,2.05 C0.3,1.3 0.25,0.875 0.25,0.25 C0.25,0.875 0.2,1.3 0.15,2.05 C0.15,2.225 0.125,2.6 0.1,3.175 C0.1,3.475 0.075,3.825 0.075,4.175 C0.075,4.35 0.075,4.55 0.05,4.725 C0.05,4.825 0.05,4.925 0.05,5 L0.05,5.225 L0.05,5.375 C0.05,5.4 0.05,5.425 0.075,5.425 L0.15,5.425 C0.975,5.45 1.8,5.45 2.55,5.45 C4.025,5.45 5.175,5.475 5.175,5.475 C5.175,5.475 5.225,5.475 5.35,5.475 C5.4,5.475 5.5,5.5 5.475,5.4 C5.475,5.325 5.475,5.225 5.475,5.125 C5.475,4.9 5.475,4.575 5.475,4.2 C5.475,3.475 5.45,2.5 5.45,1.45 C5.45,1.2 5.45,0.925 5.425,0.675 C5.425,0.5 5.425,0.325 5.425,0.15 C5.425,0.125 5.425,0.075 5.425,0.05 L5.325,0.05 C5.275,0.05 5.2,0.05 5.125,0.05 L4.875,0.05 C4.375,0.075 3.875,0.075 3.4,0.1 C2.775,0.125 2.275,0.15 2,0.15 C1.3,0.2 0.875,0.25 0.25,0.25 Z"></path>
                </g>
                <g transform="translate(31.000000, 39.000000)">
                    <rect id="Rectangle" fill="#DE6341" x="0.25" y="0.25" width="5" height="14"></rect>
                    <path d="M0.25,0.25 C0.875,0.25 1.3,0.275 2.05,0.3 C2.45,0.3 3.25,0.325 4.225,0.35 C4.475,0.35 4.75,0.35 5,0.375 L5.1,0.375 C5.125,0.375 5.125,0.375 5.125,0.375 L5.125,0.375 L5.125,0.375 C5.125,0.375 5.125,0.375 5.125,0.4 C5.125,0.525 5.125,0.675 5.125,0.8 C5.125,1.35 5.1,1.925 5.1,2.5 C5.075,3.65 5.075,4.825 5.05,5.975 C5.025,8.275 5.025,10.475 5.025,12.1 C5.025,12.875 5.025,13.525 5.025,13.975 C5.025,13.975 5.025,13.975 5.025,13.975 C5.025,13.975 5.05,13.975 5,13.975 C4.95,13.975 4.925,13.975 4.9,13.975 C4.775,13.975 4.7,13.975 4.7,13.975 C4.7,13.975 3.65,13.975 2.025,13.975 C1.625,13.975 1.175,13.975 0.7,13.975 C0.65,13.975 0.575,13.975 0.525,13.975 L0.475,13.975 C0.45,13.975 0.475,13.975 0.475,13.975 L0.475,13.975 L0.475,13.975 L0.475,13.975 L0.475,13.975 L0.475,13.925 C0.475,13.675 0.475,13.425 0.475,13.15 C0.475,12.1 0.45,10.975 0.45,9.825 C0.425,8.675 0.425,7.5 0.4,6.35 C0.375,5.2 0.35,4.1 0.325,3.1 C0.325,2.6 0.3,2.2 0.3,2 C0.275,1.3 0.25,0.875 0.25,0.25 C0.25,0.875 0.225,1.3 0.2,2.05 C0.2,2.25 0.175,2.65 0.175,3.15 C0.15,4.175 0.125,5.275 0.1,6.4 C0.075,7.55 0.075,8.725 0.05,9.875 C0.05,11.025 0.025,12.15 0.025,13.2 C0.025,13.45 0.025,13.725 0.025,13.975 C0.025,14.075 0.025,14.2 0.025,14.3 L0.025,14.4 L0.025,14.45 C0.025,14.475 0.025,14.5 0.05,14.475 L0.225,14.475 C0.4,14.475 0.55,14.475 0.7,14.475 C1.175,14.475 1.625,14.475 2.025,14.475 C3.65,14.475 4.7,14.475 4.7,14.475 C4.7,14.475 4.775,14.475 4.9,14.475 C5,14.475 5.1,14.475 5.25,14.475 C5.3,14.475 5.35,14.475 5.4,14.475 C5.425,14.475 5.45,14.475 5.475,14.475 L5.525,14.475 C5.55,14.475 5.525,14.45 5.525,14.45 C5.525,14.35 5.525,14.225 5.525,14.125 C5.525,13.65 5.525,12.95 5.525,12.125 C5.525,10.5 5.5,8.3 5.5,6 C5.475,4.85 5.475,3.675 5.45,2.525 C5.45,1.95 5.425,1.375 5.425,0.825 C5.425,0.7 5.425,0.55 5.425,0.425 L5.425,0.25 L5.425,0.15 C5.425,0.125 5.4,0.15 5.4,0.125 L5.35,0.125 C5.325,0.125 5.275,0.125 5.25,0.125 L5.175,0.125 L5.075,0.125 C4.8,0.125 4.55,0.125 4.3,0.15 C3.325,0.175 2.525,0.2 2.125,0.2 C1.3,0.225 0.875,0.25 0.25,0.25 Z" id="Path" fill="#373751" fill-rule="nonzero"></path>
                </g>
                <g transform="translate(4.000000, 48.000000)" fill="#373751" fill-rule="nonzero" id="Path">
                    <path d="M0.25,0.25 C0.875,0.25 1.3,0.3 2.05,0.35 C2.3,0.35 2.825,0.375 3.45,0.4 C3.9,0.425 4.4,0.425 4.925,0.45 L5.025,0.45 L5.075,0.45 C5.075,0.45 5.075,0.45 5.075,0.45 C5.075,0.45 5.075,0.45 5.075,0.45 L5.075,0.45 C5.075,0.45 5.075,0.45 5.075,0.45 L5.075,0.5 L5.075,0.7 C5.075,0.95 5.075,1.225 5.05,1.475 C5.05,2.5 5.025,3.5 5.025,4.225 C5.025,4.55 5.025,4.85 5.025,5.025 C5.025,5.025 5.025,5.025 5.025,5.025 L5.025,5.025 C5.025,5.025 5.05,5.025 5,5.025 C4.975,5.025 4.95,5.025 4.925,5.025 C4.8,5.025 4.625,5.025 4.375,5.025 C3.925,5.025 3.275,5.025 2.575,5.025 C1.9,5.025 1.175,5.05 0.45,5.05 L0.45,5.05 C0.45,5.05 0.45,5.075 0.45,5 C0.45,4.9 0.45,4.8 0.45,4.725 C0.45,4.55 0.45,4.35 0.425,4.175 C0.425,3.825 0.4,3.475 0.4,3.175 C0.375,2.6 0.375,2.25 0.35,2.05 C0.3,1.3 0.25,0.875 0.25,0.25 C0.25,0.875 0.2,1.3 0.15,2.05 C0.15,2.225 0.125,2.6 0.1,3.175 C0.1,3.475 0.075,3.825 0.075,4.175 C0.075,4.35 0.075,4.55 0.05,4.725 C0.05,4.825 0.05,4.925 0.05,5 L0.05,5.225 L0.05,5.375 C0.05,5.4 0.05,5.425 0.075,5.425 L0.15,5.425 C0.975,5.45 1.8,5.45 2.55,5.45 C4.025,5.45 5.175,5.475 5.175,5.475 C5.175,5.475 5.225,5.475 5.35,5.475 C5.4,5.475 5.5,5.5 5.475,5.4 C5.475,5.325 5.475,5.225 5.475,5.125 C5.475,4.9 5.475,4.575 5.475,4.2 C5.475,3.475 5.45,2.5 5.45,1.45 C5.45,1.2 5.45,0.925 5.425,0.675 C5.425,0.5 5.425,0.325 5.425,0.15 C5.425,0.125 5.425,0.075 5.425,0.05 L5.325,0.05 C5.275,0.05 5.2,0.05 5.125,0.05 L4.875,0.05 C4.375,0.075 3.875,0.075 3.4,0.1 C2.775,0.125 2.275,0.15 2,0.15 C1.3,0.2 0.875,0.25 0.25,0.25 Z"></path>
                </g>
                <g transform="translate(13.000000, 48.000000)" fill="#373751" fill-rule="nonzero" id="Path">
                    <path d="M0.25,0.25 C0.875,0.25 1.3,0.3 2.05,0.35 C2.3,0.35 2.825,0.375 3.45,0.4 C3.9,0.425 4.4,0.425 4.925,0.45 L5.025,0.45 L5.075,0.45 C5.075,0.45 5.075,0.45 5.075,0.45 C5.075,0.45 5.075,0.45 5.075,0.45 L5.075,0.45 C5.075,0.45 5.075,0.45 5.075,0.45 L5.075,0.5 L5.075,0.7 C5.075,0.95 5.075,1.225 5.05,1.475 C5.05,2.5 5.025,3.5 5.025,4.225 C5.025,4.55 5.025,4.85 5.025,5.025 C5.025,5.025 5.025,5.025 5.025,5.025 L5.025,5.025 C5.025,5.025 5.05,5.025 5,5.025 C4.975,5.025 4.95,5.025 4.925,5.025 C4.8,5.025 4.625,5.025 4.375,5.025 C3.925,5.025 3.275,5.025 2.575,5.025 C1.9,5.025 1.175,5.05 0.45,5.05 L0.45,5.05 C0.45,5.05 0.45,5.075 0.45,5 C0.45,4.9 0.45,4.8 0.45,4.725 C0.45,4.55 0.45,4.35 0.425,4.175 C0.425,3.825 0.4,3.475 0.4,3.175 C0.375,2.6 0.375,2.25 0.35,2.05 C0.3,1.3 0.25,0.875 0.25,0.25 C0.25,0.875 0.2,1.3 0.15,2.05 C0.15,2.225 0.125,2.6 0.1,3.175 C0.1,3.475 0.075,3.825 0.075,4.175 C0.075,4.35 0.075,4.55 0.05,4.725 C0.05,4.825 0.05,4.925 0.05,5 L0.05,5.225 L0.05,5.375 C0.05,5.4 0.05,5.425 0.075,5.425 L0.15,5.425 C0.975,5.45 1.8,5.45 2.55,5.45 C4.025,5.45 5.175,5.475 5.175,5.475 C5.175,5.475 5.225,5.475 5.35,5.475 C5.4,5.475 5.5,5.5 5.475,5.4 C5.475,5.325 5.475,5.225 5.475,5.125 C5.475,4.9 5.475,4.575 5.475,4.2 C5.475,3.475 5.45,2.5 5.45,1.45 C5.45,1.2 5.45,0.925 5.425,0.675 C5.425,0.5 5.425,0.325 5.425,0.15 C5.425,0.125 5.425,0.075 5.425,0.05 L5.325,0.05 C5.275,0.05 5.2,0.05 5.125,0.05 L4.875,0.05 C4.375,0.075 3.875,0.075 3.4,0.1 C2.775,0.125 2.275,0.15 2,0.15 C1.3,0.2 0.875,0.25 0.25,0.25 Z"></path>
                </g>
                <g transform="translate(22.000000, 48.000000)" fill="#373751" fill-rule="nonzero" id="Path">
                    <path d="M0.25,0.25 C0.875,0.25 1.3,0.3 2.05,0.35 C2.3,0.35 2.825,0.375 3.45,0.4 C3.9,0.425 4.4,0.425 4.925,0.45 L5.025,0.45 L5.075,0.45 C5.075,0.45 5.075,0.45 5.075,0.45 C5.075,0.45 5.075,0.45 5.075,0.45 L5.075,0.45 C5.075,0.45 5.075,0.45 5.075,0.45 L5.075,0.5 L5.075,0.7 C5.075,0.95 5.075,1.225 5.05,1.475 C5.05,2.5 5.025,3.5 5.025,4.225 C5.025,4.55 5.025,4.85 5.025,5.025 C5.025,5.025 5.025,5.025 5.025,5.025 L5.025,5.025 C5.025,5.025 5.05,5.025 5,5.025 C4.975,5.025 4.95,5.025 4.925,5.025 C4.8,5.025 4.625,5.025 4.375,5.025 C3.925,5.025 3.275,5.025 2.575,5.025 C1.9,5.025 1.175,5.05 0.45,5.05 L0.45,5.05 C0.45,5.05 0.45,5.075 0.45,5 C0.45,4.9 0.45,4.8 0.45,4.725 C0.45,4.55 0.45,4.35 0.425,4.175 C0.425,3.825 0.4,3.475 0.4,3.175 C0.375,2.6 0.375,2.25 0.35,2.05 C0.3,1.3 0.25,0.875 0.25,0.25 C0.25,0.875 0.2,1.3 0.15,2.05 C0.15,2.225 0.125,2.6 0.1,3.175 C0.1,3.475 0.075,3.825 0.075,4.175 C0.075,4.35 0.075,4.55 0.05,4.725 C0.05,4.825 0.05,4.925 0.05,5 L0.05,5.225 L0.05,5.375 C0.05,5.4 0.05,5.425 0.075,5.425 L0.15,5.425 C0.975,5.45 1.8,5.45 2.55,5.45 C4.025,5.45 5.175,5.475 5.175,5.475 C5.175,5.475 5.225,5.475 5.35,5.475 C5.4,5.475 5.5,5.5 5.475,5.4 C5.475,5.325 5.475,5.225 5.475,5.125 C5.475,4.9 5.475,4.575 5.475,4.2 C5.475,3.475 5.45,2.5 5.45,1.45 C5.45,1.2 5.45,0.925 5.425,0.675 C5.425,0.5 5.425,0.325 5.425,0.15 C5.425,0.125 5.425,0.075 5.425,0.05 L5.325,0.05 C5.275,0.05 5.2,0.05 5.125,0.05 L4.875,0.05 C4.375,0.075 3.875,0.075 3.4,0.1 C2.775,0.125 2.275,0.15 2,0.15 C1.3,0.2 0.875,0.25 0.25,0.25 Z"></path>
                </g>
                <g id="Path-22" transform="translate(3.250000, 17.000000)" fill="#373751" fill-rule="nonzero">
                    <path d="M0,0.25 C0.625,0.25 1.05,0.275 1.8,0.3 C2.175,0.3 2.9,0.325 3.8,0.35 C5.6,0.4 7.7,0.425 9.725,0.45 C13.775,0.5 17.45,0.5 17.45,0.5 C17.45,0.5 21.125,0.5 25.175,0.45 C26.175,0.425 27.225,0.425 28.225,0.4 C29.225,0.375 30.2,0.35 31.075,0.35 C31.575,0.325 31.975,0.325 32.175,0.325 C32.925,0.3 33.35,0.275 33.975,0.275 C33.35,0.275 32.925,0.25 32.175,0.225 C31.975,0.225 31.575,0.2 31.075,0.2 C30.175,0.175 29.225,0.15 28.225,0.15 C27.225,0.125 26.175,0.125 25.175,0.1 C21.15,0 17.45,0 17.45,0 C17.45,0 13.775,0 9.725,0.025 C7.7,0.05 5.575,0.075 3.8,0.125 C2.9,0.15 2.175,0.175 1.8,0.175 C1.05,0.225 0.625,0.25 0,0.25 Z" id="Path"></path>
                </g>
            </g>
        </g>
    </g>
</svg>