<?xml version="1.0" encoding="UTF-8"?>
<svg width="96px" height="96px" viewBox="0 0 96 96" version="1.1" xmlns="http://www.w3.org/2000/svg" xmlns:xlink="http://www.w3.org/1999/xlink">
    <title>icn_click</title>
    <defs>
        <polygon id="path-1" points="0.296965038 0.429735248 54.485 0.429735248 54.485 55.5 0.296965038 55.5"></polygon>
    </defs>
    <g id="Symbols" stroke="none" stroke-width="1" fill="none" fill-rule="evenodd">
        <g id="Group-32" transform="translate(4.000000, 3.000000)">
            <path d="M35,20.0379 C42.732,20.0379 49,26.3059 49,34.0379 C49,41.7699 42.732,48.0379 35,48.0379 C27.268,48.0379 21,41.7699 21,34.0379 C21,26.3059 27.268,20.0379 35,20.0379" id="Fill-1" fill="#DE6341"></path>
            <path d="M35,20.0379 C36.2475,20.0954 37.109,20.1274 38.556,20.5184 C38.749,20.5804 39.0545,20.6219 39.404,20.7669 C39.581,20.8329 39.7745,20.9049 39.982,20.9824 L40.283,21.0944 C40.414,21.1374 40.5385,21.1989 40.6635,21.2619 C40.914,21.3844 41.1685,21.5094 41.4265,21.6359 C41.691,21.7509 41.928,21.9229 42.1815,22.0729 C42.4285,22.2339 42.6945,22.3724 42.9335,22.5569 C43.9155,23.2594 44.8465,24.1194 45.6755,25.1134 C46.4715,26.1319 47.188,27.2619 47.7025,28.5059 C48.1955,29.7549 48.561,31.0764 48.6845,32.4314 C48.736,32.7669 48.717,33.1099 48.737,33.4474 C48.752,33.7864 48.763,34.1249 48.726,34.4624 L48.654,35.4714 C48.5965,35.8024 48.5395,36.1334 48.483,36.4634 C48.2045,37.7669 47.802,39.0379 47.1765,40.1624 C46.576,41.2939 45.857,42.3294 45.021,43.1879 C43.396,44.9594 41.4375,46.0759 39.6985,46.7074 C37.948,47.3329 36.41,47.5219 35.3485,47.5319 C35.083,47.5549 34.8465,47.5474 34.641,47.5314 C34.4355,47.5214 34.2605,47.5124 34.1195,47.5059 C33.837,47.4919 33.6875,47.4849 33.6875,47.4849 C33.6875,47.4849 33.6495,47.4869 33.5775,47.4754 C33.5055,47.4644 33.3985,47.4479 33.259,47.4264 C32.9815,47.3739 32.5635,47.3464 32.047,47.2209 C31.0105,46.9969 29.5335,46.5299 27.9335,45.5744 C26.344,44.6219 24.6305,43.1494 23.368,41.0979 C22.062,39.0844 21.2685,36.4959 21.254,33.8104 C21.2405,32.4654 21.467,31.1124 21.834,29.8014 C22.229,28.4949 22.8405,27.2634 23.574,26.1339 C24.322,25.0089 25.25,24.0394 26.2315,23.1949 C26.747,22.8014 27.245,22.3984 27.794,22.0884 C28.0635,21.9274 28.319,21.7459 28.6025,21.6219 C28.8595,21.4959 29.114,21.3714 29.3655,21.2479 C30.274,20.8589 31.0465,20.6014 31.4435,20.5184 C32.8915,20.1274 33.753,20.0954 35,20.0379 C33.7525,20.0959 32.892,20.1249 31.44,20.5049 C31.0415,20.5854 30.2665,20.8354 29.3505,21.2139 C29.0965,21.3339 28.8395,21.4554 28.58,21.5784 C28.2935,21.6989 28.0345,21.8764 27.761,22.0339 C27.204,22.3359 26.696,22.7314 26.1685,23.1169 C25.1625,23.9464 24.1995,24.9004 23.4085,26.0189 C22.6315,27.1419 21.967,28.3759 21.5155,29.6989 C21.0925,31.0269 20.8075,32.4119 20.7695,33.8024 C20.6795,36.5774 21.406,39.3249 22.7205,41.4914 C23.989,43.6969 25.774,45.3104 27.455,46.3539 C29.1465,47.4024 30.7275,47.9174 31.8365,48.1644 C32.39,48.3009 32.8375,48.3344 33.135,48.3909 C33.2845,48.4139 33.399,48.4314 33.4765,48.4434 C33.5535,48.4559 33.594,48.4539 33.594,48.4539 C33.594,48.4539 33.754,48.4624 34.057,48.4784 C34.208,48.4859 34.395,48.4954 34.615,48.5069 C34.8355,48.5234 35.089,48.5304 35.3735,48.5069 C36.5095,48.4944 38.161,48.2884 40.0285,47.5969 C41.8835,46.9024 43.9565,45.6689 45.6325,43.7469 C47.341,41.8714 48.616,39.3199 49.0535,36.5654 C49.0995,36.2199 49.146,35.8739 49.193,35.5274 L49.23,34.4774 C49.255,34.1274 49.2305,33.7774 49.2025,33.4279 C49.1695,33.0794 49.175,32.7269 49.11,32.3819 C48.931,30.9904 48.5075,29.6489 47.963,28.3924 C47.3955,27.1409 46.633,26.0169 45.801,25.0084 C44.936,24.0244 43.9785,23.1809 42.978,22.4929 C42.7345,22.3119 42.4645,22.1769 42.214,22.0194 C41.957,21.8724 41.716,21.7044 41.449,21.5924 C41.1885,21.4694 40.9315,21.3479 40.678,21.2279 C40.552,21.1664 40.427,21.1064 40.295,21.0649 L39.9925,20.9554 C39.7835,20.8809 39.5885,20.8104 39.411,20.7464 C39.0595,20.6049 38.753,20.5659 38.56,20.5049 C37.108,20.1254 36.2475,20.0959 35,20.0379" id="Fill-3" fill="#FFFFFF"></path>
            <polygon id="Fill-5" fill="#FFFFFF" points="59.1914 71.2205 50.9999 81.038 34.9999 34.038 80.9999 51.038 70.9999 60.038 87.9999 77.038 76.9999 88.038"></polygon>
            <g id="Group-9" transform="translate(34.000000, 32.879000)">
                <mask id="mask-2" fill="white">
                    <use xlink:href="#path-1"></use>
                </mask>
                <g id="Clip-8"></g>
                <path d="M25.1914,38.3415 C24.3884,39.302 23.8239,39.9375 22.8494,41.076 C21.7854,42.3235 19.6544,44.822 17.0569,47.8675 C15.3159,42.612 13.4174,36.885 11.4634,30.9885 C9.4724,25.0325 7.4244,18.906 5.4214,12.9155 C4.4149,9.922 3.4204,6.9625 2.4494,4.075 C2.2064,3.353 1.9644,2.636 1.7244,1.924 C1.7024,1.8575 1.7169,1.903 1.7124,1.8895 L1.7109,1.8905 L1.7099,1.8915 L1.7114,1.8945 C1.7579,1.9135 1.5404,1.8325 2.0454,2.021 C3.4324,2.5375 4.7964,3.046 6.1334,3.544 C11.4829,5.531 16.3949,7.3555 20.5674,8.905 C28.9159,11.993 34.3024,13.985 34.3024,13.985 C34.3024,13.985 35.6489,14.482 38.0399,15.365 C39.2354,15.806 40.6919,16.343 42.3714,16.962 C43.2114,17.271 44.1069,17.6015 45.0539,17.95 C45.2904,18.037 45.5304,18.125 45.7734,18.2145 L46.0984,18.3345 L46.0979,18.333 L46.0989,18.3315 L46.0989,18.331 L46.0984,18.331 L46.0344,18.3895 L45.7264,18.667 C44.0754,20.1595 42.2774,21.7835 40.3634,23.513 C39.4069,24.378 38.4209,25.269 37.4099,26.184 L37.0119,26.544 L36.6289,26.89 L36.4379,27.063 C36.4154,27.092 36.3534,27.1205 36.3634,27.15 L36.4534,27.242 C36.7914,27.5795 37.1309,27.919 37.4724,28.2605 C37.9679,28.7525 38.4684,29.25 38.9739,29.753 C43.0259,33.7715 47.4089,38.119 51.8934,42.5665 C52.4299,43.0975 52.9674,43.6295 53.5064,44.163 C53.5019,44.1635 53.5134,44.1575 53.5034,44.164 L53.0839,44.5875 L52.2449,45.4355 C51.1264,46.5685 50.0049,47.704 48.8844,48.838 C47.7644,49.9735 46.6444,51.108 45.5299,52.238 C44.9729,52.8035 44.4164,53.3675 43.8624,53.9305 L43.0319,54.773 C42.9829,54.8225 42.9894,54.816 42.9914,54.8135 L42.9924,54.8135 L42.9929,54.8145 C42.9929,54.8145 43.0059,54.825 42.9544,54.7775 L42.5229,54.376 C37.9609,50.149 33.5304,46.0435 29.4644,42.276 C28.7364,41.6045 28.1394,41.0545 27.8409,40.779 C26.7384,39.764 26.1024,39.2 25.1914,38.3415 C26.1004,39.202 26.7004,39.805 27.7769,40.8475 C28.0684,41.129 28.6524,41.694 29.3639,42.3825 C33.3579,46.226 37.7104,50.4145 42.1914,54.727 L42.6169,55.135 L42.7919,55.3025 L43.0079,55.5 L43.3859,55.127 L44.2284,54.2965 C44.7914,53.7425 45.3554,53.186 45.9209,52.629 C47.0509,51.5145 48.1854,50.3945 49.3209,49.275 C50.4549,48.154 51.5904,47.0325 52.7229,45.914 L53.5714,45.075 L53.9949,44.656 L54.4104,44.2375 L54.4624,44.1845 C54.4884,44.1665 54.4954,44.149 54.4659,44.1315 L54.3619,44.026 L54.1529,43.815 C53.5699,43.2265 52.9879,42.6385 52.4079,42.0525 C47.9599,37.5675 43.6129,33.185 39.5944,29.133 C39.0914,28.627 38.5939,28.1265 38.1014,27.6315 L37.7334,27.261 L37.6489,27.1765 L37.6484,27.177 L37.6494,27.178 L37.6489,27.1795 L38.0129,26.8535 C39.0284,25.944 40.0179,25.0575 40.9789,24.197 C42.8999,22.475 44.7034,20.8575 46.3604,19.3725 C46.6489,19.113 46.9339,18.857 47.2164,18.6035 C47.4189,18.4215 47.6199,18.2405 47.8204,18.06 L47.8954,17.993 C47.9039,17.9735 47.8439,17.9675 47.8209,17.954 L47.6324,17.8845 L47.2569,17.7455 C46.6174,17.5085 45.9934,17.277 45.3859,17.052 C44.4394,16.7015 43.5449,16.3695 42.7054,16.0585 C41.0269,15.436 39.5714,14.897 38.3764,14.4545 C35.9864,13.5705 34.6394,13.072 34.6394,13.072 C34.6394,13.072 29.2524,11.0825 20.9024,7.999 C16.7249,6.463 11.8064,4.6545 6.4509,2.685 C5.1109,2.1945 3.7444,1.6935 2.3549,1.184 C1.7724,0.97 1.1869,0.755 0.5994,0.5395 L0.3374,0.443 C0.2684,0.401 0.3059,0.4685 0.3184,0.51 L0.3624,0.6425 L0.5394,1.172 L0.8924,2.207 C1.1369,2.9175 1.3834,3.6335 1.6309,4.3535 C2.6234,7.2335 3.6409,10.1855 4.6704,13.1715 C6.7384,19.1395 8.8534,25.2435 10.9099,31.177 C13.0039,37.1695 15.0379,42.99 16.9049,48.331 C16.9204,48.365 16.9304,48.428 16.9509,48.437 L17.0344,48.3405 L17.2019,48.1415 L17.4049,47.8945 L17.7344,47.492 C17.9529,47.224 18.1709,46.9575 18.3874,46.693 C18.8194,46.1645 19.2459,45.6415 19.6674,45.1255 C20.4584,44.1565 21.2274,43.213 21.9724,42.3005 C22.1124,42.1285 22.2429,41.968 22.3619,41.8215 C22.6004,41.529 22.7924,41.2925 22.9209,41.1355 C23.8664,39.973 24.3904,39.3035 25.1914,38.3415" id="Fill-7" fill="#372F46" mask="url(#mask-2)"></path>
            </g>
            <path d="M27.78125,56.0379 C27.37825,57.2234 26.83825,57.9444 26.30675,59.3474 C26.21675,59.5854 26.06625,59.9709 25.78675,60.7829 C25.70075,61.0209 25.52075,61.5924 25.52075,61.5924 C25.52075,61.5924 25.36875,62.0699 25.28425,62.3354 C24.95125,63.4314 24.77875,64.1204 24.68775,64.4804 C24.31875,65.9349 24.34875,66.8354 24.00025,68.0379 C24.40325,66.8529 24.94425,66.1319 25.47575,64.7284 C25.60775,64.3814 25.86125,63.7179 26.21725,62.6294 C26.29975,62.3634 26.44875,61.8849 26.44875,61.8849 C26.44875,61.8849 26.62925,61.3134 26.69525,61.0694 C26.93175,60.2439 27.02925,59.8414 27.09225,59.5949 C27.46075,58.1404 27.43175,57.2404 27.78125,56.0379" id="Fill-10" fill="#372F46"></path>
            <path d="M19,51.0379 C18.8465,51.2159 18.6385,51.2584 18.394,51.4259 C18.3345,51.4764 18.205,51.5689 18.066,51.6964 C17.9265,51.8239 17.7625,51.9744 17.6205,52.1299 C17.334,52.4379 17.11,52.7454 17.11,52.7454 C17.11,52.7454 16.8765,53.0459 16.661,53.4074 C16.552,53.5869 16.4525,53.7859 16.37,53.9559 C16.286,54.1244 16.234,54.2759 16.202,54.3469 C16.11,54.6284 16.128,54.8409 16,55.0379 C16.153,54.8599 16.3625,54.8179 16.6065,54.6504 C16.666,54.5999 16.797,54.5074 16.9355,54.3799 C17.075,54.2534 17.2385,54.1019 17.38,53.9464 C17.6665,53.6384 17.89,53.3304 17.89,53.3304 C17.89,53.3304 18.123,53.0289 18.338,52.6679 C18.4475,52.4879 18.546,52.2889 18.629,52.1194 C18.7125,51.9499 18.765,51.7994 18.797,51.7284 C18.889,51.4464 18.872,51.2349 19,51.0379" id="Fill-12" fill="#372F46"></path>
            <path d="M14,46.0379 C13.044,46.8469 12.205,47.1824 11.03,48.1149 C10.831,48.2734 10.5045,48.5274 9.85,49.0834 C9.7185,49.1904 9.4205,49.4579 9.4205,49.4579 C9.4205,49.4579 9.1675,49.6789 9.028,49.8014 C8.176,50.5674 7.673,51.0694 7.4105,51.3309 C6.3455,52.3884 5.9155,53.1834 5,54.0379 C5.956,53.2294 6.796,52.8949 7.971,51.9619 C8.262,51.7314 8.819,51.2909 9.6795,50.5344 C9.8175,50.4099 10.0665,50.1849 10.0665,50.1849 C10.0665,50.1849 10.3675,49.9204 10.4895,49.8024 C11.1175,49.2174 11.4085,48.9234 11.589,48.7439 C12.653,47.6864 13.0845,46.8924 14,46.0379" id="Fill-14" fill="#372F46"></path>
            <path d="M13,37.0379 C12.719,37.0219 12.5275,36.8814 12.191,36.7864 C12.1,36.7689 11.917,36.7204 11.695,36.6859 C11.4725,36.6504 11.21,36.6104 10.9585,36.5899 C10.4565,36.5449 10,36.5504 10,36.5504 C10,36.5504 9.5435,36.5439 9.0415,36.5884 C8.79,36.6089 8.5275,36.6484 8.305,36.6844 C8.083,36.7184 7.9,36.7679 7.809,36.7854 C7.472,36.8799 7.281,37.0224 7,37.0379 C7.281,37.0534 7.472,37.1959 7.809,37.2904 C7.9,37.3079 8.083,37.3574 8.305,37.3914 C8.5275,37.4274 8.79,37.4669 9.0415,37.4874 C9.5435,37.5319 10,37.5254 10,37.5254 C10,37.5254 10.4565,37.5309 10.9585,37.4864 C11.21,37.4654 11.4725,37.4254 11.695,37.3899 C11.917,37.3554 12.1,37.3069 12.191,37.2894 C12.5275,37.1944 12.719,37.0539 13,37.0379" id="Fill-16" fill="#372F46"></path>
            <path d="M13,29.0379 C11.7485,29.0114 10.898,28.7189 9.4,28.6334 C9.146,28.6184 8.7335,28.5909 7.875,28.5659 C7.557,28.5524 6.8045,28.5514 6.8045,28.5514 C6.8045,28.5514 6.1745,28.5509 5.825,28.5509 C4.6795,28.5669 3.97,28.6099 3.6,28.6319 C2.1015,28.7169 1.2515,29.0114 0,29.0379 C1.2515,29.0644 2.1015,29.3589 3.6,29.4439 C3.97,29.4659 4.6795,29.5089 5.825,29.5249 C6.1745,29.5249 6.8045,29.5244 6.8045,29.5244 C6.8045,29.5244 7.557,29.5234 7.875,29.5099 C8.7335,29.4849 9.146,29.4574 9.4,29.4424 C10.898,29.3569 11.7485,29.0644 13,29.0379" id="Fill-18" fill="#372F46"></path>
            <path d="M16,19.0379 C15.7285,18.7469 15.6465,18.4464 15.3695,18.0504 C15.2215,17.8339 14.7495,17.2104 14.276,16.6794 C13.8055,16.1454 13.3445,15.6934 13.3445,15.6934 C13.3445,15.6934 12.893,15.2319 12.359,14.7614 C11.829,14.2874 11.205,13.8159 10.9885,13.6679 C10.592,13.3904 10.291,13.3094 10,13.0379 C10.2715,13.3289 10.3525,13.6299 10.63,14.0264 C10.778,14.2429 11.2495,14.8669 11.7235,15.3969 C12.194,15.9309 12.6555,16.3824 12.6555,16.3824 C12.6555,16.3824 13.1075,16.8434 13.6415,17.3139 C14.1725,17.7874 14.796,18.2594 15.0125,18.4074 C15.4085,18.6844 15.709,18.7664 16,19.0379" id="Fill-20" fill="#372F46"></path>
            <path d="M24,13.0379 C23.251,12.0349 22.927,11.2114 22.085,9.9694 C21.9435,9.7579 21.7135,9.4139 21.2175,8.7124 C20.9745,8.3659 20.557,7.7894 20.194,7.3044 C19.828,6.8209 19.5255,6.4224 19.5255,6.4224 C19.5255,6.4224 18.508,5.0914 17.914,4.3759 C17.188,3.4889 16.7215,2.9534 16.476,2.6749 C15.491,1.5424 14.7775,1.0189 14,0.0379 C14.749,1.0409 15.0715,1.8649 15.914,3.1074 C16.12,3.4159 16.518,4.0049 17.189,4.9339 C17.728,5.6914 18.7535,7.0164 18.7535,7.0164 C18.7535,7.0164 19.0615,7.4109 19.4345,7.8884 C19.8105,8.3639 20.2605,8.9154 20.533,9.2389 C21.0835,9.8984 21.3575,10.2084 21.525,10.3999 C22.51,11.5324 23.2225,12.0564 24,13.0379" id="Fill-22" fill="#372F46"></path>
            <path d="M30,11.0379 C30.016,10.7569 30.1565,10.5654 30.2515,10.2289 C30.269,10.1379 30.3175,9.9549 30.352,9.7329 C30.3875,9.5104 30.4275,9.2479 30.448,8.9964 C30.493,8.4944 30.4875,8.0379 30.4875,8.0379 C30.4875,8.0379 30.494,7.5814 30.4495,7.0794 C30.429,6.8279 30.3895,6.5654 30.3535,6.3429 C30.3195,6.1209 30.27,5.9379 30.2525,5.8469 C30.158,5.5099 30.0155,5.3189 30,5.0379 C29.9845,5.3189 29.842,5.5099 29.7475,5.8469 C29.73,5.9379 29.6805,6.1209 29.6465,6.3429 C29.6105,6.5654 29.571,6.8279 29.5505,7.0794 C29.506,7.5814 29.5125,8.0379 29.5125,8.0379 C29.5125,8.0379 29.507,8.4944 29.5515,8.9964 C29.5725,9.2479 29.6125,9.5104 29.648,9.7329 C29.6825,9.9549 29.731,10.1379 29.7485,10.2289 C29.8435,10.5654 29.984,10.7569 30,11.0379" id="Fill-24" fill="#372F46"></path>
            <path d="M38,10.0379 C38.154,9.5729 38.3975,9.2989 38.646,8.7619 C38.7835,8.4724 39.16,7.5899 39.45,6.7649 C39.7445,5.9409 39.967,5.1779 39.967,5.1779 C39.967,5.1779 40.202,4.4189 40.41,3.5689 C40.623,2.7209 40.7935,1.7769 40.8385,1.4589 C40.926,0.8734 40.8725,0.5104 41,0.0379 C40.846,0.5029 40.602,0.7764 40.353,1.3134 C40.215,1.6034 39.838,2.4854 39.549,3.3109 C39.2545,4.1349 39.033,4.8979 39.033,4.8979 C39.033,4.8979 38.799,5.6569 38.591,6.5069 C38.3785,7.3554 38.2075,8.2994 38.163,8.6169 C38.075,9.2024 38.1275,9.5654 38,10.0379" id="Fill-26" fill="#372F46"></path>
            <path d="M47,13.0379 C47.1545,12.8114 47.3705,12.7249 47.62,12.4934 C47.6805,12.4259 47.8135,12.2989 47.9545,12.1314 C48.096,11.9644 48.2615,11.7664 48.4055,11.5674 C48.6945,11.1719 48.918,10.7884 48.918,10.7884 C48.918,10.7884 49.152,10.4114 49.3645,9.9704 C49.473,9.7504 49.57,9.5114 49.6505,9.3074 C49.7325,9.1044 49.781,8.9269 49.8125,8.8419 C49.8995,8.5129 49.8725,8.2804 50,8.0379 C49.846,8.2644 49.6285,8.3504 49.379,8.5819 C49.3185,8.6489 49.185,8.7759 49.0445,8.9439 C48.9025,9.1109 48.737,9.3089 48.594,9.5074 C48.3045,9.9034 48.082,10.2874 48.082,10.2874 C48.082,10.2874 47.849,10.6649 47.636,11.1064 C47.5285,11.3259 47.4315,11.5654 47.3505,11.7689 C47.269,11.9724 47.219,12.1494 47.1885,12.2344 C47.102,12.5639 47.127,12.7954 47,13.0379" id="Fill-28" fill="#372F46"></path>
            <path d="M56,19.0379 C56.9945,18.2774 57.843,17.9769 59.066,17.1074 C59.273,16.9604 59.613,16.7239 60.298,16.2064 C60.5305,16.0359 61.063,15.6109 61.063,15.6109 C61.063,15.6109 61.509,15.2549 61.7565,15.0579 C62.642,14.3309 63.1695,13.8549 63.4445,13.6064 C64.5615,12.6039 65.04,11.8414 66,11.0379 C65.0055,11.7984 64.1565,12.0979 62.933,12.9674 C62.6305,13.1814 62.0505,13.5909 61.1465,14.2959 C60.9,14.4939 60.455,14.8509 60.455,14.8509 C60.455,14.8509 59.9235,15.2774 59.706,15.4659 C59.051,16.0209 58.7455,16.3004 58.556,16.4704 C57.4395,17.4734 56.9605,18.2349 56,19.0379" id="Fill-30" fill="#372F46"></path>
        </g>
    </g>
</svg>